<?xml version="1.0" encoding="UTF-8"?>
<!DOCTYPE svg PUBLIC "-//W3C//DTD SVG 1.1//EN" "http://www.w3.org/Graphics/SVG/1.1/DTD/svg11.dtd">
<!-- Creator: CorelDRAW -->
<svg xmlns="http://www.w3.org/2000/svg" xml:space="preserve" width="130mm" height="132mm" style="shape-rendering:geometricPrecision; text-rendering:geometricPrecision; image-rendering:optimizeQuality; fill-rule:evenodd; clip-rule:evenodd"
viewBox="0 0 130 132"
 xmlns:xlink="http://www.w3.org/1999/xlink">
 <defs>
  <style type="text/css">
   <![CDATA[
    .str0 {stroke:#ED3237;stroke-width:0.2}
    .fil1 {fill:#ED3237}
    .fil0 {fill:#0000A3;fill-rule:nonzero}
   ]]>
  </style>
 </defs>
 <g id="Capa_x0020_1">
  <metadata id="CorelCorpID_0Corel-Layer"/>
  <g id="_82068952">
   <path id="_83435944" class="fil0" d="M38.1933 117.481l0 4.2743 -14.5785 0 0 -4.2743 3.7975 0 -1.4041 -4.3549 -7.6965 0 -1.5787 4.3549 3.9647 0 0 4.2743 -13.1307 0 0 -4.2743 3.6664 0 5.776 -16.7675 -3.9428 0 0 -4.2741 19.3506 0 0 4.2741 -3.9793 0 6.2199 16.7675 3.5355 0zm-13.4 -8.0637l-2.4733 -7.629 -2.6699 7.629 5.1432 0zm19.4525 12.338l0 -4.2743 4.1537 0 0 -6.8461 -8.0384 -9.9214 -3.6228 0 0 -4.2741 14.8329 0 0 4.2741 -2.9171 0 4.3503 6.1876 4.4085 -6.1876 -3.0482 0 0 -4.2741 13.0653 0 0 4.2741 -3.6446 0 -7.6748 9.9214 0 6.8461 4.1393 0 0 4.2743 -16.0041 0zm24.2463 0l0 -4.2743 3.9647 0 0 -16.7675 -3.9647 0 0 -4.2741 12.4251 0 10.9339 15.7983 0 -11.5242 -3.8556 0 0 -4.2741 13.298 0 0 4.2741 -4.1539 0 0 21.2219 -6.6125 0 -12.7816 -18.7617 0 14.3073 3.7247 0 0 4.2743 -12.9781 0zm34.3581 0l0 -4.2743 4.4958 0 0 -16.7675 -4.4958 0 0 -4.2741 16.7536 0 0 4.2741 -4.5394 0 0 16.7675 4.5394 0 0 4.2743 -16.7536 0z"/>
   <path id="_222900416" class="fil1 str0" d="M37.9168 54.8057c0.3054,19.2044 5.0919,29.9643 12.5049,35.7741 8.4573,3.2223 19.7317,3.4983 24.7033,-1.3837 0.7742,-0.7604 -0.3826,-2.301 1.1877,-3.7867l33.9713 -32.141c1.5201,-1.4382 -1.5935,-3.5447 -4.7152,-4.4076 -2.6255,-0.7441 -7.3293,-0.7659 -8.6104,1.0251l-5.7402 4.9202c-1.7344,1.6081 -4.2078,4.1379 -7.3803,3.7926 -1.7817,-0.1938 -1.6333,-3.8524 -0.5124,-9.5329l7.7915 -27.2663c2.1898,-7.6633 -6.3032,-10.7537 -8.8153,-4.7153l-11.173 26.856 -1.2301 0 0.5126 -31.9811c0.1118,-6.9771 -10.8619,-6.9535 -10.9679,-0.205l-0.5126 32.5961 -0.6664 -0.1279 -4.6383 -13.6844 -4.4847 -14.7863c-1.7537,-5.7824 -11.2729,-3.9975 -9.7636,1.7683l8.1236 31.033 -0.6666 0.3076 -14.9657 -21.7309c-3.6563,-5.3093 -8.937,0.6456 -7.1752,5.6377l0.6149 1.7425 12.6081 20.2959z"/>
  </g>
 </g>
</svg>
