<?xml version="1.0" encoding="UTF-8"?>
<!DOCTYPE svg PUBLIC "-//W3C//DTD SVG 1.1//EN" "http://www.w3.org/Graphics/SVG/1.1/DTD/svg11.dtd">
<!-- Creator: CorelDRAW -->
<svg xmlns="http://www.w3.org/2000/svg" xml:space="preserve" width="150mm" height="150mm" style="shape-rendering:geometricPrecision; text-rendering:geometricPrecision; image-rendering:optimizeQuality; fill-rule:evenodd; clip-rule:evenodd"
viewBox="0 0 150 150"
 xmlns:xlink="http://www.w3.org/1999/xlink">
 <defs>
  <style type="text/css">
   <![CDATA[
    .fil0 {fill:#EB3237}
    .fil1 {fill:#FFFF01}
   ]]>
  </style>
 </defs>
 <g id="Capa_x0020_1">
  <metadata id="CorelCorpID_0Corel-Layer"/>
  <path class="fil0" d="M-0 74.441l0 0.7672c0.3221,0.2973 0.3086,0.7645 0.8063,1.1981 1.1511,1.0031 4.8568,0.0187 5.7341,0.6281 0.1743,0.121 0.3793,4.7882 0.4125,5.6445 0.0621,1.6006 1.1726,7.4146 1.5392,8.9061 0.2733,1.1119 0.6419,2.096 0.9611,3.073 2.1939,6.7169 1.8077,5.6199 4.7891,11.8683 1.7816,3.734 1.0748,2.1772 2.9978,5.2762 0.5102,0.8222 1.1413,1.7584 1.6569,2.5247 2.9182,4.3375 9.6576,11.6159 14.1474,14.8092l4.8361 3.4242c0.7692,0.5942 7.4646,4.1689 8.092,4.464 4.8379,2.2758 7.5095,2.9108 12.2036,4.2985 2.1843,0.6458 4.5803,0.995 6.9012,1.39 2.9014,0.4938 4.9072,0.5139 7.7496,0.6321 0.1951,0.7477 0.0529,3.1665 0.0675,4.1106 0.0198,1.2904 0.6377,2.3291 1.9156,2.3639 1.3587,0.037 2.0249,-0.9014 2.0546,-2.2365 0.0097,-0.4355 -0.1303,-3.7966 0.1406,-4.1634 0.519,-0.3494 2.9497,-0.1593 3.7795,-0.2519 1.2747,-0.1424 2.4474,-0.2513 3.8016,-0.4067 1.3565,-0.1556 2.1245,-0.4439 3.3993,-0.6678 0.8379,-0.1471 4.5401,-0.8587 5.1568,-1.0883 0.5583,-0.2078 0.9773,-0.301 1.5797,-0.4575 0.9277,-0.241 2.2444,-0.6619 3.1382,-1.0274 2.3346,-0.9548 3.3827,-1.1627 5.9744,-2.419 14.4428,-7.0011 26.4971,-18.263 33.1884,-33.1204 0.8837,-1.9621 1.7794,-3.7604 2.4764,-5.7548 1.3524,-3.87 0.9581,-2.8217 1.8869,-6.5328 1.5771,-6.3007 1.5268,-7.8589 2.107,-14.4942 0.2237,-0.1182 0.4641,-0.1213 0.7833,-0.1239 1.1396,-0.0092 3.9847,0.2128 4.7909,-0.2946 0.61,-0.384 0.5002,-0.7717 0.9324,-1.108l0 -1.0988 -0.2505 -0.2876c-0.1013,-0.1359 -0.1048,-0.1702 -0.201,-0.3099 -1.0405,-1.5109 -3.2861,-0.5121 -6.108,-0.8788l-0.206 -4.0158c-0.333,-7.1311 -3.2368,-16.7332 -6.0997,-22.9464 -0.7644,-1.6588 -3.1548,-6.3414 -4.4322,-7.8972l-0.1117 -0.1462c-0.4378,-0.652 -0.8951,-1.5508 -1.5599,-2.4893 -0.6245,-0.8818 -1.1861,-1.5133 -1.8437,-2.3565 -0.6702,-0.8593 -1.1041,-1.6 -1.772,-2.2887 -1.4312,-1.4758 -2.563,-2.8969 -3.9621,-4.2917 -1.5466,-1.5421 -2.8665,-2.612 -4.3581,-4.0251l-4.6655 -3.5919 -2.5526 -1.6349c-2.6328,-1.9562 -7.8253,-4.5446 -10.8067,-5.6923 -4.675,-1.7997 -7.9121,-2.8656 -12.8246,-3.8336 -1.9554,-0.3853 -5.3879,-0.8614 -7.3429,-0.9557 -0.3342,-0.0162 -3.3866,-0.1575 -3.6455,-0.3813l-0.1283 -3.385c-0.0392,-2.6744 -0.4285,-1.8408 -0.8354,-2.6991 -0.8368,-0.1599 -1.1409,-0.5289 -2.0618,-0.052 -1.8171,0.941 -0.8456,3.1939 -1.1037,6.1535l-5.8913 0.4997c-0.5022,0.0659 -1.1065,0.2193 -1.6951,0.2697 -2.6406,0.2262 -4.5871,0.8036 -6.9943,1.2775 -1.1356,0.2235 -2.1533,0.6814 -3.2477,0.9714 -4.9307,1.3061 -7.4243,2.6177 -11.8557,4.7475 -5.5904,2.6868 -12.41,7.6705 -16.778,12.1958 -6.2199,6.4439 -9.7299,11.3512 -13.7353,19.5319 -0.8938,1.8254 -1.8159,3.8606 -2.4821,5.8993 -0.254,0.7775 -1.8741,5.8919 -1.9356,6.3271 -0.19,1.3452 -1.3165,6.3542 -1.3633,6.8818 -0.115,1.2963 -0.2191,2.5414 -0.3402,3.8622 -0.3327,3.6309 0.3339,3.8834 -1.2145,3.8803 -0.3405,-0.0007 -0.6799,-0.011 -1.0226,-0.0109 -1.1107,0.0002 -2.9866,-0.1877 -3.6842,0.3754 -0.4335,0.35 -0.4991,0.9187 -0.8882,1.1641z"/>
  <path class="fil1" d="M73.1497 16.8871c-3.31,-0.2087 -6.1818,0.6074 -9.4316,1.0163 -1.0248,0.129 -4.578,1.175 -5.445,1.4905 -1.3295,0.4838 -2.5637,0.7846 -3.8851,1.3337 -0.4285,0.1781 -0.7788,0.3703 -1.2411,0.528 -1.454,0.4961 -2.8191,1.2009 -4.1838,1.9251 -0.9638,0.5114 -1.941,0.9573 -2.8685,1.5776 -1.3458,0.9 -2.7886,1.6807 -4.042,2.6717l-2.112 1.5798c-4.67,3.5063 -8.4946,7.8989 -11.9572,12.5537 -1.4525,1.9527 -2.7825,4.2853 -3.9379,6.4762 -1.2546,2.3789 -2.3388,4.7838 -3.165,7.4099l-0.4731 1.1335c-1.0106,3.1831 -1.9367,6.5664 -2.4108,9.8817l-0.4974 6.3432c1.6332,0.349 4.4048,-0.6447 4.5402,1.9918 0.035,0.6817 -0.2381,0.9287 -0.4661,1.2376 -0.7947,1.0766 -1.4944,0.7554 -4.0699,0.8856 -0.3795,2.5624 0.6286,6.6244 0.9551,9.3176 0.1034,0.8528 0.1845,0.6243 0.3353,1.3698 0.175,0.8654 0.4018,2.1003 0.6416,2.8317 0.1391,0.4241 0.2942,0.9445 0.4239,1.3317 0.901,2.6886 1.7485,5.0256 2.891,7.6599 0.7132,1.6447 1.6098,3.1158 2.3916,4.5838 0.6525,1.2249 2.0392,3.2854 2.6397,4.109l0.104 0.1527c2.924,4.346 6.7343,8.4246 10.8365,11.7547 0.3477,0.2822 0.7249,0.5156 1.0227,0.7619 0.3313,0.274 0.6449,0.4875 1.0042,0.7661l1.9881 1.4423c0.0412,0.0302 0.1557,0.1165 0.2173,0.1652 0.0208,0.0164 0.0496,0.0406 0.0703,0.0572 1.1601,0.9272 3.9219,2.4695 5.1495,3.0957 3.2102,1.6376 6.3428,3.0316 9.7993,4.1816 0.4719,0.1569 0.906,0.2779 1.389,0.4099 0.4651,0.1273 0.8202,0.2777 1.3072,0.417 0.9621,0.2753 1.8531,0.4711 2.8209,0.6179 0.905,0.1373 1.6782,0.3938 2.9894,0.5801l6.412 0.564c-0.0098,-0.9722 -0.2947,-3.4967 0.2318,-4.2248 1.0155,-1.4044 3.6547,-1.2037 3.7265,0.7998l-0.0011 3.5251c2.2128,0.1841 4.3713,-0.2569 6.5302,-0.403 1.0252,-0.0693 2.0303,-0.2964 3.1567,-0.4491 0.6749,-0.0915 0.7584,-0.2559 1.3843,-0.3566 0.5487,-0.0882 1.0351,-0.1716 1.4943,-0.2977l4.2116 -1.1359c0.2811,-0.0871 0.4065,-0.1839 0.5926,-0.254 1.0617,-0.3995 2.2651,-0.6621 3.2986,-1.1573 0.725,-0.3474 1.8283,-0.8175 2.4648,-1.0942 1.3844,-0.602 3.4449,-1.4663 4.6214,-2.3779l1.1389 -0.6219c1.8003,-1.1119 3.6288,-2.4072 5.3353,-3.5709 0.7648,-0.5215 3.0439,-2.4793 3.883,-3.2233 0.5661,-0.5019 1.2493,-1.2343 1.7881,-1.7738l2.552 -2.6464c2.0025,-2.2065 3.6611,-4.6277 5.3762,-7.0761 1.2199,-1.7415 2.3272,-3.7281 3.2466,-5.6191l1.7192 -3.6253c0.3531,-0.7855 0.6436,-1.7024 0.9762,-2.5837 0.3391,-0.8986 0.5881,-1.7942 0.9179,-2.6267 0.3394,-0.8567 0.4788,-1.9196 0.7476,-2.8366 1.1708,-3.9953 1.4133,-8.1485 1.7862,-12.3142 -1.6946,-0.4157 -6.0078,0.9951 -6.0759,-1.9663 -0.0299,-1.3006 0.8627,-2.0302 2.0588,-2.0433l4.0122 -0.0575c0.1436,-1.9991 -0.2975,-5.8077 -0.7191,-7.9399 -0.2792,-1.412 -0.5788,-3.0941 -0.9362,-4.419 -0.25,-0.9265 -0.5112,-1.759 -0.7897,-2.7512 -0.7411,-2.6403 -2.035,-5.1233 -2.9875,-7.6742 -0.556,-1.4892 -2.1941,-4.2864 -3.0586,-5.6903 -0.1758,-0.2854 -0.1654,-0.1884 -0.3582,-0.5361 -0.519,-0.9358 -0.9769,-1.7603 -1.7213,-2.7151 -0.2949,-0.3783 -0.4608,-0.6144 -0.7396,-1.054 -0.0682,-0.1075 -0.0722,-0.1169 -0.1512,-0.2414 -0.0147,-0.0232 -0.0334,-0.0559 -0.0482,-0.0785 -0.9631,-1.4766 -4.4383,-5.1053 -5.6016,-6.3115 -2.313,-2.3982 -4.9924,-4.4506 -7.7256,-6.3728 -1.3383,-0.9412 -2.8642,-1.9485 -4.309,-2.8052 -3.2145,-1.9062 -8.6929,-4.5435 -12.4144,-5.3613 -0.9229,-0.2028 -1.8975,-0.5918 -2.7927,-0.7641l-12.5284 -1.5295c-0.2695,1.0081 0.3275,3.1827 -0.2802,4.1804 -0.128,0.2101 -0.2493,0.3764 -0.3767,0.5059 -1.0115,1.0285 -3.1599,0.5978 -3.3498,-0.9628 -0.1386,-1.1391 0.0851,-2.5553 -0.0283,-3.6744z"/>
  <path class="fil0" d="M78.4967 69.7152c-0.1243,-0.8874 -0.0259,-18.7791 -0.0261,-20.1902 -0.0003,-2.4637 0.2557,-4.9419 -0.3422,-7.1293 -0.4205,-1.5381 -2.6717,-3.1453 -4.76,-2.6775 -4.8132,1.0782 -3.5246,6.734 -3.5246,11.5849l0 20.1948c0,2.4676 -0.2941,8.061 0.2248,9.9474 0.8184,2.9758 7.0068,4.3998 8.6782,3.1344 1.0791,-0.8169 1.2245,-1.1231 1.828,-1.9825 0.2222,-0.3165 0.3292,-0.4281 0.5173,-0.749 1.4231,-2.4282 3.5292,-5.0426 5.2669,-7.3169l4.3597 -5.7928c1.4869,-2.1363 3.7319,-4.2013 3.1636,-6.6811 -0.6229,-2.7184 -2.7638,-4.6676 -6.1679,-3.3087l-0.5717 0.3187c-1.4287,1.1092 -2.6433,3.9889 -3.9075,5.2314 -0.4837,0.4754 -0.7934,0.9469 -1.1737,1.3688 -0.6325,0.7017 -2.9569,3.9501 -3.5648,4.0476z"/>
  <path class="fil0" d="M74.1948 26.1233c-4.3698,1.0176 -2.855,8.2966 2.0958,6.8306 4.0126,-1.1883 2.8457,-7.9813 -2.0958,-6.8306z"/>
  <path class="fil0" d="M104.272 104.629c-1.0629,0.5523 -2.2207,1.5367 -2.2499,2.9311 -0.0312,1.4909 0.2344,2.672 1.7931,3.5193 0.5791,0.3148 0.5259,0.3827 1.3429,0.4155 0.5341,0.0215 1.2102,0.0322 1.6587,-0.1293 1.496,-0.5389 2.82,-2.3891 2.1403,-4.5468 -0.6809,-2.1612 -3.3629,-2.8768 -4.6851,-2.1898z"/>
  <path class="fil0" d="M104.005 37.3995c-4.7888,0.971 -3.2252,7.9366 1.5384,6.9479 0.2699,-0.056 0.9585,-0.3966 1.1572,-0.5285 0.3444,-0.2285 0.5946,-0.4515 0.8767,-0.9014 0.5949,-0.9481 0.8028,-1.3735 0.5744,-2.8977 -0.2469,-1.6487 -2.1138,-3.0324 -4.1467,-2.6203z"/>
  <path class="fil0" d="M45.5969 43.6356c-4.6242,-0.004 -4.7666,7.0243 -0.0019,7.0919 2.6452,0.0375 4.3457,-2.5628 3.307,-4.9954 -0.0246,-0.0577 -0.0752,-0.1825 -0.1174,-0.2612 -0.5704,-1.0632 -1.8252,-1.8341 -3.1877,-1.8353z"/>
  <path class="fil0" d="M43.4502 103.495c-0.9934,0.4192 -1.4177,0.4132 -1.965,1.5126 -0.6998,1.4057 -0.8738,2.5082 0.1583,3.9697 2.169,3.0713 7.3792,0.9682 6.3071,-3.1373 -0.4919,-1.8838 -2.8581,-3.0379 -4.5004,-2.345z"/>
  <path class="fil0" d="M117.834 72.3398c-0.9319,0.3336 -1.4406,0.6897 -1.9153,1.5199 -1.0718,1.8743 -0.2869,4.2296 1.2544,4.9435 3.5942,1.6645 6.0733,-1.6422 5.2282,-4.0872 -0.7683,-2.2227 -2.8654,-2.9855 -4.5673,-2.3762z"/>
  <path class="fil0" d="M31.3524 72.361c-1.8795,0.9223 -2.806,2.5474 -2.1153,4.5717 0.8066,2.3643 4.4887,3.557 6.4034,0.6151 0.8204,-1.2604 0.5757,-3.033 -0.227,-4.1315 -0.2287,-0.313 0.0534,0.0188 -0.1763,-0.1964 -0.1393,-0.1305 0.0453,0.0398 -0.1387,-0.1099 -1.0608,-0.8627 -2.6432,-1.2902 -3.7461,-0.749z"/>
  <path class="fil0" d="M75.5647 117.053c-0.8699,0.2346 -1.0352,0.0723 -2.1128,1.3489 -0.1556,0.1843 -0.0472,0.0253 -0.1635,0.2347 -0.4083,0.7351 -0.5973,1.7003 -0.4079,2.5787 0.3688,1.71 2.0705,3.1041 4.1481,2.7141 3.598,-0.6753 3.1218,-4.7148 2.3376,-5.5477 -0.3237,-0.3439 -0.5712,-0.5702 -0.9188,-0.8572 -0.6991,-0.5775 -1.7922,-0.7656 -2.8827,-0.4715z"/>
 </g>
</svg>
