<?xml version="1.0" encoding="UTF-8"?>
<!DOCTYPE svg PUBLIC "-//W3C//DTD SVG 1.1//EN" "http://www.w3.org/Graphics/SVG/1.1/DTD/svg11.dtd">
<!-- Creator: CorelDRAW -->
<svg xmlns="http://www.w3.org/2000/svg" xml:space="preserve" width="120mm" height="120mm" style="shape-rendering:geometricPrecision; text-rendering:geometricPrecision; image-rendering:optimizeQuality; fill-rule:evenodd; clip-rule:evenodd"
viewBox="0 0 120 120"
 xmlns:xlink="http://www.w3.org/1999/xlink">
 <defs>
  <style type="text/css">
   <![CDATA[
    .fil0 {fill:#2A2524}
    .fil5 {fill:#383836}
    .fil2 {fill:#7B2C44}
    .fil4 {fill:#D9DBDA}
    .fil1 {fill:#FEC901}
    .fil3 {fill:white}
    .fil6 {fill:#7B2C44;fill-rule:nonzero}
   ]]>
  </style>
 </defs>
 <g id="Capa_x0020_1">
  <metadata id="CorelCorpID_0Corel-Layer"/>
  <g id="_257578168">
   <path id="_257577064" class="fil0" d="M37.5466 84.876c0.6322,0.0273 -0.1151,0.0025 0.4945,0.4209 0.5242,0.3598 0.1984,-0.2087 0.5141,0.5856l0.0498 -0.2494c1.7535,0.9496 1.2494,0.8656 3.8576,2.1375 0.3378,0.1647 0.583,0.3441 0.9901,0.5152 1.1885,0.4994 0.5075,0.1298 1.5186,0.6896 0.4032,0.2232 1.2516,0.4921 1.7341,0.6903 1.1008,0.4522 2.3125,0.7795 3.3566,1.1629l2.358 0.661 3.9228 0.7151c3.3971,0.5179 7.8181,0.7826 11.3336,0.2628 0.8781,-0.1298 1.7756,-0.1587 2.7035,-0.3389l2.54 -0.5769c2.0171,-0.4681 2.6811,-0.8928 4.3832,-1.682l-0.1247 0.6673c0.0317,-0.0121 0.0743,-0.0718 0.0884,-0.0506 0.0176,0.0262 0.1655,-0.0913 0.2704,-0.3357 0.3148,-0.7343 0.3871,-0.308 0.5665,-0.5704 0.0034,-0.005 0.012,-0.028 0.0159,-0.0337l0.2819 -0.1492c0.1462,-0.5425 0.6021,-0.5399 0.8373,-0.8999 0.4742,-0.7259 1.7175,-10.2942 1.9281,-10.6546l2.8104 -2.2107c0.5232,-0.8932 0.2862,-1.1553 0.3932,-2.1163 0.0385,-0.3451 0.5246,-1.1181 0.6529,-1.7765 0.3969,-2.0357 -0.3439,-0.4147 1.9802,-2.9348 2.1598,-2.3421 5.5028,-5.8233 5.3037,-9.578 -0.1112,-2.097 -1.279,-3.5648 -2.4129,-5.0208 -0.3627,-0.4657 -0.8102,-0.712 -1.1401,-1.2119l0.0053 -2.4732c-0.1609,-0.4588 -1.6853,-0.379 -2.4622,-0.9663 -1.2952,-0.9794 -2.6386,-2.0793 -3.7314,-3.1095 -0.5499,-0.5184 -1.2184,-1.0539 -1.8462,-1.5718 -2.3893,-1.9711 -3.6521,-2.706 -7.0265,-3.2171l0.3063 -0.34c0.137,-0.1384 0.1716,-0.1663 0.3096,-0.2916 3.4599,-3.1427 4.8529,-8.0373 3.7616,-12.7141 -0.9634,-4.1286 -3.4956,-7.1352 -6.7837,-9.4087 -1.7437,-1.2055 -1.2723,-0.4116 -1.581,-2.7188 0.7475,-0.3474 1.6086,-0.6103 1.9572,-1.4454 0.2786,-0.6673 0.046,-0.8227 -0.1106,-1.3271 -0.1641,-0.5287 0.1909,-1.0829 -0.4609,-1.1458l-0.5561 1.5477c-0.3906,0.3291 -0.8828,0.5219 -1.4564,0.5685l-0.3373 -0.801 1.6445 -1.4212c0.3173,-0.5923 0.1993,-1.9224 -0.5437,-1.8495l-0.0989 1.8118c-0.3039,0.3334 -0.7794,0.6813 -1.2672,0.9128l-0.4286 -0.561c0.4425,-0.4349 0.8576,-0.7038 1.0973,-1.3503 0.1077,-0.2903 0.1308,-0.7051 0.1053,-1.0769 -0.0379,-0.552 -0.0329,-0.6297 -0.4722,-0.6117l-0.1867 1.6335c-0.1104,0.2184 -0.6078,0.7459 -0.9197,0.8574l-0.5996 -0.7831c0.6525,-0.7609 1.2334,-1.1403 1.2171,-2.2038 -0.0079,-0.5158 -0.0116,-0.668 -0.4163,-0.7281 -0.1605,0.8928 -0.1683,2.2741 -1.302,2.5235l-0.1864 -0.2091c0.6724,-0.8201 1.7392,-1.8792 0.985,-2.9905l2.219 -2.2569c0.685,-0.6968 -0.6339,-1.7376 -1.2539,-2.3326 -0.25,-0.2399 -0.3443,-0.4468 -0.6313,-0.2016 0.4099,0.7779 0.503,0.7243 0.9763,1.3691 0.8418,1.3238 -0.1955,2.2915 -1.3715,2.8426 -0.5908,0.1705 -1.9397,0.1216 -1.6315,0.6483 0.3469,0.3149 1.0201,0.0564 1.412,0.0174 -0.1575,0.9882 -0.0921,2.0542 -1.2465,2.4251l-0.886 -0.7164 -0.2903 0.2898 0.8479 0.8762c4.1243,3.5097 3.5076,7.2018 3.9273,7.9403l6.0406 5.4243c1.5795,2.3075 2.6979,5.4366 2.3102,9.0097 -0.4849,4.4689 -3.1906,8.2184 -7.2505,9.9157 -0.8184,0.3421 -1.2462,0.4351 -1.9409,0.8794 -3.3011,2.1112 -5.2052,4.4267 -10.188,3.9002 -1.986,-0.2098 -2.7721,-0.701 -4.133,-1.5952 -3.299,-2.1679 -1.851,-1.7377 -5.5034,-3.0416 -0.7438,-0.2655 -1.3322,-0.5221 -1.9624,-0.8585 -7.2159,-3.8521 -3.9899,-10.5802 -4.3412,-11.7356 -0.5174,0.5459 -2.1602,2.4488 -3.0981,1.1705 -0.2578,-0.3514 -0.4028,-2.3097 -1.2299,-3.5939 -0.7907,-1.2277 -1.539,-1.5246 -2.5617,-2.3699 -1.8455,-1.5253 -2.0431,-5.2831 1.3171,-5.8367 3.4652,-0.5709 3.3907,2.8224 5.3281,4.3241 1.2139,0.9408 3.3125,-0.4879 2.8992,-1.0934 -2.1909,0.9814 -2.0354,1.4822 -3.5509,-0.4785 1.1423,-0.0907 1.8695,0.078 2.7675,-0.6352 0.2713,-0.2155 0.4433,-0.2597 0.3179,-0.6137l-0.1453 -0.0522c-0.0177,-0.002 -0.0516,-0.0105 -0.071,-0.0103 -0.0188,0.0003 -0.0506,0.0018 -0.0697,0.005 -0.2682,0.0451 -0.4768,0.3388 -0.7228,0.4841 -0.3521,0.2079 -0.7453,0.3498 -1.2275,0.3391 -1.0266,-0.0228 -1.429,-0.4424 -1.8181,-1.2511l2.9626 0.5256c0.4955,-0.0168 1.9453,-0.8265 1.9454,-1.4228l-3.2308 0.9026c-0.9895,0.0753 -2.4553,-1.4849 -2.8752,-1.539l-0.6226 0.1412c-0.252,-0.0585 -0.4066,-0.1451 -0.7237,-0.1907 -3.835,-0.5519 -5.7937,3.6396 -3.0393,6.5587 0.5823,0.617 1.3647,0.9883 1.9381,1.5811 1.7686,1.8283 1.4682,4.093 2.1695,4.7714 0.8743,0.8456 1.7154,0.2437 2.5376,-0.1058l0.2338 5.386c0.3112,1.729 1.9134,3.0173 2.2295,3.5952l-6.7256 2.1314c-2.4059,0.5897 -4.4969,1.4307 -5.9984,2.742 -1.4461,1.2629 -2.7014,2.8802 -3.3504,5.495 -1.1519,4.6411 0.4777,9.9829 3.2277,13.5462 1.1128,1.4419 3.459,2.9769 3.5318,3.1034 0.8962,1.5563 2.1971,6.6234 2.4053,8.4605 0.4484,3.9579 -0.3067,4.5322 -0.8921,7.6695l1.2158 0.8034z"/>
   <path id="_257576776" class="fil1" d="M71.0634 43.2378c0.2703,1.8383 0.7025,2.6247 0.9047,5.4649l0.2396 5.9988c-0.578,0.2034 -1.3882,-0.4155 -2.9541,-0.6774 -1.9202,-0.3211 -2.986,-0.218 -4.4414,1.0388 -0.462,0.399 -0.3307,0.6899 -0.2423,1.4391l0.4542 3.4697c1.1987,0.7681 2.3172,0.5241 3.0927,1.8364 0.8777,1.4852 0.4978,2.5558 0.5621,4.2586 0.0052,0.1363 1.2561,3.0796 0.9667,4.1285l-1.8529 3.2062c0.0995,4.3782 -2.2231,6.1363 -6.1081,6.8918 -1.9455,0.3783 -3.8832,0.4951 -5.8608,0.1536 -2.0703,-0.3574 -3.099,-1.1184 -4.4381,-2.113 -1.3097,-0.9728 -2.1051,-1.8842 -2.342,-4.1223 -0.0768,-0.7255 -0.6761,-0.9591 -1.6826,-1.5074 -1.3951,-0.76 -2.9613,-1.4953 -4.476,-2.0646 -1.3083,-0.4918 -2.1648,-0.4748 -3.5452,-1.2791 -0.3603,-0.21 -0.6867,-0.5443 -0.9338,-0.6849 -0.3499,-0.1991 -0.9497,-0.066 -1.4823,-0.1387l-1.3478 -0.358c0.1407,0.7148 1.2549,3.2844 1.5461,4.7041l0.7888 5.4567c0.111,1.5544 -0.5301,3.996 -0.8913,5.5319 0.8281,0.7734 4.1915,2.6239 5.3203,3.2005 1.8813,0.9611 3.8387,1.8261 5.9954,2.559 0.8501,0.2165 14.452,2.5231 14.9114,2.5231 4.7351,0 9.454,-0.7635 13.2165,-2.509 0.6444,-0.299 2.105,-1.143 2.3202,-1.5925 0.3038,-0.6345 1.5182,-8.7202 1.7293,-10.0692 -1.2035,-0.0721 -1.8615,-0.2715 -2.3699,-1.6683 -0.1617,-0.4444 -0.0849,-0.8397 -0.259,-1.1552 -0.2671,-0.4839 -0.6684,-0.6956 -0.9465,-1.7466 -0.0909,-0.3435 -0.0782,-0.8721 -0.2204,-1.2055 -0.1167,-0.2733 -0.3361,-0.5344 -0.485,-0.9164 -0.6237,-1.6 0.182,-3.2145 1.3005,-3.8139 0.7261,-0.3891 1.4616,-0.2506 2.2335,-0.4822 0.6972,-0.2091 1.4046,-0.5763 1.8702,-0.9438 0.639,-0.5043 0.3739,-1.1692 0.3021,-2.1974 -0.2765,-3.958 -1.0717,-7.3157 -3.2076,-10.6551 -0.7836,-1.225 -1.4516,-1.9884 -2.3775,-3.1218l0.2441 -0.3163c1.1579,0.4734 3.1736,4.1864 3.8483,5.3407 0.5874,-0.0524 6.0281,-4.1038 6.6158,-4.5215 -0.4595,-0.2333 -0.5221,-0.1247 -0.9991,-0.4867 -2.9774,-2.2595 -7.3209,-6.7784 -10.1721,-7.4392 -2.245,-0.5202 -2.832,-0.8737 -4.8267,0.5836z"/>
   <path id="_257576968" class="fil2" d="M38.5552 85.8825c0.7193,1.512 0.7171,2.3461 2.1304,4.3623 0.9662,1.3782 1.8899,2.5055 3.1914,3.5324 0.6227,0.4913 1.2331,1.0271 1.6596,1.6706 1.694,2.5554 2.3031,4.0379 2.6642,7.4332 0.3053,2.8718 0.0087,2.7351 -0.0482,4.6234 -0.0186,0.6191 -0.0406,0.9921 0.1611,1.4812 1.0858,2.6327 7.4842,3.1938 8.6405,-0.7298 0.5581,-1.8935 0.075,-3.8896 0.9082,-5.8242 1.7178,-3.9884 4.5248,-2.9281 5.3972,-0.7548 0.5001,1.2458 0.5711,7.7891 1.6115,8.4262 1.0343,0.6334 4.2752,0.9978 5.7194,0.4066 1.7529,-0.7176 1.5005,-3.2426 1.4422,-5.112 -0.1386,-4.4368 -0.0588,-7.0521 2.5673,-10.7643 0.7074,-1.0001 1.7786,-2.5243 2.2296,-3.6116 0.0191,-0.0461 0.0984,-0.2396 0.1246,-0.2811 0.1883,-0.2974 0.0895,-0.1525 0.2242,-0.2036l0.1247 -0.6673c-1.7021,0.7892 -2.3661,1.2139 -4.3832,1.682l-2.54 0.5769c-0.9279,0.1802 -1.8254,0.2091 -2.7035,0.3389 -3.5155,0.5198 -7.9365,0.2551 -11.3336,-0.2628l-3.9228 -0.7151 -2.358 -0.661c-1.0441,-0.3834 -2.2558,-0.7107 -3.3566,-1.1629 -0.4825,-0.1982 -1.3309,-0.4671 -1.7341,-0.6903 -1.0111,-0.5598 -0.3301,-0.1902 -1.5186,-0.6896 -0.4071,-0.1711 -0.6523,-0.3505 -0.9901,-0.5152 -2.6082,-1.2719 -2.1041,-1.1879 -3.8576,-2.1375l-0.0498 0.2494z"/>
   <path id="_257577136" class="fil3" d="M66.9896 73.7049c-0.3011,-0.091 -2.4557,1.0282 -3.4616,1.1775l-4.3145 0.2686c-0.1058,-1.3792 1.8654,-0.2395 5.671,-1.514 1.711,-0.573 3.7834,-1.2789 4.087,-3.066 0.175,-1.03 -0.0957,-2.2854 -0.4588,-3.0258 -0.6027,-1.2293 -1.0291,-0.6228 -2.3863,-0.3155 -0.8071,0.1828 -5.2411,1.3284 -6.0882,0.7168 -0.2775,-0.391 -0.0264,-0.9749 0.2502,-1.1213 0.4197,-0.2222 1.0331,0.032 1.5463,0.0696 0.9161,0.0673 2.1958,-0.0927 3.1012,-0.2557 2.3997,-0.432 3.3956,-0.6998 2.9667,-3.528 -0.2961,-1.9525 -1.8545,-2.2144 -4.006,-2.6179 -3.0978,-0.581 -3.1059,-0.4549 -6.2225,-0.495 0.0801,-0.1801 -0.1116,-0.2274 0.7084,-0.5116 1.9165,-0.6643 1.6357,0.0187 2.0208,-1.5964 0.2879,-1.2072 0.565,-3.1254 0.4691,-4.3983 -0.219,-2.9086 -4.3384,-3.7245 -5.6517,-1.5853 -0.6306,1.0271 -0.4547,2.9066 -0.4796,4.2053 -0.014,0.7316 -0.0637,1.5096 -0.3199,2.1348 -0.4662,1.138 -2.4502,2.0211 -4.0354,8.0281 -0.8438,3.1975 -1.8558,9.2022 1.2244,11.5312 0.9115,0.6891 1.788,1.2659 3.1526,1.6783 2.4854,0.7511 5.9284,0.6969 8.3637,-0.162 0.5914,-0.2085 1.1743,-0.4751 1.6371,-0.7751 0.4938,-0.3202 0.9127,-0.6898 1.2888,-1.1186 0.5975,-0.6814 1.5052,-2.4358 0.9372,-3.7237z"/>
   <path id="_257577664" class="fil0" d="M45.0796 119.174l1.9423 0c0.5493,-0.2405 1.5317,-0.2071 2.211,-0.3242 3.5798,-0.6174 7.8249,-3.1291 8.1564,-6.9252 0.1059,-1.2134 -0.1787,-1.146 -0.4739,-1.9032l2.6383 -8.9225c1.2829,-1.3407 2.7605,-0.1124 3.1398,1.3272 0.0004,0.0015 0.4007,4.052 0.5821,5.1247 0.7005,4.1428 0.3849,1.8359 0.0196,3.4133 -0.4092,1.7671 1.0346,4.0298 2.0713,4.9836 3.6156,3.3261 7.2765,2.7913 8.2722,3.2263l1.9448 0c0.8966,-0.4048 2.7184,-0.0588 4.6617,-1.5087 1.0809,-0.8063 1.6135,-2.7121 0.733,-4.3531 -1.3483,-2.513 -4.3831,-2.7608 -5.789,-3.3675 -1.3794,-0.5953 -1.2964,-0.2179 -2.6687,-0.3446l1.1426 -11.7938c0.3901,-1.5351 3.5261,-4.95 4.7384,-8.4093l-0.2819 0.1492c-0.0039,0.0057 -0.0125,0.0287 -0.0159,0.0337 -0.1794,0.2624 -0.2517,-0.1639 -0.5665,0.5704 -0.1049,0.2444 -0.2528,0.3619 -0.2704,0.3357 -0.0141,-0.0212 -0.0567,0.0385 -0.0884,0.0506 -0.1347,0.0511 -0.0359,-0.0938 -0.2242,0.2036 -0.0262,0.0415 -0.1055,0.235 -0.1246,0.2811 -0.451,1.0873 -1.5222,2.6115 -2.2296,3.6116 -2.6261,3.7122 -2.7059,6.3275 -2.5673,10.7643 0.0583,1.8694 0.3107,4.3944 -1.4422,5.112 -1.4442,0.5912 -4.6851,0.2268 -5.7194,-0.4066 -1.0404,-0.6371 -1.1114,-7.1804 -1.6115,-8.4262 -0.8724,-2.1733 -3.6794,-3.2336 -5.3972,0.7548 -0.8332,1.9346 -0.3501,3.9307 -0.9082,5.8242 -1.1563,3.9236 -7.5547,3.3625 -8.6405,0.7298 -0.2017,-0.4891 -0.1797,-0.8621 -0.1611,-1.4812 0.0569,-1.8883 0.3535,-1.7516 0.0482,-4.6234 -0.3611,-3.3953 -0.9702,-4.8778 -2.6642,-7.4332 -0.4265,-0.6435 -1.0369,-1.1793 -1.6596,-1.6706 -1.3015,-1.0269 -2.2252,-2.1542 -3.1914,-3.5324 -1.4133,-2.0162 -1.4111,-2.8503 -2.1304,-4.3623 -0.3157,-0.7943 0.0101,-0.2258 -0.5141,-0.5856 -0.6096,-0.4184 0.1377,-0.3936 -0.4945,-0.4209 -0.0037,0.6657 0.7951,2.6794 1.0855,3.2884 3.0507,6.3961 5.4949,5.421 7.6299,10.0722 1.0294,2.2427 1.3425,5.0695 1.2564,7.561 -0.0823,2.3793 -0.4683,1.8923 0.2267,3.8323 -2.4801,0.0088 -1.0824,-0.0298 -2.5694,0.4216 -2.009,0.6098 -4.5189,1.2261 -5.5724,3.3828 -0.8524,1.7453 -0.2197,3.4132 0.9234,4.3215 1.6158,1.2839 3.7418,1.057 4.5529,1.4186z"/>
   <path id="_257577832" class="fil1" d="M28.2616 54.402c-0.004,2.1973 0.6902,5.5267 1.5648,6.9737l3.652 4.7932 -0.198 -3.0165c0.006,-2.7939 1.2203,-5.2853 2.5602,-6.7878 2.0255,-1.6249 4.2492,-2.5364 6.6869,-2.6775 1.093,-0.0007 2.1459,0.0967 3.096,0.3628l2.4392 0.9634c0.0407,-0.7999 -0.2479,-1.8566 -0.7394,-2.1908 -2.5636,-1.7432 -1.2744,-0.2249 -3.8495,-4.8424l0.543 -0.0934c0.4707,2.0405 1.1602,2.9526 2.5844,3.8518 1.5925,1.0056 2.0137,0.9681 2.1447,4.3725 0.0309,0.8049 0.0319,2.3108 0.59,2.6461 0.5043,0.3029 1.8207,0.5677 2.5523,0.6154 0.6865,0.0448 0.8484,0.1023 1.1835,-0.3563 0.8178,-1.1193 0.7608,-2.0305 1.055,-3.744l-0.8258 1.5385c-0.7495,0.0494 -1.1954,-0.672 -1.6227,-1.099 -1.953,-1.9517 -5.2883,-5.5725 -5.658,-8.4161l-0.2988 -5.1641 -1.0817 -0.7745c-1.9133,0.8757 -3.1298,1.3059 -5.457,1.8624 -2.1528,0.5147 -3.779,0.8753 -5.5557,1.782 -3.0415,1.5521 -5.3568,4.7245 -5.3654,9.4006z"/>
   <path id="_257577400" class="fil3" d="M48.9515 72.7938c0.1275,-2.6286 0.1872,-4.5363 0.8494,-6.9915 0.6406,-2.3755 1.2251,-3.6361 2.2934,-5.6787 -2.1961,-0.1146 -2.6526,-0.3941 -4.22,-1.3119 -1.2177,-0.7129 -2.5444,-1.3391 -4.2402,-1.3287 -3.5129,0.0217 -5.3578,1.9706 -6.0747,5.0277 -1.4735,6.2835 4.007,6.6483 7.7076,8.3605 0.9627,0.4454 3.3982,1.8067 3.6845,1.9226z"/>
   <path id="_257577640" class="fil3" d="M47.0219 119.174l26.6168 0c-0.9957,-0.435 -4.6566,0.0998 -8.2722,-3.2263 -1.0367,-0.9538 -2.4805,-3.2165 -2.0713,-4.9836 0.3653,-1.5774 0.6809,0.7295 -0.0196,-3.4133 -0.1814,-1.0727 -0.5817,-5.1232 -0.5821,-5.1247 -0.3793,-1.4396 -1.8569,-2.6679 -3.1398,-1.3272l-2.6383 8.9225c0.2952,0.7572 0.5798,0.6898 0.4739,1.9032 -0.3315,3.7961 -4.5766,6.3078 -8.1564,6.9252 -0.6793,0.1171 -1.6617,0.0837 -2.211,0.3242z"/>
   <path id="_257577808" class="fil3" d="M81.5914 57.9223l0.3628 1.6579c0.5604,-0.0696 1.4629,-1.3665 2.5311,-1.4504l3.5573 0.2954c-0.3779,0.1554 -3.5072,-0.6127 -4.923,1.2649 -1.2381,1.6419 -0.8643,2.8297 -0.8047,5.4211 1.4563,0.0667 2.6233,1.5033 2.2788,3.3043 -0.1569,0.8208 -0.322,0.4638 0.2773,1.2553 0.4812,-0.2878 1.3094,-1.125 1.6662,-1.533 1.5751,-1.8012 2.9034,-3.5019 3.971,-5.8798 0.7751,-1.7265 1.1556,-3.3672 0.2499,-5.1986l-2.9703 -3.5728c-0.502,0.3009 -0.997,0.7262 -1.5214,1.1046 -0.8191,0.5911 -4.5087,3.1194 -4.675,3.3311z"/>
   <path id="_257577232" class="fil2" d="M56.5915 50.0989c-1.7678,-0.9515 -3.745,-2.3884 -5.0018,-3.9489 -0.4155,-0.5159 -0.5043,-0.8359 -0.9195,-1.3002 -1.171,-1.3095 -2.4445,-1.5269 -4.4213,-2.3719 -0.4195,0.7785 -0.2158,2.3138 -0.1022,3.1003 0.0823,0.5695 0.1718,0.9358 0.3242,1.4089 0.2036,0.6319 0.8639,1.7354 1.2175,2.3277l0.7142 1.0088c1.0422,1.38 3.1358,3.0225 4.5561,4.1214 1.9296,1.493 0.8181,-1.1512 1.6587,-2.8486 0.5613,-1.1335 0.8874,-0.9283 1.9741,-1.4975z"/>
   <path id="_257578408" class="fil2" d="M63.61 55.1777c-0.384,-0.2087 -0.6515,-0.9059 -0.9672,-1.2784l-1.1995 -1.1751c-0.0333,1.0543 -0.0262,1.5935 0.507,1.9727 1.4794,1.0521 1.3665,1.5783 1.6712,3.3519 0.2225,1.2947 0.1083,0.9844 0.8323,1.7943 -0.025,-0.8192 -0.2318,-2.0483 -0.3425,-2.9014 -0.2167,-1.6704 -0.3083,-1.6649 0.6729,-2.5158 0.4806,-0.4167 1.4763,-0.9295 2.2928,-1.0461l3.2097 0.3177c0.16,-0.3542 0.3118,-0.7854 0.3904,-1.1863 0.4059,-2.0698 0.9952,-4.596 0.5159,-6.7355l-0.7047 -2.3083c-1.0087,0.0738 -2.2524,1.1092 -2.9845,1.6118 -1.5748,1.0809 -0.8813,0.2855 -1.5767,3.0434 -0.3381,1.3409 -0.6645,2.3976 -1.19,3.4476 -0.2589,0.5171 -0.537,0.9459 -0.7317,1.5857 -0.1944,0.6387 -0.2176,1.5034 -0.3954,2.0218z"/>
   <path id="_257578192" class="fil0" d="M65.5875 33.4565c-0.1913,1.3435 -0.9423,2.6799 -1.6753,3.3059 -2.2587,1.9291 -6.6265,-1.1763 -7.7272,-3.3579l-0.779 -1.7711c0.2032,3.3824 2.041,7.2462 3.8097,8.6957 1.214,0.995 3.2749,1.3504 4.7497,0.3102l1.7668 -4.4419 0.0094 -2.8162c1.0755,-0.7507 0.7986,-0.5517 1.7293,-1.5031 1.4511,1.1299 1.7757,0.7707 3.4863,0.3422 -0.3095,-0.3152 -0.528,-0.0319 -1.4798,-0.0998 -0.4895,-0.0348 -0.9123,-0.1468 -1.2773,-0.3749 -0.8276,-0.5175 -0.6854,-1.3521 -0.7336,-2.3701 -0.4341,-0.0108 -0.4468,0.0501 -0.4986,0.5799 -0.1163,1.1877 0.5995,1.3682 -0.7868,2.4394 -1.0267,0.7934 -2.088,1.0634 -3.7135,0.8587 -2.5114,-0.3161 -4.5547,-1.4467 -6.772,-2.4873l0.9274 -1.8064c-0.4686,-0.0009 -0.2833,-0.0793 -0.519,0.2976 -1.6966,2.712 -4.2771,2.6338 -5.616,0.4874 -0.4724,-0.7573 -0.4597,-0.9378 -1.2108,-2.0727 -0.261,0.48 0.3521,1.7065 0.6233,2.157 0.4399,0.7305 0.8414,1.1864 1.5301,1.5905 0.7364,0.4322 1.5438,0.5886 2.4575,0.3558 1.3929,-0.3548 0.6993,-0.8698 2.098,-0.1849 2.6229,1.2844 6.2865,3.0502 9.6014,1.866z"/>
   <path id="_257578384" class="fil4" d="M64.0855 112.248c0.4694,3.1712 4.3415,5.2612 7.3693,5.8334 3.1846,0.6018 10.0646,0.5141 9.1525,-3.6084 -0.701,-3.1682 -3.4337,-1.7999 -4.6508,-0.2908 -0.2665,0.3305 -0.4833,0.7107 -0.7271,0.9818 -2.0363,2.2645 -5.2839,1.28 -7.4858,0.1137 -1.7212,-0.9116 -2.6108,-1.7844 -3.6581,-3.0297z"/>
   <path id="_257578456" class="fil4" d="M45.9472 118.376c2.6127,0.0001 4.6996,-0.4569 6.7528,-1.5051l3.8395 -4.5167c-0.7129,0.5868 -1.0878,1.2961 -2.4357,2.2025 -1.8301,1.2307 -4.7002,2.4938 -6.9898,1.7379 -1.3387,-0.442 -1.6621,-1.1763 -2.4247,-2.1014 -0.5868,-0.7118 -1.4686,-1.5151 -2.8701,-1.6221 -1.3012,-0.0993 -1.8893,1.7797 -1.8532,2.6849 0.0972,2.4319 3.4643,3.1199 5.9812,3.12z"/>
   <path id="_257577976" class="fil3" d="M63.2271 53.9131c0.1808,-0.2428 0.3589,-1.1631 0.6753,-1.8686 0.283,-0.6314 0.5734,-0.9992 0.8317,-1.6816l1.0594 -4.0417c-0.9227,0.4511 -1.5247,0.9535 -2.6461,1.3382l-3.5215 0.5476c-3.8325,-0.0088 -5.4083,-1.608 -8.5441,-3.6824 0.4765,1.0149 1.6082,2.1752 2.4436,2.9018 0.8995,0.7825 2.0844,1.5156 3.2496,2.1807 1.5263,0.8713 2.7357,0.3223 3.7955,1.5383 1.1134,1.2775 0.179,0.2873 1.3879,1.3281 0.484,0.4166 0.9309,0.874 1.2687,1.4396z"/>
   <path id="_257579176" class="fil1" d="M37.6848 67.98c-0.3218,-0.655 -0.7165,-0.9607 -0.9805,-2.1404 -0.2141,-0.9566 -0.187,-2.0448 -0.0156,-2.9991 0.6423,-3.5776 2.9299,-5.8761 6.6414,-6.0268 2.3629,-0.096 3.0923,0.4455 5.0288,1.3721 -0.014,-1.4409 -0.3033,-1.4675 -1.7708,-2.1244 -3.0312,-1.357 -6.9696,-1.0204 -9.1141,1.1341 -1.2827,1.2887 -2.0872,3.2159 -2.3687,5.498 -0.1515,1.2286 0.0385,2.4276 0.3995,3.4436 0.5621,1.5821 0.9776,1.9077 2.18,1.8429z"/>
   <path id="_257579008" class="fil3" d="M82.6583 65.783c-1.939,2.0811 -3.5897,1.5502 -4.7468,2.2804 -1.5638,0.9868 -1.6895,3.6437 0.4928,4.1722 1.7744,0.4297 4.171,-1.266 4.8363,-2.0658 1.6616,-1.9975 1.141,-4.0115 -0.5823,-4.3868z"/>
   <path id="_257579440" class="fil3" d="M64.0036 111.531c1.2788,0.9553 0.7781,1.245 2.9834,2.6944 1.1487,0.7549 2.4508,1.4422 4.1113,1.7075 2.0934,0.3344 3.2072,-0.3646 4.0556,-1.544 1.1666,-1.6216 1.7681,-1.8323 3.4447,-2.355 -0.1045,-0.0706 -1.4247,0.0372 -1.8908,0.2884 -1.212,0.6532 -1.6919,2.568 -3.6042,2.5263 -0.5609,-0.0123 -0.5274,-0.0774 -0.9168,-0.4311l0.4708 -1.3381 -2.9483 0.5168 1.1782 -2.3548 -6.6265 -0.5766c-0.1802,0.2619 -0.252,0.4623 -0.2574,0.8662z"/>
   <path id="_257578792" class="fil3" d="M49.8332 111.302l1.107 2.3269 -2.9458 -0.548 0.4691 1.4817c-1.3531,0.8343 -2.6848,-0.2712 -3.2461,-0.9967 -0.5203,-0.6727 -1.1114,-1.4387 -2.0946,-1.4692l-1.0714 -0.0628c1.3094,0.5976 1.7288,0.0886 3.5323,2.4794 2.5512,3.3821 8.1535,0.2526 10.036,-1.9581 0.2019,-0.237 0.4422,-0.5993 0.703,-0.811 0.3571,-0.29 0.4844,-0.0384 0.0829,-1.1197 -0.3255,0.0874 -0.8644,0.4788 -1.3462,0.6685 -1.6267,0.6402 -4.0725,0.7463 -5.2262,0.009z"/>
   <path id="_257579080" class="fil3" d="M77.6002 72.6582c-0.1928,1.2756 0.3346,2.2277 1.3386,2.5504 1.1164,0.359 2.3638,-0.1398 3.1825,-0.6288 0.9362,-0.5592 1.5325,-1.0111 2.0881,-1.9288l-0.143 -2.8812c-0.8526,0.8921 -0.9856,1.4288 -2.5582,2.2952 -2.4219,1.3344 -2.9111,0.6143 -3.908,0.5932z"/>
   <path id="_257580208" class="fil0" d="M59.7264 17.7249c-0.0209,-0.0157 -0.0494,-0.0704 -0.0581,-0.0529 -0.0086,0.0173 -0.0452,-0.0412 -0.0569,-0.0533l-0.2927 -0.3295c-0.4062,-0.4608 -0.8337,-0.8237 -1.5266,-0.9931 -3.3356,-0.8158 -3.4875,4.0904 -3.0849,6.6128 0.9122,5.7153 4.8254,3.7409 5.2814,2.9867l0.7599 -2.4672c-0.9121,0.056 0.114,0.7132 -1.0726,1.9568 -1.8492,1.9378 -4.0629,0.8095 -4.5248,-3.111 -0.213,-1.8079 -0.1511,-4.0741 0.954,-5.0863 0.6445,-0.5904 1.6093,-0.4706 2.3087,0.0026 0.7854,0.5315 0.7467,0.9873 1.3126,1.8553 0.3658,-0.2254 0.2888,-0.4229 0.4585,-0.9035 0.9559,-2.7076 4.5024,-3.105 4.9571,0.2619 0.137,1.0138 0.3003,2.4861 -0.2292,3.4662 -0.332,0.6144 -1.0106,-0.0562 -3.3243,2.1077 -0.42,0.3928 -0.3468,0.2822 -0.3286,0.8319 0.3349,0.2339 0.3659,-0.0873 0.8681,-0.5936 0.9222,-0.9298 2.2103,-1.6304 3.6324,-1.6621 3.2272,0.4067 2.7357,5.9983 -1.026,7.3879 -0.7798,0.2986 -2.1329,0.7034 -2.9885,0.3117l-1.1142 -2.5119c-0.5075,0.0832 -0.4378,0.5852 -0.3901,1.1072 0.1258,1.3764 1.106,2.2104 2.6012,2.123 1.8121,-0.106 3.3487,-1.0304 4.3404,-1.9018 0.3627,-0.7057 0.6203,-1.392 0.9332,-2.0181 1.1769,-2.3557 0.2155,-4.0694 -2.6378,-5.0644 0.0431,-0.467 0.2835,-0.918 0.3227,-1.4763 0.0982,-1.3961 -0.1518,-3.661 -1.2841,-4.4962 -0.8084,-0.5964 -1.9724,-0.7139 -2.922,-0.2859 -1.1211,0.5054 -1.3035,1.219 -1.8688,1.9954z"/>
   <path id="_257579776" class="fil5" d="M56.4929 19.8696c-1.777,0.9197 -0.5893,5.8137 1.4185,5.3099 1.0978,-0.2755 1.0128,-2.38 0.7852,-3.4383 -0.1895,-0.8814 -1.1223,-2.4312 -2.2037,-1.8716z"/>
   <path id="_257579680" class="fil0" d="M48.5859 5.5442c-1.5839,0.41 -2.0837,0.3305 -3.3171,1.2048 -0.5044,0.3574 -1.3645,1.1801 -1.7644,1.662 -0.7999,0.9642 -0.4235,0.6535 -2.8778,1.1098 0.3075,0.2556 0.9112,0.0582 1.2994,0.0544 1.6694,-0.0164 1.7219,0.7922 2.4308,2.0601 0.3375,0.6036 0.7629,1.2734 1.6913,1.3455l1.8794 -0.985c-0.1048,-0.0864 0.1015,-0.1473 -0.2889,-0.0513 -0.2984,0.0734 -1.5129,1.118 -2.5469,-0.1344 -0.2733,-0.3309 -0.4662,-0.8348 -0.7021,-1.3105l-0.8782 -1.1566 5.1327 -3.1877c0.1676,0.3404 0.7268,1.5519 1.1612,1.6381 0.4909,0.0974 -0.449,0.0511 0.1384,-0.0035 0.8178,-0.0761 -0.7611,-1.1644 -0.7584,-1.7848l0.5691 -2.1671c-0.7455,-0.0477 -1.0826,1.1334 -1.1685,1.7062z"/>
   <path id="_257579728" class="fil0" d="M52.5854 19.2493c1.3128,-2.4271 1.8901,-2.4004 4.4066,-3.8634l0.0063 -1.6004c-1.015,-0.1192 -1.5531,0.0825 -2.2453,0.5462 -1.084,0.7261 -2.1549,1.8951 -2.749,3.0885 -0.3624,0.728 -0.393,1.7889 0.5814,1.8291z"/>
   <path id="_257580184" class="fil5" d="M61.7644 18.3914c-0.8551,0.3626 -0.9704,1.7559 -0.8688,2.6207 0.0921,0.7847 0.6196,2.1898 1.5379,1.7086 1.201,-0.6294 1.0045,-5.039 -0.6691,-4.3293z"/>
   <path id="_257580016" class="fil3" d="M78.3955 75.5056c0.0307,1.7901 1.6387,2.5093 3.305,1.669 0.5828,-0.2939 1.28,-0.8376 1.5965,-1.2144l0.6734 -2.1692c-0.3406,0.205 -0.7072,0.579 -1.0827,0.8563 -1.5694,1.1591 -2.7234,1.5592 -4.4922,0.8583z"/>
   <path id="_257580592" class="fil1" d="M81.0188 56.2717l0.2824 0.9819c0.4934,-0.1587 3.2791,-2.1338 3.9426,-2.5781 0.6495,-0.4351 1.2634,-0.8546 1.9151,-1.305 1.2097,-0.8361 0.8459,-0.328 1.3896,-1.8635 -0.4254,0.0077 -3.246,1.9728 -3.7566,2.3087 -0.7241,0.4764 -3.2138,2.1569 -3.7731,2.456z"/>
   <path id="_257580952" class="fil1" d="M60.8185 59.031l2.5675 0.544c-0.0955,-0.8441 -0.4084,-3.3172 -1.0394,-3.8703l-0.8111 -0.6526 -0.717 3.9789z"/>
   <path id="_257580616" class="fil0" d="M63.7006 1.0973c-0.3807,0.2325 -0.2194,0.422 0.0504,0.4916 0.3658,0.0943 1.616,-0.17 2.5483,0.6774 0.718,0.6525 1.0255,2.4208 0.0099,2.9987 -1.0768,0.6127 -2.1432,0.5372 -2.7737,1.557 -0.2915,0.4714 -0.388,1.0452 -0.0478,1.5682 0.7793,1.1977 2.1769,0.8622 1.3267,0.2987 -0.0343,-0.0228 -1.8772,-0.7059 -0.5723,-1.8718 0.7502,-0.6703 2.2398,-0.7369 2.8306,-1.4933 0.7235,-0.9263 0.4241,-2.5159 -0.2531,-3.2757 -0.3517,-0.3946 -0.6455,-0.6339 -1.2821,-0.8263 -0.3858,-0.1166 -1.4884,-0.3373 -1.8369,-0.1245z"/>
   <path id="_257580640" class="fil4" d="M70.2304 113.396c1.2341,0.3518 2.0898,-0.668 2.5651,-1.2661l2.4291 -1.485c-0.11,-0.1158 -0.0878,-0.1158 -0.2894,-0.2401 -1.0486,-0.6466 -2.0717,-0.1818 -2.9086,0.4509 -0.3433,0.2595 -1.7835,1.8747 -1.7962,2.5403z"/>
   <path id="_257580904" class="fil3" d="M59.3403 39.9146c1.1227,1.6333 4.8668,1.3815 5.4662,-0.6361 -1.7591,-0.1161 -4.1178,-0.1319 -5.4662,0.6361z"/>
   <path id="_257580472" class="fil4" d="M72.7387 114.282c2.153,0.4255 2.333,-2.0953 4.2221,-2.6093 0.4719,-0.1285 0.2726,0.0379 0.8011,-0.2487 -0.9024,-0.2929 -1.6343,-0.9915 -3.2135,0.2445 -0.3236,0.2533 -1.9248,1.9662 -1.8097,2.6135z"/>
   <path id="_257580280" class="fil0" d="M65.5804 15.2771c0.2259,-0.5089 0.0789,-0.5115 -0.5707,-1.16 -0.2816,-0.2811 -0.7108,-0.5624 -1.1154,-0.7976 -3.5108,-2.0406 -3.4402,0.3588 -2.5377,0.6455 0.8649,0.2748 1.3125,0.0529 2.9959,0.8092 0.347,0.1559 0.9775,0.5898 1.2279,0.5029z"/>
   <path id="_257581528" class="fil4" d="M45.4185 110.659c2.1942,0.508 1.6567,0.8497 2.4492,1.4669l2.5562 1.263c-0.1232,-1.1044 -3.0423,-4.6949 -5.0054,-2.7299z"/>
   <path id="_257581768" class="fil4" d="M42.8915 111.418c0.2,0.1713 0.4537,0.1757 0.7271,0.2367 0.2642,0.0589 0.4953,0.1776 0.6942,0.3066 0.5104,0.3312 0.7096,0.548 1.0395,0.9681l2.5603 1.3499c0.1334,-0.5691 -1.6455,-3.0607 -3.214,-3.2816 -0.8266,-0.1164 -1.207,0.218 -1.8071,0.4203z"/>
   <path id="_257582080" class="fil6" d="M72.921 57.1999c-0.0598,0 -0.1263,-0.012 -0.1981,-0.0346 -0.3348,-0.1089 -0.7441,-0.1634 -1.2264,-0.1634 -0.1582,0 -0.3402,0.0106 -0.5462,0.0306 -0.2059,0.0212 -0.4359,0.0531 -0.687,0.0943 0.0053,0.4983 0.0053,0.9262 0,1.2836 0.3946,-0.0957 0.7216,-0.1435 0.9806,-0.1435 0.4825,0 0.9037,0.0226 1.2611,0.0665 0.3349,0.0411 0.5023,0.2179 0.5023,0.5288 0,0.1515 -0.0531,0.2777 -0.1594,0.3788 -0.1063,0.1009 -0.2366,0.1514 -0.3894,0.1514 -0.1355,0 -0.3375,-0.0107 -0.6073,-0.0318 -0.2697,-0.02 -0.4717,-0.0306 -0.6073,-0.0306 -0.1886,0 -0.5155,0.0598 -0.9806,0.178l0 2.441c0,0.1516 -0.0584,0.2777 -0.1767,0.3788 -0.1183,0.1009 -0.2539,0.1515 -0.4066,0.1515 -0.1515,0 -0.2724,-0.0506 -0.3668,-0.1502 -0.093,-0.0996 -0.1395,-0.2259 -0.1395,-0.3787l0 -4.4622c0,-0.1009 0.0013,-0.2551 0.0053,-0.4597 0.004,-0.2047 0.0066,-0.3575 0.0066,-0.4598 0,-0.1529 0.0505,-0.2804 0.1529,-0.3814 0.1036,-0.1009 0.2325,-0.1514 0.3879,-0.1514 0.0984,0 0.1848,0.0199 0.2605,0.0584 0.3003,-0.0518 0.5768,-0.0903 0.8292,-0.1143 0.2512,-0.0252 0.4784,-0.0372 0.6804,-0.0372 0.2962,0 0.6683,0.0612 1.1175,0.1821 0.5621,0.1528 0.8438,0.3309 0.8438,0.5342 0,0.1475 -0.0532,0.275 -0.1582,0.3814 -0.1049,0.1062 -0.2312,0.1594 -0.3786,0.1594zm5.7763 0.1993c-0.202,0 -0.5182,-0.0146 -0.9461,-0.0425 -0.4133,-0.0292 -0.7282,-0.0426 -0.9461,-0.0399 0.0106,0.2963 0.0452,0.8226 0.105,1.58 0.0544,0.6697 0.081,1.1985 0.081,1.5879 0,0.089 0.0093,0.2193 0.0279,0.3934 0.0173,0.174 0.0266,0.3055 0.0266,0.3933 0,0.194 -0.0413,0.3693 -0.1236,0.5248 -0.1063,0.2007 -0.2578,0.3004 -0.4558,0.3004 -0.1421,0 -0.2684,-0.0452 -0.3773,-0.1369 -0.1223,-0.101 -0.1834,-0.2273 -0.1834,-0.3814 0,-0.0359 0.0066,-0.0903 0.0199,-0.1648 0.0119,-0.0744 0.0186,-0.1301 0.0186,-0.1687 0,-0.1196 -0.008,-0.3003 -0.0252,-0.5422 -0.0173,-0.2405 -0.0253,-0.4225 -0.0253,-0.5448 0,-0.3468 -0.0266,-0.8185 -0.081,-1.4125 -0.0625,-0.6817 -0.0983,-1.1534 -0.109,-1.4125l-0.202 0c-0.5794,0 -1.0391,-0.0412 -1.3793,-0.1236 -0.2884,-0.0704 -0.4319,-0.2405 -0.4319,-0.5103 0,-0.1329 0.0465,-0.2524 0.1396,-0.3588 0.1102,-0.1276 0.2524,-0.1846 0.4292,-0.1713 0.0903,0.0052 0.2963,0.0265 0.6192,0.0663 0.2564,0.028 0.4637,0.0426 0.6219,0.0426 0.1594,0 0.396,-0.0026 0.7109,-0.008 0.3149,-0.0053 0.5527,-0.008 0.7109,-0.008 0.1967,0 0.493,0.0134 0.8877,0.0399 0.3946,0.0279 0.6897,0.0412 0.8876,0.0412 0.1555,0 0.2857,0.0504 0.3907,0.1515 0.105,0.1023 0.1581,0.2272 0.1581,0.3747 0,0.1489 -0.0531,0.2737 -0.1581,0.3761 -0.105,0.1023 -0.2352,0.1541 -0.3907,0.1541z"/>
   <path id="_257582320" class="fil0" d="M39.8415 11.3059c0.3076,0.2556 0.9113,0.0582 1.2995,0.0544 1.6694,-0.0164 1.7219,0.7922 2.4308,2.0601 0.3375,0.6036 0.7629,1.2734 1.6913,1.3456l1.8794 -0.9851c-0.1048,-0.0863 0.1015,-0.1473 -0.289,-0.0513 -0.2984,0.0735 -1.5128,1.118 -2.5468,-0.1343 -0.2733,-0.331 -0.4663,-0.8349 -0.7021,-1.3105l-0.7888 -1.0389c-0.7981,-1.0512 -1.7729,-0.1634 -2.9743,0.06z"/>
   <path id="_257582296" class="fil0" d="M38.6822 13.211c0.3075,0.2557 0.9112,0.0583 1.2994,0.0545 1.6694,-0.0164 1.7219,0.7922 2.4308,2.0601 0.3375,0.6036 0.7629,1.2734 1.6913,1.3455l1.8794 -0.985c-0.1048,-0.0864 0.1015,-0.1474 -0.2889,-0.0513 -0.2984,0.0734 -1.5129,1.118 -2.5469,-0.1343 -0.2733,-0.331 -0.4663,-0.8349 -0.7021,-1.3105l-0.7888 -1.039c-0.7981,-1.0512 -1.7729,-0.1634 -2.9742,0.06z"/>
   <path id="_553693888" class="fil0" d="M37.8136 15.0399c0.3076,0.2557 0.9113,0.0583 1.2995,0.0545 1.6694,-0.0164 1.7219,0.7922 2.4308,2.06 0.3375,0.6037 0.7629,1.2735 1.6913,1.3456l1.8794 -0.985c-0.1048,-0.0864 0.1015,-0.1474 -0.289,-0.0514 -0.2984,0.0735 -1.5128,1.1181 -2.5468,-0.1343 -0.2733,-0.331 -0.4663,-0.8348 -0.7021,-1.3105l-0.7888 -1.0389c-0.7981,-1.0512 -1.7729,-0.1634 -2.9743,0.06z"/>
   <path id="_553694296" class="fil0" d="M37.3818 16.9392c0.3076,0.2557 0.9113,0.0583 1.2995,0.0545 1.6694,-0.0164 1.7219,0.7922 2.4308,2.0601 0.3375,0.6036 0.7629,1.2734 1.6913,1.3455l1.8794 -0.985c-0.1048,-0.0864 0.1015,-0.1474 -0.289,-0.0513 -0.2984,0.0734 -1.5128,1.118 -2.5468,-0.1343 -0.2733,-0.331 -0.4663,-0.8349 -0.7021,-1.3105l-0.7888 -1.039c-0.7981,-1.0512 -1.7729,-0.1634 -2.9743,0.06z"/>
   <path id="_553693600" class="fil0" d="M59.4858 0.9146c-0.3807,0.2325 -0.2193,0.4221 0.0504,0.4916 0.3659,0.0943 1.616,-0.17 2.5483,0.6774 0.718,0.6526 1.0256,2.4208 0.0099,2.9987 -1.0767,0.6127 -2.1431,0.5372 -2.7737,1.5571 -0.2914,0.4714 -0.388,1.0451 -0.0477,1.5681 0.7792,1.1978 2.1769,0.8622 1.3267,0.2987 -0.0344,-0.0228 -1.8773,-0.7059 -0.5724,-1.8718 0.7502,-0.6703 2.2399,-0.7368 2.8306,-1.4933 0.7235,-0.9263 0.4242,-2.5158 -0.2531,-3.2757 -0.3517,-0.3946 -0.6454,-0.6339 -1.2821,-0.8263 -0.3858,-0.1166 -1.4884,-0.3373 -1.8369,-0.1245z"/>
   <path id="_257582344" class="fil0" d="M54.9109 0.9146c-0.3807,0.2325 -0.2194,0.4221 0.0504,0.4916 0.3658,0.0943 1.616,-0.17 2.5483,0.6774 0.718,0.6526 1.0255,2.4208 0.0099,2.9987 -1.0768,0.6127 -2.1432,0.5372 -2.7737,1.5571 -0.2915,0.4714 -0.388,1.0451 -0.0478,1.5681 0.7793,1.1978 2.1769,0.8622 1.3267,0.2987 -0.0344,-0.0228 -1.8772,-0.7059 -0.5723,-1.8718 0.7502,-0.6703 2.2398,-0.7368 2.8306,-1.4933 0.7235,-0.9263 0.4241,-2.5158 -0.2531,-3.2757 -0.3517,-0.3946 -0.6455,-0.6339 -1.2821,-0.8263 -0.3858,-0.1166 -1.4884,-0.3373 -1.8369,-0.1245z"/>
   <path id="_553694080" class="fil0" d="M50.8923 1.1619c-0.3807,0.2325 -0.2193,0.4221 0.0504,0.4916 0.3659,0.0943 1.616,-0.17 2.5483,0.6774 0.718,0.6526 1.0256,2.4208 0.0099,2.9987 -1.0767,0.6127 -2.1431,0.5372 -2.7737,1.5571 -0.2914,0.4714 -0.388,1.0451 -0.0477,1.5681 0.7792,1.1978 2.1769,0.8622 1.3267,0.2987 -0.0344,-0.0228 -1.8773,-0.7059 -0.5724,-1.8718 0.7502,-0.6703 2.2399,-0.7368 2.8306,-1.4933 0.7235,-0.9263 0.4242,-2.5158 -0.2531,-3.2757 -0.3517,-0.3946 -0.6454,-0.6339 -1.2821,-0.8263 -0.3858,-0.1166 -1.4884,-0.3373 -1.8369,-0.1245z"/>
  </g>
 </g>
</svg>
