<?xml version="1.0" encoding="UTF-8"?>
<!DOCTYPE svg PUBLIC "-//W3C//DTD SVG 1.1//EN" "http://www.w3.org/Graphics/SVG/1.1/DTD/svg11.dtd">
<!-- Creator: CorelDRAW -->
<svg xmlns="http://www.w3.org/2000/svg" xml:space="preserve" width="150mm" height="150mm" style="shape-rendering:geometricPrecision; text-rendering:geometricPrecision; image-rendering:optimizeQuality; fill-rule:evenodd; clip-rule:evenodd"
viewBox="0 0 150 150"
 xmlns:xlink="http://www.w3.org/1999/xlink">
 <defs>
  <style type="text/css">
   <![CDATA[
    .fil1 {fill:black}
    .fil0 {fill:#2DB0DE}
    .fil3 {fill:#D7769A}
    .fil2 {fill:#EC6293}
    .fil4 {fill:#FEFEFE}
   ]]>
  </style>
 </defs>
 <g id="Capa_x0020_1">
  <metadata id="CorelCorpID_0Corel-Layer"/>
  <path class="fil0" d="M91.5901 28.2572l-3.1398 9.5124c3.8152,0.1757 8.0011,0.021 11.8568,0.021l23.8062 0c4.4194,0 7.3282,-0.5473 10.2357,1.805 3.1197,2.524 2.7957,5.7024 2.7957,9.1419l0 53.8067c0,2.311 0.0999,3.482 -0.7952,5.315 -1.2936,2.6493 -3.807,4.3723 -7.499,4.3596 -19.9267,-0.0687 -39.945,-0.0014 -59.88,-0.0009 -15.949,0.0004 -31.9075,-0.055 -47.8553,0.0012 -3.7471,0.0132 -6.2209,-1.7481 -7.5058,-4.3518 -1.3147,-2.6643 -0.8499,-7.6975 -0.8499,-11.1532l0 -47.8551c0,-4.3648 0.021,-6.8293 2.7098,-9.1671 2.7147,-2.3604 5.7813,-1.9013 10.14,-1.9013l47.818 -0.0239 3.2601 -9.4849c-1.6776,-0.2021 -55.7419,-0.0437 -57.2725,-0.0432 -2.3887,0.0007 -4.7775,0.0014 -7.1662,0.0003 -2.5539,-0.0012 -3.945,0.1973 -5.6995,1.4371 -3.9033,2.7584 -3.3049,6.5923 -3.3049,11.0452l0 71.7827c-0.0002,2.704 0.097,3.9748 1.3594,5.822 0.8731,1.2777 2.2355,2.5114 4.095,3.0705 2.3588,0.7094 10.8471,0.3588 13.9956,0.3588l114.78 0.0009c2.6939,0.0041 3.9936,-0.1357 5.8212,-1.3655 1.3528,-0.9104 2.3875,-2.2264 3.0489,-4.1206 0.6867,-1.9669 0.3731,-11.1013 0.3731,-13.9687l0 -64.6167c0.0006,-2.6403 -0.1199,-4.0882 -1.2862,-5.8901 -2.6782,-4.1373 -6.6689,-3.5543 -10.7506,-3.5559l-28.6645 0.0003c-4.6858,-0.0007 -9.7914,-0.1927 -14.4257,0.0183z"/>
  <path class="fil1" d="M22.5533 84.0894l10.3902 -0.0004 0.0267 -20.1024 6.1212 10.3082 6.5479 -0.0284c1.1562,-2.3389 4.4402,-7.7292 5.9479,-10.3031l0.005 20.1255 5.3538 -0.0255c0.4084,-0.6397 1.2666,-3.364 1.5821,-4.2324l3.147 -8.6333c0.4993,-1.2994 0.2502,-4.1185 0.2502,-5.6987l-0.0199 -23.6685 -10.1541 0.0219c-0.7399,1.1959 -6.2127,12.1589 -7.0976,13.9043l-2.4044 4.5896c-0.3751,-0.3991 -8.4704,-16.5543 -9.4638,-18.5142l-10.2319 -0.003 -0.0003 42.2604z"/>
  <polygon class="fil1" points="61.0121,84.0778 71.8968,84.0795 73.9732,77.8038 86.938,77.8016 88.8904,84.0882 99.7681,84.0833 84.4078,41.8325 76.3685,41.8323 "/>
  <path class="fil1" d="M102.77 72.1693c-0.4655,0.1651 -1.9796,1.7206 -2.4573,2.1653 0.2135,0.9736 2.0337,5.7377 2.622,7.365 0.5253,1.4532 0.1245,1.4103 1.661,1.7438 3.8253,0.8304 8.2305,1.1566 12.1642,0.3245 3.7697,-0.7975 6.1649,-2.0481 8.688,-4.6661 3.4831,-3.6143 3.8033,-11.249 1.1306,-15.4657 -0.8907,-1.4054 -1.9616,-2.3181 -3.4816,-3.1924 -5.9536,-3.4244 -13.903,-1.0145 -14.9172,-5.245 -0.4546,-1.8967 1.1825,-3.4937 2.4946,-3.9877 1.7114,-0.6442 4.1547,-0.4362 6.0177,-0.1539 2.4121,0.3656 2.682,0.8078 4.628,2.1618 0.9948,-1.0769 2.1862,-2.127 3.2638,-3.1595l3.2112 -3.3028c-0.8023,-0.4936 -1.6295,-1.6109 -3.8203,-2.7405 -6.8343,-3.5238 -19.6274,-3.4851 -24.2328,4.5198 -1.739,3.0226 -2.2322,7.3759 -0.9884,11.1072 2.9909,8.9726 14.4989,6.9253 17.8405,8.7605 2.295,1.2605 2.7984,6.4176 -3.4074,6.6698 -3.7862,0.1539 -8.5641,-0.6971 -10.4166,-2.9041z"/>
  <path class="fil2" d="M116.969 87.3352c-6.0599,1.1914 -8.0572,6.9717 -7.3232,12.6746 0.7418,5.7625 4.6605,9.7176 11.309,8.5849 5.5294,-0.9421 7.9275,-6.3691 7.261,-12.6006 -0.5913,-5.5273 -4.7303,-9.9402 -11.2468,-8.6589z"/>
  <path class="fil2" d="M95.5357 92.0925c-0.2442,0.2326 -1.6377,4.4101 -1.8943,5.1254 -0.2833,0.7894 -1.8425,4.8254 -1.8011,5.2823 0.0257,0.7706 -1.3511,4.0374 -1.712,4.965l-0.3927 -3.0032c-1.16,-0.0686 -0.4942,-0.1291 -2.1818,-0.1266l-6.8527 -0.0482c-0.3147,-0.6357 -0.2541,-14.4923 -0.2724,-16.3817l-4.0682 0.0572 -0.0221 20.209 18.0362 -0.0117 0.4107 -1.0476c0.1769,-0.2743 0.0481,-0.1418 0.2721,-0.2888l1.0099 -2.9697 6.7204 0.0169 1.6491 4.5103 4.9663 -0.0131 -5.8509 -15.7562c-0.5073,-0.2445 -0.1698,-0.0098 -0.4457,-0.6302 -0.4199,-0.9445 -1.4426,-4.0704 -1.7104,-4.1543l-4.0511 -0.0682 -1.223 3.3383c-0.1328,0.5044 -0.0969,0.706 -0.5863,0.9951z"/>
  <polygon class="fil2" points="39.5878,108.325 44.4883,108.379 46.0017,103.85 52.6949,103.896 54.3953,108.382 59.3456,108.361 51.653,87.5384 47.0732,87.5419 "/>
  <path class="fil2" d="M39.3804 101.437l-4.4187 -1.3344c-0.3884,1.0939 -0.9147,5.0624 -4.6569,4.1841 -2.3424,-0.5497 -3.0817,-3.0751 -3.1427,-5.8723 -0.1959,-8.9786 5.6374,-6.7954 6.0306,-6.3655 0.758,0.6842 1.3579,1.5868 1.6468,2.9226l4.5277 -1.165c-0.2036,-2.3588 -1.8612,-4.4501 -3.2935,-5.3762 -4.5862,-2.9653 -13.7885,-1.3298 -13.6543,9.8625 0.1324,11.0366 9.8458,12.0966 13.872,8.8609 1.531,-1.2304 3.0742,-3.8798 3.089,-5.7167z"/>
  <polygon class="fil3" points="64.9408,104.114 64.972,87.7109 60.3431,87.7394 60.3431,108.398 74.2402,108.394 74.2002,104.105 "/>
  <path class="fil2" d="M64.9408 104.114l-0.2207 -16.1853 -4.1768 0.0398 0.0465 20.1513 13.3605 0.0095 0.0007 -3.7637 -8.5108 0.0085c-0.7636,-0.1362 -0.2704,0.0776 -0.4994,-0.2601z"/>
  <path class="fil4" d="M118.283 91.573c-3.2414,0.5862 -4.1273,3.3817 -3.9936,7.0894 0.116,3.2179 1.7839,6.1418 5.33,5.7203 4.761,-0.5661 4.7209,-8.8856 2.6266,-11.3867 -0.7761,-0.9269 -2.1699,-1.7473 -3.963,-1.423z"/>
  <polygon class="fil1" points="77.2463,37.6556 84.482,37.6845 87.5786,28.2554 80.5117,28.308 "/>
  <path class="fil4" d="M76.9488 69.1389l7.267 -0.0071 -3.5666 -11.1672c-0.6541,1.8042 -1.2603,3.7018 -1.8801,5.5574 -0.3766,1.1277 -1.7358,4.6495 -1.8203,5.6169z"/>
  <path class="fil3" d="M95.0574 106.824c-0.224,0.147 -0.0952,0.0145 -0.2721,0.2888l-0.4107 1.0476 -18.0362 0.0117 0.0221 -20.209 4.0682 -0.0572c0.0183,1.8894 -0.0423,15.746 0.2724,16.3817l6.8527 0.0482c1.6876,-0.0025 1.0218,0.058 2.1818,0.1266l0.3927 3.0032c0.3609,-0.9276 1.7377,-4.1944 1.712,-4.965 -0.3477,0.3956 -1.6576,4.1183 -1.862,4.6407l-0.0749 -2.9233c-0.5306,-0.2532 -8.6281,-0.0992 -9.178,-0.0974l-0.0069 -16.4057 -4.6691 0.0573 0.0128 20.5575c1.0468,0.2419 16.0091,0.0584 18.4149,0.0543l0.0994 -0.1554 0.4809 -1.4046z"/>
  <path class="fil4" d="M97.5498 99.5967l3.6298 0.011c-0.0066,-0.5339 -1.5535,-4.9066 -1.8152,-5.4287 -0.3159,0.6566 -1.7315,4.8078 -1.8146,5.4177z"/>
  <path class="fil4" d="M47.4542 99.5922l3.6773 0.0232c-0.0155,-0.5677 -0.6084,-2.0502 -0.831,-2.6968 -0.2695,-0.7832 -0.5482,-1.983 -1.0492,-2.6646l-1.7971 5.3382z"/>
  <path class="fil3" d="M95.5357 92.0925c0.4894,-0.2891 0.4535,-0.4907 0.5863,-0.9951l1.223 -3.3383 4.0511 0.0682c0.2678,0.0839 1.2905,3.2098 1.7104,4.1543 0.2759,0.6204 -0.0616,0.3857 0.4457,0.6302l-1.8493 -5.0825 -4.5865 0.0066 -1.5807 4.5566z"/>
 </g>
</svg>
