<?xml version="1.0" encoding="UTF-8"?>
<!DOCTYPE svg PUBLIC "-//W3C//DTD SVG 1.1//EN" "http://www.w3.org/Graphics/SVG/1.1/DTD/svg11.dtd">
<!-- Creator: CorelDRAW -->
<svg xmlns="http://www.w3.org/2000/svg" xml:space="preserve" width="150mm" height="150mm" style="shape-rendering:geometricPrecision; text-rendering:geometricPrecision; image-rendering:optimizeQuality; fill-rule:evenodd; clip-rule:evenodd"
viewBox="0 0 150 150"
 xmlns:xlink="http://www.w3.org/1999/xlink">
 <defs>
  <style type="text/css">
   <![CDATA[
    .fil0 {fill:#353333}
    .fil1 {fill:#77C04D}
    .fil2 {fill:#FCFCFC}
   ]]>
  </style>
 </defs>
 <g id="Capa_x0020_1">
  <metadata id="CorelCorpID_0Corel-Layer"/>
  <path class="fil0" d="M0.1031 77.7917c1.1434,20.3881 8.399,36.3653 21.8584,50.1193 10.5328,10.7633 28.1448,21.2364 50.2418,21.9759 11.1759,0.6375 22.6271,-1.9702 31.7139,-5.7356 7.0959,-2.9404 14.6514,-7.553 20.2464,-12.6198l1.2682 -1.1414c4.8705,-4.1868 10.7318,-11.4214 13.8102,-16.7786 6.7026,-11.6641 9.8938,-21.5107 10.6617,-36.3274 0.4,-20.0148 -5.9095,-36.5267 -17.9476,-50.997l-1.6864 -1.865c-1.4097,-1.6895 -5.4104,-5.515 -7.3853,-7.0798 -1.7827,-1.4124 -3.5052,-2.7583 -5.4909,-4.1551 -3.5177,-2.4743 -7.964,-4.9538 -12.404,-6.8868 -9.0129,-3.9237 -21.0933,-6.812 -32.2786,-6.2018 -11.1983,0.2883 -21.503,3.1603 -30.3029,7.4142 -2.1631,1.0457 -4.1462,2.0874 -6.0936,3.2954 -0.9831,0.6099 -1.8877,1.1544 -2.8745,1.8255 -4.5751,3.1121 -5.5509,4.1046 -9.2305,7.2636l-3.4862 3.37c-13.7316,14.9317 -21.1311,32.6746 -20.6201,54.5244z"/>
  <path class="fil1" d="M71.0561 4.3823c-17.5835,1.083 -33.9082,8.3365 -45.8648,20.4329 -0.6665,0.6743 -1.4929,1.4231 -2.1977,2.2448 -0.6733,0.7849 -1.3391,1.4511 -2.0262,2.2879 -0.331,0.403 -0.6801,0.767 -0.9934,1.1646 -1.4163,1.7972 -3.4353,4.5753 -4.6636,6.5047 -10.5771,16.6161 -13.9461,37.5117 -8.4239,57.1182 3.2683,11.6038 9.4496,22.2403 17.9182,30.6752 2.2156,2.2069 4.4849,4.3033 6.9939,6.2039 5.3127,4.0245 10.3504,7.0205 16.8709,9.6501 8.9001,3.5893 19.5361,5.6163 30.3447,4.9555 10.7041,-0.6544 19.366,-3.3077 27.8159,-7.431 4.2244,-2.0613 9.9976,-5.8614 13.3393,-8.7542l2.3538 -2.0844c0.4459,-0.3888 0.7288,-0.5847 1.1494,-1.0105 0.4918,-0.498 0.7425,-0.788 1.126,-1.1592 0.915,-0.8861 3.3772,-3.3883 4.2219,-4.5343 1.1897,-1.6139 2.356,-2.8344 3.8747,-5.0041 14.8755,-21.2519 17.0717,-49.0516 5.2921,-72.4808 -3.1164,-6.1983 -6.5227,-10.8347 -10.8363,-15.6934 -2.071,-2.3327 -4.3183,-4.4173 -6.702,-6.4936 -13.1031,-11.4136 -31.827,-17.6865 -49.5929,-16.5923z"/>
  <path class="fil0" d="M48.2955 77.6655c-0.5172,0.6639 -0.8846,0.8231 -1.3297,1.4075 -0.3362,0.4415 -0.7121,1.1219 -0.9785,1.6878 -1.184,2.5151 -1.1197,6.6472 -0.0321,8.8139 0.4303,0.8573 0.898,1.912 2.2345,3.0654 -0.5097,1.4871 -3.1501,4.0205 -0.6207,8.646 1.5884,2.9047 3.3117,3.9951 5.849,5.4403 -0.0127,2.2154 -0.5965,1.8746 0.4094,4.1605 1.2865,2.9237 4.6635,6.7688 7.9425,7.6622 2.309,0.6291 1.3418,-0.1615 2.5191,2.5632 1.6876,3.9058 3.8458,6.0462 7.3611,8.2502 6.7509,4.2327 17.6741,2.6609 23.393,-2.589 1.8079,-1.6596 3.4427,-3.166 4.9248,-5.484 1.3658,-2.1359 2.5155,-4.1776 3.3753,-6.8951 0.8458,-2.6733 1.5322,-5.7832 1.5943,-8.81 0.1318,-6.4363 -2.0591,-15.3967 -6.0974,-19.6584 -0.587,-0.6194 -0.5533,-0.8005 -0.6655,-1.8883 -0.0758,-0.7345 -0.2223,-1.5482 -0.373,-2.2704 -0.6033,-2.8892 -1.5113,-5.3424 -2.5673,-7.8444 -2.132,-5.0513 -4.454,-9.4053 -5.5724,-15.2423 -1.2728,-6.6426 0.7167,-11.5596 2.7184,-17.0555 2.0248,-5.5597 8.1025,-19.2327 -0.1829,-22.6611 -2.7971,-1.1574 -6.137,-0.9202 -8.7917,0.2325 -9.4032,4.0831 -15.9896,16.5861 -13.4555,26.8334 0.3601,1.4559 0.7852,2.4567 1.3719,3.717 0.6274,1.3475 1.6974,2.6479 1.7963,3.4203 0.2997,2.342 -1.3028,6.5429 -2.285,8.1496 -1.739,2.845 -2.5521,1.2132 -8.0202,0.9915 -2.9051,-0.1178 -7.0939,-0.0964 -9.7494,0.6653 -2.369,0.6796 -3.8849,3.1612 -4.7175,5.6822 -1.0666,3.2291 -1.0848,5.8148 -0.0508,9.0097z"/>
  <path class="fil2" d="M78.6808 57.389c-1.6009,-0.3499 -3.1465,-2.0753 -4.2594,-3.1393 -0.177,0.2279 -0.3147,-0.3353 -0.0572,1.1988 0.6165,3.6734 -0.1228,5.011 -1.1186,8.6131 1.8943,0.5495 5.337,2.0147 6.51,3.1322 1.8766,1.7878 2.9259,6.4302 2.6569,9.2859 -0.0881,0.9347 -0.4966,1.1893 0.0354,1.9815 0.7071,1.0528 1.146,1.856 1.5923,3.2309l0.832 8.9585c3.1052,-0.0619 4.5238,0.4017 6.9489,1.5352l4.6105 3.9895c-1.5059,-0.6252 -2.8681,-2.9969 -9.1691,-3.7481 -4.0745,-0.4857 -2.1304,0.9729 -4.4295,5.1294 -0.3913,0.7072 -0.882,1.3193 -1.3563,1.9476 1.1457,1.1361 1.6796,3.122 1.7827,5.1893 0.0943,1.8899 -0.369,4.1079 -1.4363,5.5612 -1.6368,2.2288 -3.3873,4.4819 -6.8632,5.8317 -0.6001,0.7426 -1.4296,1.3521 -2.4099,1.8987 -1.1804,0.6583 -1.5857,0.7175 -2.7075,1.0975l-0.489 0.2073 0.6194 0.2128c1.5542,0.3644 3.5826,0.5692 5.158,0.6221 6.9176,0.232 9.7565,-1.1232 15.0017,-5.1143 3.0676,-2.3343 3.8469,-3.5279 5.6622,-7.6651 1.5405,-3.5107 1.8563,-7.2412 2.417,-11.0665 0.1085,0.208 0.1214,0.3533 0.139,0.6683l-0.0115 2.5457c-0.073,4.0433 -1.1962,10.333 -3.2623,13.4844 -1.1553,1.7622 -4.7671,5.3909 -6.4335,6.8925 -1.0776,0.971 -2.5003,1.9187 -4.0585,2.6615 -3.8701,1.845 -7.1969,1.4779 -11.5682,1.5368 1.0542,-0.4822 3.8955,-0.3174 6.3651,-1.1513l5.3863 -2.2237c-0.6251,0.1017 -1.1372,0.3963 -1.8183,0.5843 -1.3719,0.3787 -5.6347,0.4042 -6.914,0.2388l-8.1013 -1.5269c-0.0427,0.9661 1.297,3.1026 1.7414,3.7321 2.3959,3.3934 6.9194,5.6712 11.5381,5.6685 10.8282,-0.0063 22.3442,-12.485 22.8424,-22.7865 0.197,-4.0752 -1.212,-10.7206 -3.2391,-13.898l-2.4455 -3.2618 -0.7826 4.2229c-0.105,-3.0165 0.6954,-3.9057 -0.0721,-8.8176 -0.4324,-2.7673 -1.196,-4.8821 -2.1662,-7.2333 -0.8659,-2.0986 -2.0959,-4.3132 -3.125,-6.2686 -1.141,-2.1681 -2.0831,-4.1279 -3.0617,-6.4524 -1.9543,-4.6425 -2.5003,-10.965 -1.2341,-16.172 1.3582,-5.5859 5.6916,-17.6802 4.6275,-23.2504 -0.579,-3.0308 -2.5439,-3.8409 -5.8901,-3.4178 -5.2241,0.6604 -9.0937,4.648 -11.1436,7.7868 -4.0105,6.1409 -5.0391,15.3706 -1.1807,22.3322 1.8305,3.3028 3.8147,4.2185 4.3375,5.2156z"/>
  <path class="fil2" d="M56.2418 106.473c0.1852,3.1674 0.913,4.0927 2.434,6.0374 0.5471,0.6994 1.33,1.7369 1.9089,2.2873 0.8042,0.7646 1.3671,1.4185 2.2861,2.025 2.503,1.6516 6.8975,2.4191 9.8103,0.2757 0.5501,-0.4048 1.7763,-1.5639 2.2124,-2.1716l-6.1733 1.8758c0.4731,-0.067 3.6079,-1.511 4.3733,-1.83 1.5126,-0.6305 2.8681,-1.4422 4.0738,-2.267 1.0251,-0.7012 0.9591,-0.5652 1.0717,-2.1253 0.2738,-3.7919 -0.1506,-4.6351 -1.8406,-7.5165 -1.4994,0.2852 -3.8208,1.8213 -8.027,2.7416 -5.9741,1.3073 -2.5886,-0.6276 -7.838,2.9302l1.1149 -1.9077 -1.894 -0.228c0.8177,-0.4514 2.9397,-0.5602 4.0386,-0.7957 3.4513,-0.7397 8.12,-2.1597 11.0874,-3.7623 2.3413,-1.2645 4.0763,-2.5507 5.5074,-4.3878l1.6138 -8.2866c-0.6205,0.1115 -3.0513,0.7765 -3.3017,1.2727 -0.6286,1.2453 -0.0232,4.8046 -3.3428,10.3608 0.2344,-1.5562 0.7695,-3.2756 1.1173,-4.8578l0.8062 -5.356c-1.7244,0.2261 -3.6388,0.7937 -5.4745,1.0807 -3.5785,0.5594 -8.387,0.9393 -12.0257,0.8276 -0.4504,-0.0139 -0.9767,-0.0608 -1.4197,-0.0525 -0.6851,0.0129 -0.7038,0.2161 -1.1018,0.5372l-2.0184 1.1796c0.0514,-0.5035 0.3965,-0.6271 0.77,-0.9082l0.8007 -0.9178 -2.5806 -0.5278c0.0124,-0.0074 5.4234,-0.0872 6.1747,-0.1147 5.4487,-0.1992 11.7265,-1.9266 17.0791,-3.1262 0.2783,-1.9144 0.382,-7.3251 0.4494,-9.5236 0.1721,0.3387 0.7657,3.5672 0.8434,4.1512l0.1092 4.9789 3.1343 -1.2552c0.0295,-2.076 -0.3599,-6.2708 -1.2695,-7.8468 -1.064,-1.8436 -16.6681,-2.8595 -20.0959,-2.7578l-4.2629 0.2044 0.8792 -0.3568 -1.734 -2.0077c1.4077,0.4226 2.1687,1.9055 4.2995,1.6091 5.3988,-0.7507 11.2177,-0.0484 16.6224,0.5081 0.1287,-3.0823 -0.143,-4.6406 -0.4799,-7.615 0.2321,0.199 0.0862,0.0115 0.2648,0.3246l1.1201 3.2016 0.4172 4.4067 2.5485 0.5438c-0.2208,-8.054 -4.9449,-11.0248 -12.1862,-12.4919 -3.6343,-0.7364 -7.2654,-1.3508 -11.1933,-0.8996 -4.4516,0.5114 -5.4589,1.7289 -6.1334,6.1673 -0.4659,3.0665 -0.2729,4.3381 0.2196,7.0401 0.1798,0.9867 -0.7275,0.9734 -1.5668,2.9107 -1.5026,3.4681 -2.3379,7.4792 -0.3858,11.2124 1.0428,1.9943 0.5245,0.7389 0.2476,3.5242 -0.1874,1.8848 0.2561,3.853 0.8934,5.3614 0.6784,1.606 1.4565,2.6744 2.428,3.6579 2.1079,2.1339 1.616,1.3788 3.5886,2.6599z"/>
  <path class="fil2" d="M77.5408 102.292c0.4516,1.2989 1.2568,1.4669 1.3872,4.1757 0.1287,2.6728 -0.0091,2.7304 -0.5432,5.2351 0.3415,-0.9301 2.4189,-6.2271 2.3862,-6.7534l-0.5421 -4.3334c-0.6174,0.2995 -1.4392,1.1524 -2.6881,1.676z"/>
 </g>
</svg>
