<?xml version="1.0" encoding="UTF-8"?>
<!DOCTYPE svg PUBLIC "-//W3C//DTD SVG 1.1//EN" "http://www.w3.org/Graphics/SVG/1.1/DTD/svg11.dtd">
<!-- Creator: CorelDRAW -->
<svg xmlns="http://www.w3.org/2000/svg" xml:space="preserve" width="150mm" height="150mm" style="shape-rendering:geometricPrecision; text-rendering:geometricPrecision; image-rendering:optimizeQuality; fill-rule:evenodd; clip-rule:evenodd"
viewBox="0 0 150 150"
 xmlns:xlink="http://www.w3.org/1999/xlink">
 <defs>
  <style type="text/css">
   <![CDATA[
    .str0 {stroke:#00AFEE;stroke-width:0.25}
    .fil2 {fill:#00AFEE}
    .fil0 {fill:#282828}
    .fil3 {fill:#EB3137}
    .fil1 {fill:white}
   ]]>
  </style>
 </defs>
 <g id="Capa_x0020_1">
  <metadata id="CorelCorpID_0Corel-Layer"/>
  <polygon class="fil0" points="-0,150 150,150 150,0 -0,0 "/>
  <path class="fil1" d="M2.129 147.829c1.4013,0.1978 45.6242,0.0505 46.8972,0.0505 4.5644,0 46.164,0.1986 46.7008,-0.1125 0.4331,-0.7091 1.107,-1.3982 1.6817,-2.0925l11.354 -13.7947c10.8349,-13.009 21.6645,-26.2965 32.4703,-39.4173 1.0251,-1.2446 5.6528,-6.7647 6.4875,-7.9604 0.25,0.0514 0.1662,-0.7743 0.1638,-1.0519 -0.1165,-13.1766 -0.0041,-26.825 -0.0041,-40.0125 0,-1.2409 0.1392,-39.9798 -0.0511,-41.3081l-91.1822 0c-2.4587,-0.0009 -1.9218,-0.085 -3.1392,1.463 -1.6948,2.1551 -4.3958,5.3949 -6.1421,7.4473 -1.3906,1.6345 -2.7314,3.3789 -4.1264,5.0193 -1.3983,1.6443 -2.7146,3.2866 -4.0677,4.9511l-16.4657 19.9851c-2.7399,3.3046 -20.4469,24.7065 -20.5398,25.0654 -0.1974,0.7623 -0.037,75.436 -0.037,81.7682z"/>
  <path class="fil2 str0" d="M40.436 80.0679c-0.9822,2.4106 -1.424,5.0667 -1.5557,7.8637 0.2599,2.1098 -0.3642,3.7894 0.4673,8.6237 0.4162,2.42 1.224,5.0434 2.1352,7.1341 1.9356,4.4412 4.2315,7.7299 7.4994,11.0441 1.414,1.4341 0.7986,0.8562 2.3359,2.2366 2.1433,1.9245 5.6827,4.1945 8.4271,5.4238 10.2412,4.587 19.6743,4.8574 29.9113,0.1552 9.8767,-4.5367 18.818,-14.3898 20.9813,-25.248 0.7345,-3.6868 0.5882,-4.8923 0.6377,-8.6001 -0.2109,-3.1806 -0.9617,-6.3612 -2.2033,-9.5417 -0.0785,-0.0788 -1.1321,-2.5576 -1.3459,-2.9673 -3.2463,-6.2196 -4.6859,-7.4699 -8.6401,-12.7022 -6.1759,-8.1721 -13.9892,-19.8572 -17.9985,-29.1251 -1.6916,-3.9102 -3.6068,-8.105 -4.5271,-12.6232 -0.2008,-0.9856 -0.5477,-2.3814 -1.0822,-3.1042 -0.5797,-0.7839 -1.7341,-1.5714 -2.823,-0.7254 -1.1718,0.9104 -1.6512,4.5261 -2.2625,6.3798 -1.3998,4.2444 -2.9466,8.5068 -4.7959,12.3469 -6.4013,13.2923 -12.3981,22.8729 -20.8062,34.8276 -1.6359,2.3259 -1.9065,2.7951 -3.1038,5.5317 -0.304,0.6947 -0.9355,2.6724 -1.251,3.07z"/>
  <path class="fil2" d="M73.8916 27.846c-0.175,0.2315 -2.5324,5.9367 -2.92,6.7986 -2.943,6.5448 -6.4941,13.4842 -10.1263,19.4675 -2.5509,4.2019 -4.9427,8.0588 -7.6152,12.0713 -1.7665,2.6521 -2.2664,3.2927 -4.1588,5.7487 -1.3555,1.7591 -2.6172,3.9802 -3.6057,6.2986 -6.4913,15.2244 1.4534,33.0072 14.5969,40.0296 4.2776,2.2856 10.032,4.1861 16.0333,3.5999 24.6838,-2.4112 37.5722,-23.5426 27.363,-44.5842 -1.6804,-3.4634 -3.5158,-6.0683 -5.8271,-8.9043 -6.9629,-8.5439 -15.8356,-23.4858 -20.6314,-33.7303 -0.7463,-1.5942 -2.5138,-5.674 -3.1087,-6.7954z"/>
  <path class="fil3" d="M2.129 147.829c0,-6.3322 -0.1604,-81.0059 0.037,-81.7682 0.0929,-0.3589 17.7999,-21.7608 20.5398,-25.0654l16.4657 -19.9851c1.3531,-1.6645 2.6694,-3.3068 4.0677,-4.9511 1.395,-1.6404 2.7358,-3.3848 4.1264,-5.0193 1.7463,-2.0524 4.4473,-5.2922 6.1421,-7.4473 1.2174,-1.548 0.6805,-1.4639 3.1392,-1.463l91.1822 0 -145.763 -0.0207 0.0627 145.72z"/>
  <path class="fil3" d="M95.727 147.767c0.1704,0.0921 -0.2816,-0.0035 0.3048,0.0998 0.139,0.0244 0.2195,0.0294 0.3604,0.0359 2.6365,0.122 9.4464,-0.0071 12.2022,-0.0071l39.2854 -0.0159c0.1996,-5.1203 0.0159,-10.6254 0.0159,-15.7884l0.0089 -46.6157c-0.001,-0.6692 0.0148,-0.6435 -0.1841,-0.9735 -0.8347,1.1957 -5.4624,6.7158 -6.4875,7.9604 -10.8058,13.1208 -21.6354,26.4083 -32.4703,39.4173l-11.354 13.7947c-0.5747,0.6943 -1.2486,1.3834 -1.6817,2.0925z"/>
 </g>
</svg>
