<?xml version="1.0" encoding="UTF-8"?>
<!DOCTYPE svg PUBLIC "-//W3C//DTD SVG 1.1//EN" "http://www.w3.org/Graphics/SVG/1.1/DTD/svg11.dtd">
<!-- Creator: CorelDRAW -->
<svg xmlns="http://www.w3.org/2000/svg" xml:space="preserve" width="160mm" height="160mm" style="shape-rendering:geometricPrecision; text-rendering:geometricPrecision; image-rendering:optimizeQuality; fill-rule:evenodd; clip-rule:evenodd"
viewBox="0 0 160 160"
 xmlns:xlink="http://www.w3.org/1999/xlink">
 <defs>
  <style type="text/css">
   <![CDATA[
    .str2 {stroke:#00A859;stroke-width:0.2}
    .str1 {stroke:#1EB847;stroke-width:0.2}
    .str0 {stroke:saddlebrown;stroke-width:0.2}
    .str3 {stroke:#AE5618;stroke-width:0.2}
    .fil1 {fill:#1EB847}
    .fil4 {fill:#AE5618}
    .fil3 {fill:url(#id0)}
    .fil2 {fill:url(#id1)}
    .fil0 {fill:url(#id2)}
   ]]>
  </style>
  <radialGradient id="id0" gradientUnits="userSpaceOnUse" cx="45.9046" cy="45.7694" r="5.8582" fx="45.9046" fy="45.7694">
   <stop offset="0" style="stop-color:#A26A42"/>
   <stop offset="1" style="stop-color:saddlebrown"/>
  </radialGradient>
  <radialGradient id="id1" gradientUnits="userSpaceOnUse" cx="104.57" cy="52.2477" r="50.1358" fx="104.57" fy="52.2477">
   <stop offset="0" style="stop-color:#1EB847"/>
   <stop offset="1" style="stop-color:#00A859"/>
  </radialGradient>
  <radialGradient id="id2" gradientUnits="userSpaceOnUse" xlink:href="#id0" cx="51.076" cy="27.1062" r="41.0698" fx="51.076" fy="27.1062">
  </radialGradient>
 </defs>
 <g id="Capa_x0020_1">
  <metadata id="CorelCorpID_0Corel-Layer"/>
  <path class="fil0 str0" d="M14.6666 46.9507c-1.6357,-2.2257 -3.1226,-3.284 -4.6604,-3.9908 6.2353,0.3985 14.1723,-2.4298 22.6922,-4.7901 8.3109,-2.3023 15.4576,-4.6562 22.0093,-8.2201 6.6241,-3.6034 12.1137,-9.1701 19.0935,-13.6245l18.3445 -11.7072c-1.2347,3.6966 -5.3358,7.746 -3.7042,11.0898 -16.9209,11.8245 -31.5858,22.2797 -44.7406,26.9783 -11.0027,3.9298 -19.721,6.5237 -26.4494,6.9082 -1.1307,-0.6422 -1.836,-1.6246 -2.5849,-2.6436z"/>
  <path class="fil1 str1" d="M53.047 32.4912c0.3957,-0.2714 0.9952,-0.174 0.948,0.2646 -0.1151,1.0679 -1.6927,2.503 -0.926,3.0868 0.5843,0.4449 1.1899,0.9134 1.5742,1.896 1.1273,4.1973 -2.8229,3.8184 -3.3601,1.2129 -0.6117,-2.9664 0.1521,-5.3549 1.7639,-6.4603z"/>
  <path class="fil2 str2" d="M54.8363 39.3275c-0.022,0.4723 -0.1632,0.8405 -0.4022,1.1233 1.7594,4.7569 4.1669,9.4988 8.6785,12.976 3.0123,2.3217 6.8455,4.0955 8.3219,5.4389 3.113,2.8325 6.7625,3.3837 8.0615,4.1974 3.619,2.2667 5.0311,3.7173 12.6119,5.4681 3.4673,0.8008 5.9827,2.7033 8.1813,3.1204 3.6655,0.6955 6.3041,-0.4912 8.1678,-0.3091 5.4206,0.5299 8.4586,-1.0928 8.169,-1.6648 -0.2997,-0.592 5.9439,1.5265 12.5932,-2.1979 1.558,-0.3761 5.1864,-0.4434 6.6338,-0.4478 1.7266,-0.0053 2.3848,-0.6922 3.0675,-0.9011 1.4733,-0.451 2.6937,-0.1996 3.9442,-0.1572 4.6702,0.1584 7.4916,-0.1832 9.2393,-1.1903l2.6017 -1.4993c-3.1614,1.0651 -6.1756,0.3171 -9.3487,-1.5435 -1.8295,-1.0728 -3.8755,-0.7952 -4.6743,-1.7142 -1.5179,-1.7461 -2.4379,-2.8945 -4.2334,-4.0184 -2.4629,-1.5417 -3.8212,-3.923 -5.4027,-5.204 -3.5817,-2.9009 -7.2776,-5.5158 -10.7985,-7.9573 -2.2318,-1.5476 -3.8065,-3.837 -5.7879,-3.937 -2.7086,-0.1366 -5.7653,-3.1396 -8.9232,-4.4212 -4.7958,-1.9465 -8.4294,0.0001 -8.4677,-0.5292 -1.9469,-1.2713 -5.9878,-1.8111 -12.4756,-0.7796 -2.7269,0.4335 -5.2938,0.3648 -7.8976,0.7058 -2.5807,0.3379 -4.1041,-0.3961 -7.1435,-0.1025 -2.705,0.2612 -5.2413,1.1074 -7.8494,1.7638 -2.3766,0.5982 -4.7036,1.6825 -6.8669,3.7807z"/>
  <path class="fil3 str3" d="M48.01 48.1945c-0.0057,-2.8351 -0.3765,-6.0121 1.356,-8.4005l-5.6885 2.4805c-0.4172,0.1819 -0.3874,3.533 -0.9922,6.0854 -0.2421,1.0219 0.0577,1.1376 0.5952,1.6717 1.4884,1.4787 4.7358,1.2876 4.7295,-1.8371z"/>
  <path class="fil4 str3" d="M58.7945 52.7265c-0.2465,-0.0233 -0.4756,-0.4779 -0.9507,-0.7885 -0.5219,-0.3414 -2.7106,-2.4994 -2.9001,-2.5571 -0.2505,-0.6608 -3.14,-1.2301 -3.8468,-1.2984 -0.4339,-0.0418 -1.3236,-0.2157 -1.7037,0.0549 -0.224,0.1595 -0.9466,0.4841 -1.2483,0.3723 -0.2437,-0.0903 -0.3312,-0.3532 -0.9506,-0.3941 -0.8102,-0.0534 -2.1877,-0.1946 -2.9766,0.0331 -0.0896,0.0259 -1.5136,0.1641 -1.5324,0.2112l-0.1567 -0.1122c-0.2877,-0.1298 -2.0677,1.103 -2.0943,1.2313 -0.7734,0.1603 -0.2432,0.4949 -1.3418,-0.1408 -0.8501,-0.4918 -2.308,-0.4432 -3.2497,-0.3137 -0.5105,0.0703 -1.739,0.7925 -2.1252,1.1793 -0.6135,0.6144 -0.7004,1.0427 -1.2893,1.7231 -0.0613,0.1091 -0.0436,0.075 -0.0469,0.0856 -0.0423,0.014 -0.0406,0.0339 -0.05,0.0793 -0.1811,0.0376 -0.822,1.0411 -0.9317,1.0829 -0.0857,0.2564 -0.6942,0.7825 -0.9232,1.4524 -0.1146,0.3353 -1.0174,1.9386 -1.2842,2.1091 -0.1923,0.1229 -0.9035,1.8611 -1.4221,2.472 -0.3394,0.3997 -0.8817,1.8064 -1.2322,2.1054 -0.1095,0.0933 -0.5187,0.979 -0.584,1.1688l-0.0309 0.1961c-0.1432,0.9077 -1.2417,2.3634 -1.48,3.313 -0.2132,0.8502 -0.9546,3.0062 -1.3285,3.8337 -0.3614,0.7997 -0.4989,1.2304 -0.703,2.0958 -0.1448,0.2477 -0.6256,2.2579 -0.6256,2.4351 -0.2348,0.1606 -0.5304,2.8188 -0.7191,3.0843 -0.1228,0.1729 -0.1461,1.2416 -0.3667,1.287 -0.0223,0.0973 -0.0718,0.2038 -0.0718,0.292 -0.1551,1.1043 -0.9062,2.5551 -1.0229,3.7318 -0.1373,1.3848 -0.2832,2.1035 -0.2329,3.6574 -0.2141,1.3211 -0.1997,2.2932 -0.2632,3.5912 -0.0514,1.0529 -0.0021,1.2163 -0.0014,2.3137 0,0.0277 0.3111,1.6466 0.3624,1.7212 -0.3363,2.4856 1.3743,4.4006 0.959,5.0216 -0.0345,0.0349 -0.197,0.5613 -0.2645,0.6341 -0.3767,1.5631 -0.444,0.8221 -0.1323,2.5825 0.4498,1.1502 0.7419,0.2062 0.5234,1.9815 -0.17,1.3823 -0.6906,4.5095 -0.4516,5.6829 0.0719,0.3534 0.2658,1.5855 0.3912,1.8578 0.5649,1.2273 -0.2352,4.4055 0.601,5.7055 0.1239,0.1927 0.3759,1.8541 1.0092,2.8216 0.2681,0.4097 0.9384,1.3769 1.1018,1.8578 0.4537,2.1827 -0.1695,0.863 0.7047,2.2378 0.0227,0.0356 0.8789,4.4352 0.9715,4.8834 0.0665,0.0138 2.4574,2.4827 2.5777,2.7026l0.1323 0.2418c1.3872,2.5357 0.6628,2.091 2.0298,4.6189 0.2304,0.4262 0.5015,0.6605 0.6009,0.9204 0.6081,0.0697 0.977,0.7153 1.493,0.8221 0.091,0.2628 0.6985,1.7661 0.7069,1.8067 0.6909,0.143 0.7155,1.3843 1.2775,1.5006 0.0443,0.2139 2.0146,2.2278 2.1281,2.2981 0.0617,0.3168 0.8296,1.0214 1.0696,1.5157 0.1476,0.304 3.0515,4.0114 3.175,4.101 0.1608,0.1705 0.1003,0.6231 0.4423,0.7371 0.4253,1.2759 0.9057,0.7289 1.0356,1.3569 1.8462,0.6391 1.6977,2.2477 4.3543,2.7895 3.3878,0.6908 4.5608,3.0017 6.2404,-0.2192 0.0024,-0.0046 0.5724,-0.8088 0.6274,-0.8278 0.7947,-0.2751 0.1003,-0.9658 2.9104,-1.3116 0.0448,-0.0055 0.9679,-0.2751 1.0357,-0.2986 0.3412,-0.9856 0.6655,-0.732 0.8164,-1.1679 0.6469,-1.8689 0.3311,0.0204 0.5179,-2.5136 0.0166,-0.2256 1.0515,-3.7107 1.2246,-4.2106 0.34,-0.0704 -0.0669,0.0138 0.2192,-0.0454 0.3142,-1.5187 1.7468,-3.7241 1.8975,-4.4525 0.113,-0.0234 2.0008,-3.2761 2.4568,-3.7496 0.0398,-0.0414 0.823,-1.6737 0.8505,-1.8067 1.0342,-0.214 1.8406,-6.0312 2.8008,-7.8279 0.5106,-0.9556 -0.0437,-5.748 0.4838,-7.0115 0.6846,-1.6398 1.2235,-6.084 2.2262,-7.6616 0.1134,-0.1784 0.4196,-2.5607 0.4196,-2.9217 0.204,-0.9501 0.3749,-0.7447 0.3313,-1.8525 -0.0535,-1.3581 0.35,-6.8315 0.5349,-8.3344 0.2214,-1.7992 0.0394,-3.4736 -0.2099,-5.1537 -0.2152,-1.4507 -0.5902,-2.7441 -0.5234,-4.3052 0.0451,-1.0544 -0.0913,-2.6171 -0.4574,-3.6049 -0.089,-0.9959 -0.7191,-1.9508 -0.6671,-3.7543 0.0457,-1.5838 -0.3246,-3.6524 -1.1472,-5.0044 -0.0372,-0.0611 -0.3126,-0.7453 -0.308,-0.7994 0,-1.1814 -1.4448,-5.7878 -1.9617,-6.8792 -0.5526,-1.1666 -0.8991,-1.5843 -1.0092,-2.9766 -0.1443,-1.8234 -1.3958,-3.583 -1.7859,-5.4957 -0.4613,-2.2617 -2.5828,-4.0889 -3.5342,-6.0742l-0.0661 -0.1379c-0.1149,-0.2399 -0.8344,-1.5411 -1.0356,-1.5875z"/>
 </g>
</svg>
