<?xml version="1.0" encoding="UTF-8"?>
<!DOCTYPE svg PUBLIC "-//W3C//DTD SVG 1.1//EN" "http://www.w3.org/Graphics/SVG/1.1/DTD/svg11.dtd">
<!-- Creator: CorelDRAW -->
<svg xmlns="http://www.w3.org/2000/svg" xml:space="preserve" width="150mm" height="150mm" style="shape-rendering:geometricPrecision; text-rendering:geometricPrecision; image-rendering:optimizeQuality; fill-rule:evenodd; clip-rule:evenodd"
viewBox="0 0 150 150"
 xmlns:xlink="http://www.w3.org/1999/xlink">
 <defs>
  <style type="text/css">
   <![CDATA[
    .fil0 {fill:#383838}
    .fil3 {fill:#766866}
    .fil1 {fill:#F5AAAD}
    .fil2 {fill:#FED2A1}
   ]]>
  </style>
 </defs>
 <g id="Capa_x0020_1">
  <metadata id="CorelCorpID_0Corel-Layer"/>
  <path class="fil0" d="M45.5681 34.4608c-0.0417,1.3456 -1.3937,4.091 -0.9771,4.7952l1.4226 0.4981c0.2169,-1.1733 0.3524,-2.2664 0.6365,-2.9331l1.3467 -4.5032c0.2122,-2.1103 0.0955,-0.2661 0.3529,-1.4856 0.0806,-0.382 -0.0438,-0.3971 0.1183,-0.7193 0.144,-0.2863 0.0855,0.3366 0.3158,-0.5952 0.424,-1.7154 0.1951,-0.3871 0.4391,-1.2919 0.1032,-0.3827 0.0402,-0.355 0.1888,-0.7155l0.3774 -0.5813c0.0103,-0.5 0.6163,-2.6925 0.9243,-3.3229 0.4732,-0.9687 0.191,-0.6474 0.4071,-1.3216 0.0694,-0.2161 0.1675,-0.3557 0.2302,-0.6351 0.0635,-0.2831 0.0431,-0.5011 0.1168,-0.7612l0.1477 -0.3367c0.021,-0.0436 0.1168,-0.2327 0.1197,-0.2398 0.2662,-0.6405 0.6183,-2.3785 0.6495,-2.4517l0.1306 -0.232c0.153,-0.334 0.0894,-0.356 0.2136,-0.6782 0.137,-0.3553 0.0202,0.1554 0.2593,-0.4664 2.0747,-0.2385 1.1112,-0.1623 2.5373,-0.4936 0.2656,-0.0617 0.3654,-0.0649 0.591,-0.1344l0.5313 -0.2085c0.4225,-0.1187 0.9539,-0.0636 1.403,-0.0881 0.5031,-0.0275 0.9462,-0.0295 1.3585,-0.1689l3.8317 -0.5842 5.6731 -0.2705c1.9384,0.0148 3.7016,-0.1473 5.6846,-0.0043 1.8763,0.1352 3.9099,0.1555 5.8042,0.1793l5.293 0.5784c0.4428,0.0537 0.838,0.1741 1.2584,0.2218 0.4718,0.0536 0.9453,0.0258 1.4156,0.0844l7.5314 1.3526 2.3018 0.6365c0.9479,0.2216 1.541,0.3137 2.527,0.4882 0.6025,0.1067 0.3568,0.2204 1.0254,0.4077l3.4572 1.0064c1.8047,0.9219 2.2031,0.7513 3.2373,1.2003l1.5545 0.6624c0.3576,0.1247 1.1587,0.4918 1.3328,0.8887 0.3591,0.8186 0.218,12.1428 0.4957,14.3215 0.0471,0.3695 0.262,9.9045 0.1166,11.0727 -0.0567,0.4552 0.0758,0.1758 -0.152,0.4834l-6.7064 0.4805c-2.3439,0.0266 -4.693,0.0592 -7.0376,0.061 -4.7241,0.0037 -9.483,0.0524 -14.2036,-0.045 -2.4776,-0.0511 -3.2792,-0.2631 -5.0623,-0.3643 -0.649,-0.0368 -1.0147,0.0189 -1.6116,-0.1226 -0.2727,-0.0646 -0.5323,-0.0769 -0.8107,-0.1506 -1.4625,-0.3874 -0.8923,-0.0728 -2.3226,-0.2416 -1.1568,-0.1365 -0.6548,-0.2454 -1.4173,-0.2856 -0.5601,-0.0296 -1.1675,-0.0275 -1.7347,-0.0454 -2.6862,-0.0845 -1.2471,-0.3521 -3.0917,-0.4612 -0.3616,-0.0214 -0.5937,0.0062 -0.9367,-0.0945 -1.7036,-0.5002 -0.379,-0.1533 -2.1741,-0.3942l-1.603 -0.2713c-0.9728,-0.1959 -0.1583,0.1168 -1.391,-0.3359 -0.2529,-0.0928 -2.7028,-0.482 -2.9447,-0.4483l-14.1973 -6.2896c0.4519,0.6899 -3.1497,6.1608 -2.4837,7.0011 -1.6403,1.0742 3.4708,4.0916 12.4161,8.2238 0.0113,-0.0214 0.0458,0.054 0.0669,0.0824 0.5445,0.0485 0.3541,0.1528 0.723,0.2746l1.1814 0.3203c0.0282,0.0112 0.0578,0.0276 0.0867,0.0381l4.564 1.0291c0.3196,0.07 0.4668,0.1961 0.7992,0.2808 0.3531,0.0898 0.5099,0.0817 0.8529,0.1299 0.8923,0.1255 0.3683,0.102 0.7183,0.2612l2.7383 0.3826c0.5085,0.0898 1.3136,0.1087 1.7488,0.2286 0.6283,0.173 0.0671,0.1766 0.8238,0.2557l1.7691 0.1878c0.1653,0.0292 0.2687,0.0269 0.4349,0.0643 1.3839,0.3112 2.7991,0.2526 4.3486,0.2822 1.2769,0.0244 2.3616,0.3249 3.6953,0.3421 4.1139,0.0532 8.2361,0.0848 12.3505,0.0222 1.381,-0.021 2.6474,-0.0751 3.8564,-0.2271 1.2529,-0.1575 2.5459,-0.1541 3.922,-0.1943 1.5792,-0.046 2.3328,-0.1807 3.7387,-0.3462 0.9082,-0.1069 1.9745,0.0761 2.8046,-0.2607 1.0272,-0.4168 4.0833,-0.2576 4.9982,-0.6835 0.7467,-0.3476 1.9656,-0.4552 2.8689,-0.5629 0.0267,-1.2106 0.1379,-2.4605 0.0162,-3.6698 -0.0278,-0.2769 -0.0684,-0.2954 -0.0573,-0.5166 0.0443,-0.883 1.4225,-0.3759 1.9242,-0.224l4.5899 1.2995c0.8994,0.1733 2.7066,0.6089 3.4472,1.0159 0.4556,0.2505 1.138,0.1747 1.6651,0.4487l2.1782 0.784c0.9158,0.3628 2.3652,0.939 3.0898,1.3416 0.9278,0.5155 1.3789,0.4955 3.0993,1.5938l1.6891 0.9407c0.6426,0.3408 0.282,0.2285 0.7759,0.6813 0.4009,0.3677 0.8846,0.5624 1.1755,1.0191l0.6231 1.4868c0.07,0.225 0.1361,0.1967 0.0522,0.5448 -0.0258,0.1069 -0.465,1.483 -0.5865,1.625 -0.4974,0.5805 -0.7984,0.9857 -1.5482,1.3699 -0.5535,0.2836 -0.4747,0.1646 -0.9771,0.5424 -0.404,0.3039 -0.5849,0.2091 -1.0089,0.4667 -0.5201,0.316 -0.9134,0.5662 -1.4725,0.6882 -0.8127,0.1774 -0.1826,0.2598 -0.99,0.3748 -0.5298,0.0755 -1.0101,0.2412 -1.5792,0.4447 -0.0287,0.0103 -0.0606,0.0237 -0.0887,0.0343 -0.583,0.2181 -1.2841,0.2353 -1.8659,0.4838 -0.4413,0.1884 -0.0624,0.136 -0.4596,0.2425 -0.182,0.0488 -0.4523,0.0383 -0.6696,0.0781 -0.9084,0.1661 -0.2931,0.3471 -1.7552,0.4225 -0.7768,0.0401 -0.6353,0.1495 -1.2106,0.3167 -0.3437,0.0999 -3.3669,0.3627 -3.9668,0.4252 -0.456,0.0476 -0.7024,0.2211 -1.1456,0.2935 -2.1812,0.3564 -4.4884,0.4484 -6.5493,0.728 -1.7703,0.2401 -3.6533,0.266 -5.4292,0.4812 -2.3739,0.2876 -14.6107,0.3023 -17.2533,0.2683 -1.6983,-0.0219 -7.2511,-0.0371 -8.7529,-0.1451 -0.8847,-0.0637 -1.5764,-0.2081 -2.6104,-0.2416 -1.8441,-0.0598 -3.8699,-0.1769 -5.5542,-0.3583 -1.403,-0.1511 -2.7986,-0.1512 -4.185,-0.2623 -0.4376,-0.0351 -0.7219,-0.1707 -1.1247,-0.2203 -0.926,-0.1139 -1.8864,-0.1231 -2.8456,-0.1503 -0.2274,-0.0064 -0.4452,-0.0051 -0.6518,-0.0591l-4.5198 -0.666c-1.1776,-0.0499 -1.5373,0.0003 -2.4949,-0.3099 -0.8688,-0.2815 -1.928,-0.0367 -2.7129,-0.2746 -0.5141,-0.1558 -0.6666,-0.25 -1.2115,-0.2784 -1.1648,-0.0608 -1.0341,-0.3782 -1.7228,-0.4237 -1.1372,-0.0751 -1.7033,-0.0327 -2.6905,-0.3186l-5.5927 -0.9699c-0.6033,-0.0715 -0.604,-0.2155 -1.0732,-0.3577l-6.1529 -1.211c-0.6119,-0.0853 -0.4063,-0.2092 -1.0138,-0.4046 -0.639,-0.2055 -1.665,-0.3145 -2.3028,-0.6635 -0.6241,-0.3414 -0.3582,-0.1305 -1.1633,-0.2959 -0.4645,-0.0954 -0.5128,-0.197 -1.2463,-0.2853 -0.6848,-0.0825 -1.9853,-0.5931 -2.8429,-0.7749 -0.993,-0.2106 -0.6057,-0.1511 -1.0587,-0.3674 -0.3756,-0.1793 -0.5209,-0.0708 -0.8537,-0.2607l-1.2827 -0.5926c-0.6464,-0.2033 -0.8378,-0.3394 -1.5192,-0.6735 -0.2939,-0.144 -0.945,-0.321 -1.0793,-0.4051l-1.5882 -0.8745c-0.8794,-0.5502 -2.2025,-1.1975 -2.9608,-1.8517 -3.1631,-2.7288 -1.8711,-3.6129 -1.7973,-4.7454 0.2279,-0.7851 1.0935,-1.3475 1.7292,-1.7997l1.6215 -0.8708c0.0262,-0.0126 0.0565,-0.0299 0.0826,-0.0427 1.9352,-0.95 2.9994,-1.0987 3.9043,-1.5099 0.8121,-0.369 3.4025,-0.8432 4.4012,-1.1444 0.7089,-0.2137 0.1417,-0.1883 0.7729,-0.2986 1.171,-0.2047 0.3623,0.0273 2.0207,-0.3547 0.6939,-0.1598 1.2083,-0.1174 1.8988,-0.3107 0.8828,-0.2472 1.2356,-0.114 2.1279,-0.2479 0.8591,-0.129 0.1909,-0.1452 0.7712,-0.2935 0.2631,-0.0673 0.7871,-0.0507 1.0773,-0.0608l6.5621 -0.6026c0.0283,-0.01 0.0578,-0.0264 0.0857,-0.0367 1.0942,-0.4053 0.0386,0.1461 0.297,-0.3997l0.1453 -0.9343c-0.5323,0.0526 -2.0514,0.1727 -2.5656,0.1437 -0.0326,-0.0035 -3.9155,0.292 -4.0654,0.3206 -0.8021,0.1529 -0.952,0.2701 -1.9439,0.2997 -3.2876,0.0983 -1.7489,0.3575 -3.0813,0.4014 -0.5072,0.0167 -0.9419,-0.041 -1.4447,0.1279l-1.4131 0.3165c-0.1727,0.0296 -0.2387,0.0383 -0.4004,0.0785 -0.3205,0.0796 -0.2796,0.0879 -0.4491,0.1565 -0.9462,0.3828 -2.9948,0.4663 -3.7781,0.7929 -0.8134,0.3392 -1.7914,0.4127 -2.6391,0.7133l-3.0451 1.1227c-0.0204,0.0154 -0.0505,0.0369 -0.0711,0.0524 -0.0206,0.0156 -0.0504,0.037 -0.0712,0.0525 -0.0207,0.0156 -0.0498,0.0376 -0.0707,0.0531 -0.0254,0.0189 -0.2684,0.1972 -0.2856,0.2077 -1.0379,0.6328 -1.3099,0.6862 -2.4122,1.5392 -0.1942,0.1502 -0.4141,0.378 -0.6047,0.5203 -0.6434,0.4807 -0.606,0.5375 -0.9521,1.2578l-0.5618 1.1403c-0.4103,1.1088 0.2574,2.2474 0.8539,3.2076 0.535,0.8613 1.2141,1.4679 2.0227,2.064 0.868,0.6398 1.0938,0.847 1.9668,1.3659 1.5492,0.9211 2.8144,1.6635 4.5383,2.2589l2.1232 1.0474c0.0226,0.0126 0.049,0.0364 0.0717,0.0484 0.4337,0.229 0.8598,0.1822 1.2371,0.386 0.0225,0.0121 0.0496,0.0343 0.0727,0.0455 0.0235,0.0113 0.0537,0.0284 0.0785,0.0383 0.183,0.0728 0.1074,0.0281 0.2885,0.0702l0.8121 0.3096c0.414,0.1431 0.669,0.0283 1.0674,0.1962 0.3595,0.1516 0.1507,0.2089 0.7534,0.3249 0.672,0.1293 0.35,0.0158 0.8703,0.2582 0.5311,0.2473 0.403,0.0612 0.918,0.1944 0.6096,0.1576 0.0441,0.2577 0.8894,0.3441 1.6257,0.1662 0.3827,0.339 1.6279,0.5315 0.2625,0.0406 0.1626,-0.0196 0.4473,0.0811l0.3959 0.2304 1.108 0.0833c0.6985,0.2873 -0.5642,-0.3944 0.1753,0.1233 1.0519,0.7362 2.1505,-0.2341 2.1469,1.4203 -0.0011,0.5146 0.0376,1.1102 -0.0925,1.5947l-0.1898 1.376c-0.0384,1.6339 0.0362,3.1721 0.3515,4.8019 0.1184,0.6122 0.1557,0.1376 0.3026,0.7826 0.0888,0.3901 0.0067,0.4742 0.1506,0.8453 0.164,0.4229 0.1388,0.2429 0.2908,0.8416 0.3734,1.4707 1.1437,0.9479 0.729,3.2322 -0.2844,1.5665 0.0826,3.1746 0.144,4.8178 0.0377,1.0096 0.0218,0.4155 0.2605,0.7565l0.5768 1.5289c0.2033,0.6292 0.1843,1.371 0.0803,1.9732 -0.0504,0.2918 -0.066,0.5882 -0.1256,0.8826l-0.1533 0.4697c-0.4207,1.0911 -0.4005,5.0006 -0.1827,6.3767 0.1217,0.7696 0.2987,0.9945 0.3926,1.7011 0.0643,0.4836 0.0239,0.3689 0.2041,0.7595 0.1855,0.4019 0.2744,1.3451 0.1527,1.9642 -0.1032,0.5254 -0.1865,0.3106 -0.3226,0.7908 -0.0737,0.2601 -0.0874,0.5995 -0.1402,0.8469l-0.28 0.8281c-0.334,1.2102 -0.0611,4.7881 -0.0186,6.0494 0.0095,0.2826 0.0035,0.6987 0.056,0.9666 0.0942,0.4804 0.1956,0.3518 0.2945,0.7816 0.0814,0.3539 0.0686,0.583 0.1616,0.8414l0.2893 0.8377c0.1213,0.4153 0.1003,0.2287 0.3157,0.6377 0.0295,0.0561 0.3446,0.7915 0.3455,0.7944 0.2291,0.7718 -0.1537,1.0552 -0.2118,1.8099 -0.1062,1.3819 -0.2623,2.4408 -0.2205,3.957 0.0192,0.6933 0.1204,1.194 0.1378,1.9765 0.0133,0.6 0.3199,1.9441 0.4947,2.5417l0.6314 1.4542c0.0667,0.1515 0.0775,0.2116 0.1465,0.3515l0.4581 0.6455c1.2617,1.7621 0.7286,2.7543 0.8634,5.0101 0.0096,0.1608 0.0101,0.2635 0.0544,0.4095 0.0078,0.0257 0.0225,0.0569 0.0318,0.0813l0.124 0.2311c0.2227,0.4966 0.1114,0.4518 0.1665,0.9963 0.0608,0.5996 0.1717,0.4316 0.399,1.0405 0.09,0.241 0.0767,0.1702 0.1943,0.4084 0.3153,0.6389 0.5085,0.9769 0.9461,1.5216l0.9486 0.7625c0.4241,0.267 1.3072,0.3082 1.894,0.2536 0.5812,-0.0541 0.9439,-0.4442 1.3107,-0.8085l0.8466 -1.1049 0.2836 -0.8259c0.1735,-0.4871 0.1871,-0.1999 0.3397,-0.7615 0.1564,-0.5758 0.4425,-0.9545 0.4654,-1.5888 0.0776,-2.1556 0.3689,0.7716 0.3962,-3.8334 0.0246,-4.1708 -0.1173,-2.3637 -0.4349,-4.7199 -0.1074,-0.7967 -0.2936,-0.9501 -0.4375,-1.685 -0.0914,-0.4664 -0.528,-0.8445 -0.7866,-1.2631 -0.0874,-0.1415 -0.09,-0.1374 -0.2101,-0.2857l-0.4633 -0.6366c-0.1806,-0.2922 -0.2678,-0.9171 -0.1767,-1.4109 0.0995,-0.5391 0.074,-0.2603 0.3126,-0.662 0.3961,-0.667 0.7819,-1.4291 1.0512,-2.1184 0.1357,-0.3473 0.5933,-1.9813 0.6408,-2.4059 0.1688,-1.5109 0.1377,-3.8396 0.0205,-5.3033 -0.0516,-0.645 -0.2679,-0.8685 -0.3743,-1.6967 -0.0999,-0.7771 -0.3991,-1.7645 -0.7413,-2.3344 -0.6482,-1.0793 -0.3917,-1.1321 -0.3234,-2.5029 0.3456,0.1784 0.0991,0.0576 0.3543,0.4895 0.0188,0.0319 0.0756,0.1211 0.0937,0.1537 0.1089,0.1956 0.0301,0.0213 0.1263,0.2449 0.5576,1.296 1.0725,2.6333 1.8715,3.8106l1.9672 3.0989c0.4326,0.6585 0.8583,1.1496 1.3476,1.6198 0.5566,0.5348 0.9012,1.0215 1.3937,1.6805 0.5869,0.7852 1.404,1.5002 2.0746,2.2587 0.2788,0.3154 0.6293,0.5311 0.9641,0.7394 0.0245,0.0153 0.0561,0.0327 0.0804,0.0485 0.3906,0.2535 0.583,0.4332 0.6497,0.8947l-0.3683 4.9632c-0.1459,0.9833 -0.4569,0.2624 -0.4545,1.8346 0.0007,0.4978 0.0049,0.9336 -0.1593,1.3985 -0.1841,0.521 -0.1642,0.7667 -0.2429,1.3266 -0.0734,0.5227 -0.2563,0.6384 -0.3549,1.1314 -0.0868,0.4336 0.0202,0.2106 -0.158,0.6202 -0.2497,0.5743 -0.2502,1.2027 -0.5005,1.7323 -0.7717,1.6334 -0.5633,1.5118 -1.5883,3.1201 -0.4187,0.6568 -0.7338,1.3143 -1.0349,2.0321 0.5067,0.6618 0.3893,0.4356 1.2784,0.7076 0.8183,0.2503 0.6907,0.0606 1.5025,-0.0597 0.1998,-0.6619 0.0282,-0.162 0.2857,-0.4063 0.709,-0.6729 1.6285,-1.6442 2.0314,-2.5077 0.1466,-0.3142 -0.0034,-0.0039 0.1269,-0.2513 0.4293,-0.8147 -0.0799,-0.2535 0.5538,-1.4353l0.9357 -2.6141c0.1096,-0.7443 0.0543,-0.507 0.2842,-1.1112 0.1881,-0.4945 0.0522,-0.704 0.1796,-1.1843 0.21,-0.7911 0.3379,-0.0563 0.4026,-0.888 0.045,-0.5795 -0.0894,-0.8239 0.1088,-1.4214 0.3089,-0.9306 0.3154,-2.4147 0.434,-3.7654 0.2435,-2.7732 1.0377,-0.5893 2.3254,-0.6819 0.9043,-0.0649 0.4465,0.0249 1.003,0.2869l1.3172 0.2347c-0.1946,-0.2202 -0.6029,-0.3751 -0.8947,-0.4997 -1.0593,-0.452 -0.6881,-0.1902 -0.8099,-0.6316 -0.6066,-0.3444 -1.3279,-0.5749 -1.9257,-0.9464l-3.6219 -2.5509c-0.6774,-0.4796 -1.2826,-1.0205 -1.824,-1.6323 -0.5283,-0.5969 -1.0139,-1.2392 -1.6611,-1.7973 -0.296,-0.2553 -2.7573,-3.5056 -2.918,-3.8628 -0.1942,-0.4316 -0.3133,-0.6907 -0.6059,-1.0116l-0.2636 -0.4698c-0.2474,-0.6835 -0.7386,-1.7818 -1.1535,-2.316 -0.3948,-0.5083 -0.5227,-0.8496 -0.7967,-1.4169 -0.0778,-0.1612 -0.1193,-0.2647 -0.1856,-0.4159 -0.2198,-0.5008 0.2463,0.5366 -0.0756,-0.1718l-0.6684 -1.804c-0.2065,-0.6863 -0.4248,-1.0532 -0.4594,-1.7949 -0.07,-1.5003 0.0543,-3.0494 0.0124,-4.5722 -0.0337,-1.225 -0.1314,-1.0115 -0.3036,-2.0095 -0.1526,-0.885 -0.0645,-0.9765 -0.3828,-1.8675l-0.4693 -1.1238c-0.5309,-1.0148 -0.4718,-0.9517 0.1665,-1.9313 0.3824,-0.5867 0.5222,-1.0041 0.7373,-1.6001l0.5978 -1.597c0.1989,-0.6891 0.3957,-3.2853 0.3838,-4.1923 -0.0275,-2.0897 -0.7091,-5.4587 -0.6851,-6.2958 0.0219,-0.7606 0.1966,-3.0069 0.5571,-3.6124 0.0121,-0.0203 0.0362,-0.0472 0.0488,-0.0675 0.3137,-0.507 0.5215,-1.1951 0.7338,-1.7479 2.1196,0.0458 1.8796,0.1963 3.0645,0.2738 0.5057,0.0331 1.2149,-0.0065 1.6841,0.0767 0.403,0.0715 0.6868,0.2877 1.1904,0.365 1.0129,0.1555 1.1936,0 2.2944,0.2924 1.0033,0.2666 2.1629,-0.0359 3.165,0.2068 0.5393,0.1307 0.2766,0.1402 0.4548,0.2283 0.619,0.3061 2.2713,0.2008 3.0081,0.3176 0.9232,0.1464 2.216,0.1826 3.0696,0.2579 0.6768,0.0597 0.929,0.1314 1.4974,0.224 0.5111,0.0832 1.0218,0.0305 1.5439,0.0668 1.0216,0.0709 3.8551,0.0028 4.6991,0.2601 1.1344,0.3458 4.9539,0.1493 6.4213,0.2538 0.5918,0.0422 0.6055,0.1744 1.3409,0.1773 1.147,0.0046 2.0851,0.1283 3.0907,0.1245l10.0053 0.0006c1.9435,-0.0159 2.691,-0.3955 3.3482,0.3408 0.3142,0.352 0.7199,2.5242 0.4092,3.2397 -0.2536,0.5841 -0.1712,0.7872 -0.2902,1.4267 -0.0862,0.4633 -0.0401,0.1483 -0.1224,0.3757 -0.3614,0.9972 -0.3864,5.4013 -0.0825,6.1524 0.3792,0.9375 0.838,3.4157 1.3341,4.0726 0.177,0.2343 0.3535,0.3281 0.4995,0.5952 0.523,0.9564 0.0198,1.1442 -0.2066,1.5905 -0.1114,0.2196 -0.517,1.4569 -0.5483,1.6779 -0.1027,0.7258 -0.2456,1.1823 -0.3407,1.7522 -0.3076,1.8423 0.2164,5.1332 -0.1011,6.6033 -0.0935,0.4329 -0.2125,0.3891 -0.3388,0.7338l-0.4835 1.6372c-0.4207,1.2894 -1.0701,2.3398 -1.5346,3.5756 -0.1224,0.3254 0.0003,0.0996 -0.1367,0.3336 -0.119,0.2034 -0.2738,0.3322 -0.4528,0.6351 -0.1576,0.2669 -0.2246,0.3868 -0.3357,0.6705 -0.2513,0.6418 -0.79,0.9586 -1.161,1.6458l-1.0457 1.4359c-0.472,0.5582 -0.9613,1.3036 -1.5064,1.834 -0.0173,0.0169 -0.0445,0.0415 -0.0613,0.0586 -0.3351,0.3411 -0.6419,0.8714 -0.9487,1.2772 -0.3116,0.4121 -0.7198,0.7466 -1.0982,1.1141 -0.2439,0.2367 -0.3382,0.3182 -0.5489,0.5707 -0.4993,0.5984 -0.6594,0.5295 -1.2113,1.0014 -0.8015,0.6855 -1.6484,1.2242 -2.5037,1.818 -0.521,0.3617 -3.3609,1.5948 -3.4205,1.7779 -0.2713,0.7231 -0.7277,0.4365 -1.4075,0.7993 -0.757,0.4039 -0.9138,0.1036 -1.362,0.512l-0.2136 0.2647c0.7685,0.024 0.6225,-0.0074 0.7914,-0.0589l0.1819 -0.0817c0.7074,-0.313 1.8802,-0.3929 3.1226,-1.1113 0.0248,-0.0144 0.056,-0.0344 0.0791,-0.0491l0.1302 -0.1033c0.5235,-0.3537 -0.4506,0.0921 0.2673,-0.1422 1.236,-0.4033 0.1713,-0.2699 1.5672,-0.4006 0.0332,0.5155 -0.0083,1.0248 0.0201,1.5245 0.0408,0.7175 0.2508,0.8546 0.3539,1.3642 0.1003,0.4953 0.0869,1.095 0.0917,1.6008 0.0071,0.7539 0.1879,0.6035 0.3227,1.225 0.2094,0.9656 -0.2465,0.8162 0.2627,1.7914l0.0926 0.1867c0.239,0.7074 -0.198,0.5044 0.3369,1.3487 0.2368,0.3737 0.1513,0.2767 0.2005,0.5297 0.1612,0.8297 0.412,0.7964 0.3355,1.4705 -0.0556,0.5626 0.51,1.3737 0.712,1.8138 0.2526,0.5509 0.5717,1.1435 0.9355,1.6488 0.1609,0.2235 0.3021,0.4818 0.4759,0.7568 0.1358,0.2147 0.1251,0.1895 0.2714,0.349 0.1046,0.1139 0.0661,0.0666 0.185,0.1878 0.6631,0.6761 0.5585,0.5476 1.3029,1.0242 0.5151,0.3298 0.1745,-0.0658 0.4495,0.3907 0.8402,-0.0227 0.0316,0.2524 1.7781,-0.3257 0.3206,-0.6784 -0.0077,-1.1292 -0.4606,-1.5699l-0.1841 -0.1916c-1.1664,-1.2999 -1.5298,-2.4387 -2.1616,-4.0168 -0.3714,-0.9278 -1.1168,-3.2988 -1.1906,-4.1522 -0.0229,-0.2654 -0.0074,-0.4098 -0.0497,-0.6822 -0.1327,-0.8538 -0.3786,-1.7716 -0.4371,-2.656 -0.0731,-1.1039 -0.3523,-1.3673 -0.3737,-2.7154l0.0497 -3.0846c1.4661,-0.8847 1.021,-0.6815 2.1454,-1.6833 0.5577,-0.497 1.9776,-2.0724 2.4686,-2.7208 0.9152,-1.2083 1.319,-1.4549 2.2418,-2.9553l0.7949 -1.1587c0.0724,-0.1056 0.0473,-0.0575 0.1511,-0.223 0.812,-1.2953 1.7062,-2.7682 2.2583,-4.1572 0.2097,-0.5277 0.6009,-1.0234 0.9209,-1.5308 0.6436,0.8083 -0.3808,1.735 -0.6796,2.4967 -0.1638,0.4174 -0.7447,2.2494 -0.7881,2.9147 -0.0312,0.4787 -0.0311,1.0013 -0.041,1.4837 -0.0296,1.4404 -0.1368,2.9733 0.0559,4.4075 0.0634,0.4714 0.2215,0.8221 0.2889,1.1857 0.2665,1.4359 0.3401,2.0457 1.1031,3.3505 0.3861,0.6603 0.8017,1.3207 0.391,2.007l-0.4367 0.5502c-0.5436,0.6418 -1.0652,1.7538 -1.3092,2.5046 -0.6886,2.1198 -0.8673,6.3217 -0.4125,8.199l0.4714 2.5183c0.1182,0.392 0.6207,1.7519 0.8345,2.1136 0.3334,0.5643 0.8228,1.1759 1.3962,1.5387 0.8413,0.5324 1.5773,0.4356 2.5832,0.4248l0.5551 -0.5844c0.4652,-0.3835 0.7854,-0.9205 1.0515,-1.4318 0.2328,-0.4472 0.9656,-2.407 1.0097,-2.8078 0.0861,-0.7845 0.3382,-1.3837 0.4041,-2.1477 0.086,-0.9957 -0.2577,-2.2975 0.2976,-3.0759l0.1617 -0.2095c0.7119,-0.9349 1.3678,-2.2402 1.6283,-3.4042 0.094,-0.4202 0.0518,-0.8752 0.1081,-1.3048 0.135,-1.0304 0.2622,-0.766 0.2718,-2.2279 0.0056,-0.8558 0.0275,-1.7457 0.0001,-2.5984 -0.0594,-1.8466 -0.8681,-2.351 -0.0278,-4.3086 0.934,-2.1761 1.5713,-6.5762 1.1811,-9.0111 -0.0859,-0.536 -0.2289,-1.5589 -0.4393,-2.0078 -0.2235,-0.477 -0.1521,-0.3836 -0.2649,-0.9358 -0.3529,-1.7286 -0.6865,-0.624 0.1033,-2.9911 0.1894,-0.5676 0.2693,-0.2062 0.3345,-0.8606 0.042,-0.422 0.0068,-0.9346 0.0665,-1.3595 0.1231,-0.8762 0.3082,-0.9537 0.3114,-2.1007 0.0024,-0.8582 0.066,-1.6956 -0.1597,-2.4039 -0.2544,-0.7985 -0.1048,-1.412 -0.2693,-2.2292 -0.1584,-0.7867 -0.5635,-1.1622 -0.2427,-2.2258 0.3517,-1.1658 0.8071,-2.8361 1.0391,-4.0383 0.2978,-1.5434 -0.3656,-4.8125 0.277,-6.0383 0.0665,-0.1268 0.0951,-0.1232 0.2227,-0.4 1.1288,-2.449 1.1452,-4.2515 1.3948,-6.9888 0.5274,-0.2362 1.4222,-0.0403 2.068,-0.1576 0.6952,-0.1263 0.8944,-0.3144 1.877,-0.3303 0.7407,-0.0119 3.4236,-0.393 3.9583,-0.6167 0.1646,-0.0688 3.2258,-0.564 3.8342,-0.7459 0.5307,-0.1587 1.217,-0.2631 1.7182,-0.4983 0.4511,-0.2117 0.3557,-0.1171 0.8658,-0.2274 0.817,-0.1765 0.1766,-0.2092 0.8789,-0.3479 0.6633,-0.131 0.3509,0.0497 0.9018,-0.2307 0.5426,-0.2762 0.3329,-0.0928 0.9165,-0.2166 0.6886,-0.146 0.1415,-0.1487 0.7292,-0.3668 0.115,-0.0427 0.2464,-0.0558 0.389,-0.1069 0.7024,-0.2514 1.6063,-0.6364 2.2808,-1.0571 0.8496,-0.53 1.5125,-1.1776 2.2478,-1.8047 0.3845,-0.3279 0.8164,-0.8423 1.0611,-1.3 0.4242,-0.7937 0.4049,-0.6607 0.3949,-1.8716 -0.0062,-0.7626 -0.153,-1.2394 -0.4869,-1.9046 -0.1806,-0.3599 -0.0384,-0.06 -0.1896,-0.311 -0.3274,-0.5437 -0.8042,-1.1342 -1.2595,-1.5751 -0.7573,-0.7336 -2.0142,-1.6837 -2.9714,-2.0952 -0.5793,-0.249 -1.0769,-0.6325 -1.6522,-0.9376l-6.6384 -2.7484c-0.4037,-0.1463 -0.4599,-0.0385 -0.88,-0.2273 -0.5434,-0.2442 -1.0403,-0.2859 -1.6514,-0.5656 -0.4342,-0.1987 -0.5368,-0.0603 -0.9134,-0.2099 -0.522,-0.2073 0.2306,-0.1912 -0.8082,-0.3126l-1.9228 -0.4333c-0.1734,-0.0462 -0.5191,-0.2801 -0.734,-0.3398 -0.3606,-0.1001 -0.6183,-0.0249 -0.9987,-0.1267 -0.7332,-0.1962 -0.0623,-0.2242 -0.9165,-0.3214 -1.142,-0.13 -1.0618,-0.3131 -1.8379,-0.4111 -0.698,-0.0881 -1.1364,-0.3288 -1.7881,-0.5212 -0.369,-4.2524 -0.3262,-13.5158 -0.3281,-17.9491 -0.0004,-0.8472 -0.1197,-1.0229 -0.1914,-1.6163 -0.1122,-0.9297 -0.2025,-7.7058 -0.2431,-9.0496l-0.3638 -0.1811c-0.0979,-0.0358 -0.3403,-0.0901 -0.4571,-0.1415 -0.0221,-0.0098 -0.0522,-0.0275 -0.0738,-0.0382l-0.3106 -0.1764c-0.2377,-0.1054 -0.2418,-0.0539 -0.4675,-0.1684 -0.7399,-0.3753 -0.2793,-0.4206 -1.5885,-0.8317 -0.4903,-0.154 -1.0162,-0.5492 -1.6035,-0.7391 -0.1541,-0.0499 -0.2667,-0.0639 -0.4803,-0.1463 -0.6642,-0.2566 -2.5411,-1.0395 -3.1097,-1.1037 -0.8188,-0.0925 -0.38,0.0249 -0.9861,-0.2578 -0.5282,-0.2462 -0.5069,-0.0482 -1.0235,-0.223l-1.782 -0.6587c-0.4531,-0.1561 -0.7292,-0.0323 -1.1087,-0.144 -0.6998,-0.206 0.1648,-0.2501 -0.8953,-0.336 -0.8778,-0.0712 -1.5951,-0.3769 -2.4757,-0.486 -0.2693,-0.0334 0.0112,0.0253 -0.2206,-0.0339 -0.4227,-0.1079 -0.4793,-0.2808 -1.2447,-0.3426 -0.3647,-0.0294 -0.7042,-0.0879 -1.0294,-0.208 -0.6934,-0.2562 -1.4722,-0.1234 -2.1196,-0.3575 -0.4335,-0.1568 -0.3549,-0.2246 -0.9379,-0.2585 -0.9331,-0.0542 -1.3137,0.0764 -2.1796,-0.2089 -0.9825,-0.3235 -2.4223,-0.0015 -3.3762,-0.3478 -0.5533,-0.2008 -0.1672,-0.2536 -0.862,-0.2951 -2.8398,-0.1699 -3.6708,-0.3434 -6.9199,-0.4068 -1.1369,-0.0222 -1.4049,-0.1848 -2.0921,-0.2047 -0.8789,-0.0254 -1.6192,-0.0767 -2.3568,-0.1144 -2.2624,-0.1156 -6.8397,0.1738 -9.3713,0.3517 -0.7473,0.0526 -1.2622,0.2901 -1.9803,0.3427 -0.707,0.0519 -1.7589,-0.0541 -2.3886,0.1123 -0.3675,0.0971 -0.4031,0.206 -0.9014,0.3064 -0.5077,0.1023 -1.3186,0.0996 -1.803,0.2895 -0.4926,0.193 -0.9599,0.1181 -1.4401,0.2026 -0.3992,0.0703 -0.3857,0.2841 -1.2537,0.4271l-0.4692 0.1572c-0.754,0.4429 -1.1381,0.1531 -1.7527,0.6999 -0.3048,0.2713 -0.7159,1.2224 -0.791,1.7236 -0.0768,0.5136 -0.1452,0.5278 -0.2736,0.9423l-0.1356 1.1749c-0.1181,0.3808 0.0383,-0.0924 -0.2418,0.2534l-0.2174 0.4172c-0.078,0.2432 -0.0416,0.2395 -0.1422,0.4803l-0.5131 1.3319c-0.3951,0.8224 -1.0029,4.6146 -1.6388,5.7759 -0.1873,0.342 -0.1471,0.6168 -0.2367,0.9976 -0.1605,0.6824 -0.1982,0.1318 -0.3455,0.8769 -0.215,1.0879 -0.6406,2.1467 -0.7992,2.9415 -0.0895,0.4491 -0.1086,0.6473 -0.2885,1.067 -0.0118,0.0275 -0.0287,0.0581 -0.04,0.086 -0.1178,0.2921 -0.1524,0.4632 -0.1465,0.7622z"/>
  <path class="fil1" d="M66.2865 121.4c0.4757,0.084 0.5485,0.1975 1.0242,0.3941 0.3075,0.1271 0.6629,0.1953 1.0562,0.3387 0.431,0.1573 0.1888,0.2268 0.9088,0.3987 0.5791,0.1383 0.6433,0.2692 1.1306,0.3589 3.8712,0.7124 6.2197,0.802 10.3506,0.1442 0.8167,-0.13 1.3677,-0.3917 2.2075,-0.6127 1.1246,-0.2959 1.2509,-0.6823 2.2003,-0.7578 0.0596,-0.1831 2.8995,-1.4162 3.4205,-1.7779 0.8553,-0.5938 1.7022,-1.1325 2.5037,-1.818 0.5519,-0.4719 0.712,-0.403 1.2113,-1.0014 0.2107,-0.2525 0.305,-0.334 0.5489,-0.5707 0.3784,-0.3675 0.7866,-0.702 1.0982,-1.1141 0.3068,-0.4058 0.6136,-0.9361 0.9487,-1.2772 0.0168,-0.0171 0.044,-0.0417 0.0613,-0.0586 0.5451,-0.5304 1.0344,-1.2758 1.5064,-1.834l1.0457 -1.4359c0.371,-0.6872 0.9097,-1.004 1.161,-1.6458 0.1111,-0.2837 0.1781,-0.4036 0.3357,-0.6705 0.179,-0.3029 0.3338,-0.4317 0.4528,-0.6351 0.137,-0.234 0.0143,-0.0082 0.1367,-0.3336 0.4645,-1.2358 1.1139,-2.2862 1.5346,-3.5756l0.4835 -1.6372c0.1263,-0.3447 0.2453,-0.3009 0.3388,-0.7338 0.3175,-1.4701 -0.2065,-4.761 0.1011,-6.6033 0.0951,-0.5699 0.238,-1.0264 0.3407,-1.7522 0.0313,-0.221 0.4369,-1.4583 0.5483,-1.6779 0.2264,-0.4463 0.7296,-0.6341 0.2066,-1.5905 -0.146,-0.2671 -0.3225,-0.3609 -0.4995,-0.5952 -0.4961,-0.6569 -0.9549,-3.1351 -1.3341,-4.0726 -0.3039,-0.7511 -0.2789,-5.1552 0.0825,-6.1524 0.0823,-0.2274 0.0362,0.0876 0.1224,-0.3757 0.119,-0.6395 0.0366,-0.8426 0.2902,-1.4267 0.3107,-0.7155 -0.095,-2.8877 -0.4092,-3.2397 -0.6572,-0.7363 -1.4047,-0.3567 -3.3482,-0.3408l-10.0053 -0.0006c-1.0056,0.0038 -1.9437,-0.1199 -3.0907,-0.1245 -0.7354,-0.0029 -0.7491,-0.1351 -1.3409,-0.1773 -1.4674,-0.1045 -5.2869,0.092 -6.4213,-0.2538 -0.844,-0.2573 -3.6775,-0.1892 -4.6991,-0.2601 -0.5221,-0.0363 -1.0328,0.0164 -1.5439,-0.0668 -0.5684,-0.0926 -0.8206,-0.1643 -1.4974,-0.224 -0.8536,-0.0753 -2.1464,-0.1115 -3.0696,-0.2579 -0.7368,-0.1168 -2.3891,-0.0115 -3.0081,-0.3176 -0.1782,-0.0881 0.0845,-0.0976 -0.4548,-0.2283 -1.0021,-0.2427 -2.1617,0.0598 -3.165,-0.2068 -1.1008,-0.2924 -1.2815,-0.1369 -2.2944,-0.2924 -0.5036,-0.0773 -0.7874,-0.2935 -1.1904,-0.365 -0.4692,-0.0832 -1.1784,-0.0436 -1.6841,-0.0767 -1.1849,-0.0775 -0.9449,-0.228 -3.0645,-0.2738 -0.2123,0.5528 -0.4201,1.2409 -0.7338,1.7479 -0.0126,0.0203 -0.0367,0.0472 -0.0488,0.0675 -0.3605,0.6055 -0.5352,2.8518 -0.5571,3.6124 -0.024,0.8371 0.6576,4.2061 0.6851,6.2958 0.0119,0.907 -0.1849,3.5032 -0.3838,4.1923l-0.5978 1.597c-0.2151,0.596 -0.3549,1.0134 -0.7373,1.6001 -0.6383,0.9796 -0.6974,0.9165 -0.1665,1.9313l0.4693 1.1238c0.3183,0.891 0.2302,0.9825 0.3828,1.8675 0.1722,0.998 0.2699,0.7845 0.3036,2.0095 0.0419,1.5228 -0.0824,3.0719 -0.0124,4.5722 0.0346,0.7417 0.2529,1.1086 0.4594,1.7949l0.6684 1.804c0.3219,0.7084 -0.1442,-0.329 0.0756,0.1718 0.0663,0.1512 0.1078,0.2547 0.1856,0.4159 0.274,0.5673 0.4019,0.9086 0.7967,1.4169 0.4149,0.5342 0.9061,1.6325 1.1535,2.316l0.2636 0.4698c0.2926,0.3209 0.4117,0.58 0.6059,1.0116 0.1607,0.3572 2.622,3.6075 2.918,3.8628 0.6472,0.5581 1.1328,1.2004 1.6611,1.7973 0.5414,0.6118 1.1466,1.1527 1.824,1.6323l3.6219 2.5509c0.5978,0.3715 1.3191,0.602 1.9257,0.9464z"/>
  <path class="fil2" d="M49.7891 26.929c-0.0174,0.2749 -0.0098,0.6288 -0.0913,0.8866 -0.127,0.4014 -0.1284,0.0718 -0.2688,0.5664l-1.6712 5.3287c-0.0625,0.2715 -0.0662,0.4986 -0.1377,0.7707l-1.067 3.5095c0.3202,0.3925 -0.5631,1.3732 -0.2617,1.7632 0.524,0.6781 2.2209,0.7582 2.7456,1.3884l1.6994 0.7039c-0.2645,0.2846 4.4511,2.055 4.4403,2.4602l1.7395 0.4707c0.5073,0.0993 1.3211,0.1692 1.8331,0.6189 0.2419,-0.0337 2.6918,0.3555 2.9447,0.4483 1.2327,0.4527 0.4182,0.14 1.391,0.3359l1.603 0.2713c1.7951,0.2409 0.4705,-0.106 2.1741,0.3942 0.343,0.1007 0.5751,0.0731 0.9367,0.0945 1.8446,0.1091 0.4055,0.3767 3.0917,0.4612 0.5672,0.0179 1.1746,0.0158 1.7347,0.0454 0.7625,0.0402 0.2605,0.1491 1.4173,0.2856 1.4303,0.1688 0.8601,-0.1458 2.3226,0.2416 0.2784,0.0737 0.538,0.086 0.8107,0.1506 0.5969,0.1415 0.9626,0.0858 1.6116,0.1226 1.7831,0.1012 2.5847,0.3132 5.0623,0.3643 4.7206,0.0974 9.4795,0.0487 14.2036,0.045 2.3446,-0.0018 4.6937,-0.0344 7.0376,-0.061l6.7064 -0.4805c0.2278,-0.3076 0.0953,-0.0282 0.152,-0.4834 0.1454,-1.1682 -0.0695,-10.7032 -0.1166,-11.0727 -0.2777,-2.1787 -0.1366,-13.5029 -0.4957,-14.3215 -0.1741,-0.3969 -0.9752,-0.764 -1.3328,-0.8887l-1.5545 -0.6624c-1.0342,-0.449 -1.4326,-0.2784 -3.2373,-1.2003l-3.4572 -1.0064c-0.6686,-0.1873 -0.4229,-0.301 -1.0254,-0.4077 -0.986,-0.1745 -1.5791,-0.2666 -2.527,-0.4882l-2.3018 -0.6365 -7.5314 -1.3526c-0.4703,-0.0586 -0.9438,-0.0308 -1.4156,-0.0844 -0.4204,-0.0477 -0.8156,-0.1681 -1.2584,-0.2218l-5.293 -0.5784c-1.8943,-0.0238 -3.9279,-0.0441 -5.8042,-0.1793 -1.983,-0.143 -3.7462,0.0191 -5.6846,0.0043l-5.6731 0.2705 -3.8317 0.5842c-0.4123,0.1394 -0.8554,0.1414 -1.3585,0.1689 -0.4491,0.0245 -0.9805,-0.0306 -1.403,0.0881l-0.5313 0.2085c-0.2256,0.0695 -0.3254,0.0727 -0.591,0.1344 -1.4261,0.3313 -0.4626,0.2551 -2.5373,0.4936 -0.2391,0.6218 -0.1223,0.1111 -0.2593,0.4664 -0.1242,0.3222 -0.0606,0.3442 -0.2136,0.6782l-0.1306 0.232c-0.0312,0.0732 -0.3833,1.8112 -0.6495,2.4517 -0.0029,0.0071 -0.0987,0.1962 -0.1197,0.2398l-0.1477 0.3367c-0.0737,0.2601 -0.0533,0.4781 -0.1168,0.7612 -0.0627,0.2794 -0.1608,0.419 -0.2302,0.6351 -0.2161,0.6742 0.0661,0.3529 -0.4071,1.3216 -0.308,0.6304 -0.914,2.8229 -0.9243,3.3229z"/>
  <path class="fil2" d="M14.6823 53.8284c-0.0738,1.1325 -1.3658,2.0166 1.7973,4.7454 0.7583,0.6542 2.0814,1.3015 2.9608,1.8517l1.5882 0.8745c0.1343,0.0841 0.7854,0.2611 1.0793,0.4051 0.6814,0.3341 0.8728,0.4702 1.5192,0.6735l1.2827 0.5926c0.3328,0.1899 0.4781,0.0814 0.8537,0.2607 0.453,0.2163 0.0657,0.1568 1.0587,0.3674 0.8576,0.1818 2.1581,0.6924 2.8429,0.7749 0.7335,0.0883 0.7818,0.1899 1.2463,0.2853 0.8051,0.1654 0.5392,-0.0455 1.1633,0.2959 0.6378,0.349 1.6638,0.458 2.3028,0.6635 0.6075,0.1954 0.4019,0.3193 1.0138,0.4046l6.1529 1.211c0.4692,0.1422 0.4699,0.2862 1.0732,0.3577l5.5927 0.9699c0.9872,0.2859 1.5533,0.2435 2.6905,0.3186 0.6887,0.0455 0.558,0.3629 1.7228,0.4237 0.5449,0.0284 0.6974,0.1226 1.2115,0.2784 0.7849,0.2379 1.8441,-0.0069 2.7129,0.2746 0.9576,0.3102 1.3173,0.26 2.4949,0.3099l4.5198 0.666c0.2066,0.054 0.4244,0.0527 0.6518,0.0591 0.9592,0.0272 1.9196,0.0364 2.8456,0.1503 0.4028,0.0496 0.6871,0.1852 1.1247,0.2203 1.3864,0.1111 2.782,0.1112 4.185,0.2623 1.6843,0.1814 3.7101,0.2985 5.5542,0.3583 1.034,0.0335 1.7257,0.1779 2.6104,0.2416 1.5018,0.108 7.0546,0.1232 8.7529,0.1451 2.6426,0.034 14.8794,0.0193 17.2533,-0.2683 1.7759,-0.2152 3.6589,-0.2411 5.4292,-0.4812 2.0609,-0.2796 4.3681,-0.3716 6.5493,-0.728 0.4432,-0.0724 0.6896,-0.2459 1.1456,-0.2935 0.5999,-0.0625 3.6231,-0.3253 3.9668,-0.4252 0.5753,-0.1672 0.4338,-0.2766 1.2106,-0.3167 1.4621,-0.0754 0.8468,-0.2564 1.7552,-0.4225 0.2173,-0.0398 0.4876,-0.0293 0.6696,-0.0781 0.3972,-0.1065 0.0183,-0.0541 0.4596,-0.2425 0.5818,-0.2485 1.2829,-0.2657 1.8659,-0.4838 0.0281,-0.0106 0.06,-0.024 0.0887,-0.0343 0.5691,-0.2035 1.0494,-0.3692 1.5792,-0.4447 0.8074,-0.115 0.1773,-0.1974 0.99,-0.3748 0.5591,-0.122 0.9524,-0.3722 1.4725,-0.6882 0.424,-0.2576 0.6049,-0.1628 1.0089,-0.4667 0.5024,-0.3778 0.4236,-0.2588 0.9771,-0.5424 0.7498,-0.3842 1.0508,-0.7894 1.5482,-1.3699 0.1215,-0.142 0.5607,-1.5181 0.5865,-1.625 0.0839,-0.3481 0.0178,-0.3198 -0.0522,-0.5448l-0.6231 -1.4868c-0.2909,-0.4567 -0.7746,-0.6514 -1.1755,-1.0191 -0.4939,-0.4528 -0.1333,-0.3405 -0.7759,-0.6813l-1.6891 -0.9407c-1.7204,-1.0983 -2.1715,-1.0783 -3.0993,-1.5938 -0.7246,-0.4026 -2.174,-0.9788 -3.0898,-1.3416l-2.1782 -0.784c-0.5271,-0.274 -1.2095,-0.1982 -1.6651,-0.4487 -0.7406,-0.407 -2.5478,-0.8426 -3.4472,-1.0159l-4.5899 -1.2995c-0.5017,-0.1519 -1.8799,-0.659 -1.9242,0.224 -0.0111,0.2212 0.0295,0.2397 0.0573,0.5166 0.1217,1.2093 0.0105,2.4592 -0.0162,3.6698 -0.9033,0.1077 -2.1222,0.2153 -2.8689,0.5629 -0.9149,0.4259 -3.971,0.2667 -4.9982,0.6835 -0.8301,0.3368 -1.8964,0.1538 -2.8046,0.2607 -1.4059,0.1655 -2.1595,0.3002 -3.7387,0.3462 -1.3761,0.0402 -2.6691,0.0368 -3.922,0.1943 -1.209,0.152 -2.4754,0.2061 -3.8564,0.2271 -4.1144,0.0626 -8.2366,0.031 -12.3505,-0.0222 -1.3337,-0.0172 -2.4184,-0.3177 -3.6953,-0.3421 -1.5495,-0.0296 -2.9647,0.029 -4.3486,-0.2822 -0.1662,-0.0374 -0.2696,-0.0351 -0.4349,-0.0643l-1.7691 -0.1878c-0.7567,-0.0791 -0.1955,-0.0827 -0.8238,-0.2557 -0.4352,-0.1199 -1.2403,-0.1388 -1.7488,-0.2286l-2.7383 -0.3826c-0.35,-0.1592 0.174,-0.1357 -0.7183,-0.2612 -0.343,-0.0482 -0.4998,-0.0401 -0.8529,-0.1299 -0.3324,-0.0847 -0.4796,-0.2108 -0.7992,-0.2808l-4.564 -1.0291c-0.0289,-0.0105 -0.0585,-0.0269 -0.0867,-0.0381l-1.1814 -0.3203c-0.3689,-0.1218 -0.1785,-0.2261 -0.723,-0.2746l-0.6582 -0.2113c-4.7964,-2.7081 -10.2162,-4.374 -12.6292,-7.5668 -2.978,0.0426 -1.5375,0.0251 -3.9626,0.3329 -0.6186,0.0785 -1.3769,0.0694 -1.9822,0.1276l-3.6403 0.5787c-0.7039,0.1916 -1.1063,0.0857 -1.8311,0.3722 -0.0266,0.0105 -0.0566,0.0277 -0.0833,0.038l-0.1732 0.0687c-0.0312,0.0091 -0.0623,0.0189 -0.0954,0.0263 -0.1476,0.0333 -0.3052,0.0377 -0.4562,0.0474 -0.7276,0.0469 -0.6558,-0.0058 -1.2574,0.2239 -0.0277,0.0106 -0.0573,0.0269 -0.0854,0.037 -0.1823,0.0656 -0.1426,0.067 -0.3951,0.1051 -2.1281,0.3211 -0.2453,0.3649 -1.5872,0.4614 -1.8365,0.1321 -0.6585,0.0365 -1.8151,0.331 -0.3202,0.0815 -0.5371,0.0584 -0.8698,0.141 -0.2193,0.0544 -0.5961,0.2693 -0.7525,0.3191 -0.3177,0.101 -0.4854,0.051 -0.8372,0.1753 -0.5586,0.1975 -0.9533,0.3159 -1.4937,0.6049l-2.2478 0.9581c-0.3063,0.1204 -2.0511,1.201 -2.447,1.7448 -0.3841,0.5276 0.0567,0.3231 -0.5691,0.4992z"/>
  <path class="fil1" d="M58.0028 138.277c1.2929,-0.1608 29.899,-0.0751 34.4947,-0.0024 2.3739,0.0376 1.0724,0.112 2.1726,0.2314 -0.275,-0.4565 0.0656,-0.0609 -0.4495,-0.3907 -0.7444,-0.4766 -0.6398,-0.3481 -1.3029,-1.0242 -0.1189,-0.1212 -0.0804,-0.0739 -0.185,-0.1878 -0.1463,-0.1595 -0.1356,-0.1343 -0.2714,-0.349 -0.1738,-0.275 -0.315,-0.5333 -0.4759,-0.7568 -0.3638,-0.5053 -0.6829,-1.0979 -0.9355,-1.6488 -0.202,-0.4401 -0.7676,-1.2512 -0.712,-1.8138l-0.4323 -0.1177c-0.226,-0.8953 -0.1992,-1.1699 -0.5257,-1.706 -0.5167,-0.8485 -0.195,-2.3346 -0.6318,-3.1991 -0.383,-0.7581 -0.0351,-1.9359 -0.3484,-2.741 -0.4519,-1.1612 -0.2619,-1.2947 -0.3045,-2.8246 -1.854,0.3039 -1.2341,0.5015 -2.7191,0.9211 -0.3339,0.0943 -0.3445,0.1238 -0.6073,0.2293 -0.4306,0.1727 -1.4585,0.5432 -1.9042,0.5838 -0.5148,0.047 -0.326,-0.0018 -0.7545,0.2112 -0.3019,0.1502 -0.269,0.1506 -0.5933,0.1858 -2.7386,0.2971 -0.7805,0.3395 -4.5763,0.3976 -2.7478,0.0421 -3.8048,0.0509 -6.3469,-0.4553l-2.5645 -0.745c-1.3123,-0.2797 -0.0275,-0.2076 -1.215,-0.4649 -0.516,-0.1118 -0.2443,0.0469 -0.6764,-0.2204 -0.0439,-0.0271 -0.199,-0.1471 -0.2246,-0.1675 -0.1489,-0.1188 -0.1295,-0.0997 -0.2422,-0.2121 -1.2877,0.0926 -2.0819,-2.0913 -2.3254,0.6819 -0.1186,1.3507 -0.1251,2.8348 -0.434,3.7654 -0.1982,0.5975 -0.0638,0.8419 -0.1088,1.4214 -0.0647,0.8317 -0.1926,0.0969 -0.4026,0.888 -0.1274,0.4803 0.0085,0.6898 -0.1796,1.1843 -0.2299,0.6042 -0.1746,0.3669 -0.2842,1.1112l-0.9357 2.6141c-0.6337,1.1818 -0.1245,0.6206 -0.5538,1.4353 -0.1303,0.2474 0.0197,-0.0629 -0.1269,0.2513 -0.4029,0.8635 -1.3224,1.8348 -2.0314,2.5077 -0.2575,0.2443 -0.0859,-0.2556 -0.2857,0.4063z"/>
  <path class="fil0" d="M64.1562 99.8478c-0.4332,0.4642 0.0201,2.3959 0.1918,3.0675 0.0978,0.3826 0.1935,0.3781 0.3611,0.8713 0.6995,2.0583 2.5818,3.2561 4.2577,4.1654 0.3721,0.202 -0.0382,0.0215 0.4207,0.1998l3.0557 1.1083c0.5967,0.2051 5.0964,0.1485 5.8589,0.1362 0.6489,-0.0105 2.5455,-0.3837 3.026,-0.5774 1.0467,-0.4219 0.5872,0.0942 1.888,-0.5823l1.5873 -0.7882c0.4497,-0.2128 0.4476,-0.1861 0.8205,-0.4177 0.022,-0.0136 0.0539,-0.0321 0.0759,-0.0458l0.2921 -0.1867 1.4053 -1.5468c0.7928,-1.0678 0.8413,-1.4064 0.8272,-2.6975 -0.0042,-0.3919 0.0658,-0.6199 -0.1592,-0.8803 -0.626,-0.7245 -1.1851,0.2939 -1.7964,0.9569 -0.0574,0.0623 -0.1659,0.1859 -0.1771,0.1974 -0.4174,0.4273 -1.6234,1.1943 -2.2054,1.3966 -1.2284,0.4269 -0.2197,0.1414 -1.3852,0.6849 -0.3541,0.1651 -1.8509,0.5543 -2.1193,0.6021 -0.3799,0.0678 -0.7656,0.0537 -1.1542,0.1142 -2.0074,0.3125 -2.3257,0.4487 -4.5125,0.2769 -0.9491,-0.0745 -2.8825,-0.5445 -3.9266,-0.7658 -0.5617,-0.119 -0.3402,-0.2131 -0.8437,-0.3864 -0.457,-0.1572 -0.5083,-0.018 -0.9347,-0.3086 -0.3156,-0.215 -0.3219,-0.3066 -0.6411,-0.4614 -0.4682,-0.2271 -0.3905,-0.1643 -0.8217,-0.4371 -1.0509,-0.6648 -1.1148,-1.3152 -1.731,-1.8137 -1.0217,-0.8267 -0.6369,-1.7767 -1.1527,-2.0007 -0.5689,-0.247 -0.4653,0.0738 -0.5074,0.1189z"/>
  <path class="fil0" d="M59.2737 83.3032c0,2.1908 0.1695,2.3939 0.9172,4.0166 0.3891,0.8443 1.3741,1.5483 1.849,1.7525 0.6993,0.3006 2.2132,0.1346 2.968,-0.5417 0.48,-0.4302 1.1551,-1.5304 1.3974,-2.2131 0.142,-0.3999 0.1073,-0.5182 0.2919,-0.927 0.3762,-0.8332 0.3054,-3.509 0.0467,-4.377 -0.3053,-1.024 -0.2901,-0.7052 -0.5456,-1.1617 -0.5795,-1.035 -0.5087,-1.5312 -1.9874,-2.225 -0.4801,-0.2253 -1.6131,-0.274 -2.1489,-0.0661 -0.4006,0.1554 -1.1579,0.691 -1.458,1.0078 -0.1851,0.1954 -0.735,1.2921 -0.818,1.5355 -0.2099,0.616 0.0468,0.1448 -0.3346,0.885 -0.2822,0.5478 -0.1777,1.6871 -0.1777,2.3142z"/>
  <path class="fil0" d="M85.2282 83.3032c0,2.3047 0.2722,2.468 0.8616,3.9444 0.1436,0.3597 0.0246,0.1209 0.1648,0.3263l0.8185 0.9065c0.9909,0.894 2.4537,0.8486 3.4539,0.1449 0.4011,-0.2821 0.8146,-0.732 1.1342,-1.2185 1.3798,-2.0999 1.372,-5.5622 0.1585,-7.8851 -0.6914,-1.3234 -0.0319,-0.3958 -1.3424,-1.4829 -0.5378,-0.446 -0.6904,-0.4655 -1.4353,-0.4745 -0.841,-0.0101 -1.307,0.1564 -1.8759,0.5359 -1.476,0.9845 -1.9379,3.3319 -1.9379,5.203z"/>
  <path class="fil3" d="M85.1647 121.664c-0.9494,0.0755 -1.0757,0.4619 -2.2003,0.7578 -0.8398,0.221 -1.3908,0.4827 -2.2075,0.6127 -4.1309,0.6578 -6.4794,0.5682 -10.3506,-0.1442 -0.4873,-0.0897 -0.5515,-0.2206 -1.1306,-0.3589 -0.72,-0.1719 -0.4778,-0.2414 -0.9088,-0.3987 -0.3933,-0.1434 -0.7487,-0.2116 -1.0562,-0.3387 -0.4757,-0.1966 -0.5485,-0.3101 -1.0242,-0.3941 0.1218,0.4414 -0.2494,0.1796 0.8099,0.6316 0.2918,0.1246 0.7001,0.2795 0.8947,0.4997l-1.3172 -0.2347c-0.5565,-0.262 -0.0987,-0.3518 -1.003,-0.2869 0.1127,0.1124 0.0933,0.0933 0.2422,0.2121 0.0256,0.0204 0.1807,0.1404 0.2246,0.1675 0.4321,0.2673 0.1604,0.1086 0.6764,0.2204 1.1875,0.2573 -0.0973,0.1852 1.215,0.4649l2.5645 0.745c2.5421,0.5062 3.5991,0.4974 6.3469,0.4553 3.7958,-0.0581 1.8377,-0.1005 4.5763,-0.3976 0.3243,-0.0352 0.2914,-0.0356 0.5933,-0.1858 0.4285,-0.213 0.2397,-0.1642 0.7545,-0.2112 0.4457,-0.0406 1.4736,-0.4111 1.9042,-0.5838 0.2628,-0.1055 0.2734,-0.135 0.6073,-0.2293 1.485,-0.4196 0.8651,-0.6172 2.7191,-0.9211 0.0426,1.5299 -0.1474,1.6634 0.3045,2.8246 0.3133,0.8051 -0.0346,1.9829 0.3484,2.741 0.4368,0.8645 0.1151,2.3506 0.6318,3.1991 0.3265,0.5361 0.2997,0.8107 0.5257,1.706l0.4323 0.1177c0.0765,-0.6741 -0.1743,-0.6408 -0.3355,-1.4705 -0.0492,-0.253 0.0363,-0.156 -0.2005,-0.5297 -0.5349,-0.8443 -0.0979,-0.6413 -0.3369,-1.3487l-0.0926 -0.1867c-0.5092,-0.9752 -0.0533,-0.8258 -0.2627,-1.7914 -0.1348,-0.6215 -0.3156,-0.4711 -0.3227,-1.225 -0.0048,-0.5058 0.0086,-1.1055 -0.0917,-1.6008 -0.1031,-0.5096 -0.3131,-0.6467 -0.3539,-1.3642 -0.0284,-0.4997 0.0131,-1.009 -0.0201,-1.5245 -1.3959,0.1307 -0.3312,-0.0027 -1.5672,0.4006 -0.7179,0.2343 0.2562,-0.2115 -0.2673,0.1422l-0.1302 0.1033c-0.0231,0.0147 -0.0543,0.0347 -0.0791,0.0491 -1.2424,0.7184 -2.4152,0.7983 -3.1226,1.1113l-0.1819 0.0817c-0.1689,0.0515 -0.0229,0.0829 -0.7914,0.0589l0.2136 -0.2647c0.4482,-0.4084 0.605,-0.1081 1.362,-0.512 0.6798,-0.3628 1.1362,-0.0762 1.4075,-0.7993z"/>
 </g>
</svg>
