<?xml version="1.0" encoding="UTF-8"?>
<!DOCTYPE svg PUBLIC "-//W3C//DTD SVG 1.1//EN" "http://www.w3.org/Graphics/SVG/1.1/DTD/svg11.dtd">
<!-- Creator: CorelDRAW -->
<svg xmlns="http://www.w3.org/2000/svg" xml:space="preserve" width="150mm" height="150mm" style="shape-rendering:geometricPrecision; text-rendering:geometricPrecision; image-rendering:optimizeQuality; fill-rule:evenodd; clip-rule:evenodd"
viewBox="0 0 150 150"
 xmlns:xlink="http://www.w3.org/1999/xlink">
 <defs>
  <style type="text/css">
   <![CDATA[
    .fil0 {fill:#FE0906}
    .fil2 {fill:#FEFE01}
    .fil1 {fill:#FFDA19}
   ]]>
  </style>
 </defs>
 <g id="Capa_x0020_1">
  <metadata id="CorelCorpID_0Corel-Layer"/>
  <g id="_650502768">
   <polygon id="_650501904" class="fil0" points="-0,150 150,150 150,0 -0,0 "/>
   <path id="_650502600" class="fil1" d="M5.3739 144.515c0.896,0.2756 32.9309,0.106 34.7616,0.106 34.8093,0 69.6598,0.0621 104.467,-0.0211 0.2196,-5.6657 0.0179,-11.7502 0.0179,-17.4621l-0.1034 -121.764 -139.142 0.0382 -0.0004 139.103z"/>
   <path id="_650502288" class="fil2" d="M5.6423 5.604l-0.0667 1.0006 0 137.172c0,0.9642 0.6205,0.6844 1.5366,0.676 10.7271,-0.0978 21.8998,-0.0005 32.6423,-0.0005 34.8086,0 69.7551,0.1446 104.552,-0.145 0.3347,-0.6242 0.1442,-63.3272 0.1442,-69.6245l0.0001 -67.443 -0.674 -1.6647 -138.134 0.0292z"/>
   <path id="_650502240" class="fil0" d="M95.5531 22.2001c-4.2682,0.4045 -8.0429,1.4511 -11.4933,3.0571 -1.554,0.7233 -3.1448,1.8317 -4.4363,2.8 -5.8429,4.3804 -3.2095,5.9694 -7.6704,1.597 -1.8311,-1.7947 -1.7641,-1.7272 -4.1616,-3.0752 -3.1057,-1.7461 -6.7287,-3.1211 -10.7445,-3.8608 -17.6653,-3.2542 -32.7492,8.1265 -37.3898,19.675 -4.6796,11.6454 -3.8401,23.8223 3.6283,34.0205 2.1423,2.9254 4.6787,5.1706 7.0277,7.5851l35.9208 36.728c1.7635,1.799 5.4259,5.4931 7.4522,7.0261 1.2689,0.96 1.4029,0.6221 3.9755,-1.9537 1.2259,-1.2275 2.2775,-2.0799 3.6928,-3.5471 3.5012,-3.6294 7.447,-7.4086 10.9186,-10.9281l17.9048 -18.291c2.3505,-2.3844 4.8371,-5.0621 7.1745,-7.4329 5.2672,-5.3424 9.4019,-8.5149 12.6802,-16.2817 10.3281,-24.4689 -10.9134,-49.352 -34.4795,-47.1183z"/>
   <path id="_650502408" class="fil2" d="M49.9098 84.416l6.978 -0.0026 0.0145 -14.5759c2.0913,-0.0804 2.514,0.6941 3.1491,2.33 1.0691,2.7538 3.0421,9.0134 4.1553,12.2552l7.8712 -0.0243c-0.1486,-0.9932 -1.0022,-3.1359 -1.3531,-4.2324 -0.6231,-1.947 -2.8241,-9.1799 -4.1073,-10.3745l-1.6756 -1.233c0.5337,-0.3605 1.2037,-0.589 1.7546,-0.9728 0.6191,-0.4315 0.9974,-0.8324 1.4469,-1.4769 2.7421,-3.9313 2.7091,-9.7792 0.9162,-13.8747 -1.3562,-3.0979 -3.4591,-3.8629 -7.5863,-3.8764l-11.5652 0.0296 0.0017 36.0287z"/>
   <path id="_650502336" class="fil2" d="M88.9397 60.9331l-7.6059 -0.0419 -0.03 -12.519 -6.9546 0.0646 0.0302 35.9857 6.8787 -0.0039c0.1767,-0.8716 0.1146,-12.6073 0.1303,-14.6081l7.456 -0.0077c0.2051,0.6193 0.1232,12.8797 0.13,14.6205l6.8907 -0.0051 -0.0367 -36.082 -6.8765 0.0202 -0.0122 12.5767z"/>
   <path id="_650502744" class="fil2" d="M101.257 63.8435c-0.1917,0.3808 -0.619,0.2892 -1.4267,0.2939l-1.5247 0.0025 0.0006 2.9178c0.7125,0.3909 1.3903,-0.2 3.1628,0.2683l0.0125 3.7418c2.5617,-0.0189 2.301,0.4787 2.2617,-1.9738 -0.0177,-1.1055 -0.0502,-0.9439 0.1515,-1.9284l2.9502 -0.1032 -0.0283 -2.9225c-0.5659,-0.1077 -2.2773,0.0706 -2.5473,-0.0065 -0.4192,-0.1199 -0.1946,0.0214 -0.3956,-0.2885l-0.0026 -4.0231 -2.6436 0.0171 0.0295 4.0046z"/>
   <path id="_650503344" class="fil0" d="M56.8941 62.9601c3.4587,0.1119 6.3759,0.1357 6.4077,-3.6444 0.035,-4.14 -2.6928,-3.8587 -6.4115,-3.7003l0.0038 7.3447z"/>
   <path id="_650502840" class="fil1" d="M103.874 63.8449c0.201,0.3099 -0.0236,0.1686 0.3956,0.2885 0.27,0.0771 1.9814,-0.1012 2.5473,0.0065l0.0283 2.9225 -2.9502 0.1032c-0.2017,0.9845 -0.1692,0.8229 -0.1515,1.9284 0.0393,2.4525 0.3,1.9549 -2.2617,1.9738l-0.0125 -3.7418c-1.7725,-0.4683 -2.4503,0.1226 -3.1628,-0.2683l-0.0006 -2.9178 1.5247 -0.0025c0.8077,-0.0047 1.235,0.0869 1.4267,-0.2939l-3.2233 0.0268 0.012 3.463 3.1473 0.0287 0.0304 4.0391 2.6888 -0.0162 0.0123 -4.045 3.1655 -0.0261 -0.021 -3.4446 -3.1953 -0.0243z"/>
  </g>
 </g>
</svg>
