<?xml version="1.0" encoding="UTF-8"?>
<!DOCTYPE svg PUBLIC "-//W3C//DTD SVG 1.1//EN" "http://www.w3.org/Graphics/SVG/1.1/DTD/svg11.dtd">
<!-- Creator: CorelDRAW -->
<svg xmlns="http://www.w3.org/2000/svg" xml:space="preserve" width="200mm" height="200mm" style="shape-rendering:geometricPrecision; text-rendering:geometricPrecision; image-rendering:optimizeQuality; fill-rule:evenodd; clip-rule:evenodd"
viewBox="0 0 200 200"
 xmlns:xlink="http://www.w3.org/1999/xlink">
 <defs>
  <style type="text/css">
   <![CDATA[
    .str0 {stroke:#373435;stroke-width:0.2}
    .str2 {stroke:#FB1F1E;stroke-width:0.2}
    .str1 {stroke:#E94F40;stroke-width:0.2}
    .fil0 {fill:none}
    .fil1 {fill:#6B809B}
    .fil2 {fill:#FB1F1E}
    .fil3 {fill:black;fill-rule:nonzero}
   ]]>
  </style>
 </defs>
 <g id="Capa_x0020_1">
  <metadata id="CorelCorpID_0Corel-Layer"/>
  <path class="fil0 str0" d="M182.278 13.5841c-2.4265,-0.3859 -4.8529,-0.7718 -7.2793,-1.1578l-7.802 -0.4297c-3.0631,0.0995 -5.2053,1.3116 -6.1516,3.9687l-6.4824 37.7692 -19.6125 2.8443 5.8204 -31.4856c0.583,-3.6083 -0.7817,-5.7183 -3.6381,-6.6808 -5.0308,-1.2711 -10.4253,-1.8155 -16.0734,-1.852 -2.3879,0.0699 -4.0945,1.2752 -5.0271,3.7703l-8.2765 39.0508 -4.101 0.7276c-1.3199,0.1709 -2.3923,1.0329 -3.2746,2.436l-1.274 3.2766c-1.1573,2.2895 -1.7757,8.6946 -1.5863,13.2217 0.2271,3.0259 2.1323,4.5809 6.2839,4.1672l-3.7704 29.435c-0.0423,2.7803 1.0125,4.3633 2.9105,5.0271 2.6285,1.4072 7.8004,1.5915 15.0151,0.7938 3.6119,-0.2267 6.2437,-1.5153 7.7391,-4.035l5.6886 -34.2636 19.513 -2.3813 -5.5631 28.4442 -0.0663 2.8774c0.578,2.9802 3.2985,4.526 7.316,5.1249 4.0356,0.3367 7.4714,0.3127 10.5173,-0.0331 4.634,-0.3259 7.8784,-2.1877 9.1612,-6.2177l14.5522 -89.7605c-0.0851,-2.1248 -1.1897,-3.8362 -4.5387,-4.6377z"/>
  <path class="fil0 str0" d="M50.428 86.1328l-0.0011 0.0059c0.8103,-3.9837 1.7465,-7.944 2.4309,-11.951 0.2037,-1.1931 0.4866,-2.5718 1.501,-3.1224l2.5984 -1.4103c2.4569,-1.3335 22.162,-3.7743 33.4018,-5.2386 3.1684,-0.561 4.8571,0.0726 5.2922,1.7177l0.196 1.4002 -0.2609 1.6425 -2.839 12.7014c-0.4387,1.6735 -1.4337,2.6268 -2.8431,3.0438l-2.5133 0.3318c-0.3548,1.8662 -0.69,3.7361 -1.0644,5.5981 -0.5093,2.5328 -1.6172,5.9818 -3.3604,10.1467 -1.2752,2.8183 -2.8661,5.6056 -5.0238,8.3363 -2.458,3.4412 -5.6504,6.3145 -9.5214,9.132 -5.6399,4.1052 -11.7351,6.9003 -18.7162,7.6804 -3.6158,0.3674 -7.2319,0.2321 -10.8481,-0.4588 -4.1651,-0.8523 -7.2501,-2.0511 -9.2003,-3.597 -1.3351,-0.9711 -2.4347,-1.9466 -3.4902,-2.6931 -1.1205,-0.7924 -2.0912,-1.6455 -2.5265,-2.2367l-0.0043 -0.0056c-0.7618,-0.9764 -1.6393,-1.837 -2.2853,-2.9291l-0.6294 -1.2467 -2.699 -7.2225c-0.8158,-2.8001 -1.4804,-5.4241 -1.8521,-8.2021l-0.4219 -3.1521c-0.1197,-1.867 -0.2048,-3.7209 -0.1403,-5.6122l0.1984 -5.8209c0.0805,-1.1504 0.161,-2.301 0.2414,-3.4515 0.3302,-2.2092 0.4166,-4.4687 0.9906,-6.6274l2.5399 -9.5524c1.0411,-3.9156 2.8964,-7.5097 4.6322,-11.1359 1.3536,-2.8278 3.2741,-5.4617 5.5197,-8.1927l5.2092 -6.5319c2.2934,-2.8757 4.9668,-4.6629 7.3422,-6.2839 2.4213,-1.6524 4.7532,-3.2752 7.4084,-4.4318 2.8867,-1.2573 5.6512,-2.3725 8.4666,-3.175 2.4102,-0.6869 4.8092,-0.9405 7.21,-1.0583 2.3855,-0.1171 4.7625,-0.2112 7.1437,0 3.4268,0.5883 5.7947,1.607 7.6068,2.3813 2.2101,0.9443 4.066,2.0147 5.8209,3.3073 1.5246,1.1231 2.9874,2.5603 4.3656,4.1672 0.941,1.0973 1.6334,2.2368 2.1167,3.3073 0.6058,1.3417 1.1164,3.0205 1.3891,5.1594 0.2283,1.7903 0.379,3.5719 0.1987,5.3577 -0.1253,1.791 -0.8002,3.1718 -1.8521,4.2995 -0.9903,1.0616 -2.0644,1.8681 -3.3071,2.4805 -2.6426,1.3025 -4.7903,2.0757 -6.9111,2.7126 -5.2798,1.5855 -5.8186,1.5577 -8.7962,1.9679 -2.3019,0.3172 -3.6335,0.2153 -4.4312,-0.1404 -0.8908,-0.3972 -1.4476,-0.9627 -1.7216,-1.6621 -0.2544,-0.6495 -0.25,-1.2501 -0.2646,-1.8852 -0.0332,-1.4397 0.9784,-2.9703 0.3638,-4.2995 -0.8925,-1.9303 -2.7536,-2.7 -4.5678,-3.3861 -1.2118,-0.1674 -2.3652,-0.15 -3.4447,0.1014 -1.4,0.214 -2.4997,0.8458 -3.4639,1.7136 -1.3644,1.228 -1.9293,1.7198 -2.8939,2.5797 -1.2475,1.1751 -1.9159,2.6175 -2.5797,4.068 -1.6562,3.619 -1.295,2.9705 -1.4969,3.6059l-1.8769 5.9035 -1.9182 7.276 -0.9261 4.6302 -1.2569 8.4006 -0.5953 3.9687 -0.2646 3.8365c0.0055,1.221 0.011,2.4419 0.0165,3.6628 0.2158,1.1988 0.5209,2.3472 0.9094,3.448 0.8127,1.3182 2.0535,2.1547 3.5718,2.6789l1.2898 0.3969 3.175 0c1.2403,-0.1829 2.3538,-0.7211 3.3735,-1.5214l2.8112 -2.712 1.7198 -3.2907c0.2116,-0.6546 0.6199,-1.3165 0.6284,-1.9679l0.0331 -2.5466 -0.0698 -0.1612c-0.9162,0.1888 -1.8349,0.3667 -2.7487,0.5663 -1.2535,0.2738 -2.4311,0.4096 -3.5058,0.2976 -1.1574,0.0367 -2.1967,-0.209 -2.5466,-1.1245 -0.1531,-0.4004 -0.1887,-0.8189 -0.1654,-1.2898l0.1323 -2.6789 0.0011 -0.0059z"/>
  <path class="fil1 str1" d="M46.7635 64.2692l1.8769 -5.9035c0.2019,-0.6354 -0.1593,0.0131 1.4969,-3.6059 0.6638,-1.4505 1.3322,-2.8929 2.5797,-4.068 0.9646,-0.8599 1.5295,-1.3517 2.8939,-2.5797 0.9642,-0.8678 2.0639,-1.4996 3.4639,-1.7136 1.0795,-0.2514 2.2329,-0.2688 3.4447,-0.1014 1.8142,0.6861 3.6753,1.4558 4.5678,3.3861 0.6146,1.3292 -0.397,2.8598 -0.3638,4.2995 0.0146,0.6351 0.0102,1.2357 0.2646,1.8852 0.274,0.6994 0.8308,1.2649 1.7216,1.6621 0.7977,0.3557 2.1293,0.4576 4.4312,0.1404 2.9776,-0.4102 3.5164,-0.3824 8.7962,-1.9679 2.1208,-0.6369 4.2685,-1.4101 6.9111,-2.7126 1.2427,-0.6124 2.3168,-1.4189 3.3071,-2.4805 1.0519,-1.1277 1.7268,-2.5085 1.8521,-4.2995 0.1803,-1.7858 0.0296,-3.5674 -0.1987,-5.3577 -0.2727,-2.1389 -0.7833,-3.8177 -1.3891,-5.1594 -0.4833,-1.0705 -1.1757,-2.21 -2.1167,-3.3073 -1.3782,-1.6069 -2.841,-3.0441 -4.3656,-4.1672 -1.7549,-1.2926 -3.6108,-2.363 -5.8209,-3.3073 -1.8121,-0.7743 -4.18,-1.793 -7.6068,-2.3813 -2.3812,-0.2112 -4.7582,-0.1171 -7.1437,0 -2.4008,0.1178 -4.7998,0.3714 -7.21,1.0583 -2.8154,0.8025 -5.5799,1.9177 -8.4666,3.175 -2.6552,1.1566 -4.9871,2.7794 -7.4084,4.4318 -2.3754,1.621 -5.0488,3.4082 -7.3422,6.2839l-5.2092 6.5319c-2.2456,2.731 -4.1661,5.3649 -5.5197,8.1927 -1.7358,3.6262 -3.5911,7.2203 -4.6322,11.1359l-2.5399 9.5524c-0.574,2.1587 -0.6604,4.4182 -0.9906,6.6274l-0.2414 3.4515 -0.1984 5.8209c-0.0645,1.8913 0.0206,3.7452 0.1403,5.6122l0.4219 3.1521c0.3717,2.778 1.0363,5.402 1.8521,8.2021l2.699 7.2225 0.6294 1.2467c0.646,1.0921 1.5235,1.9527 2.2853,2.9291l0.0043 0.0056c0.4353,0.5912 1.406,1.4443 2.5265,2.2367 1.0555,0.7465 2.1551,1.722 3.4902,2.6931 1.9502,1.5459 5.0352,2.7447 9.2003,3.597 3.6162,0.6909 7.2323,0.8262 10.8481,0.4588 6.9811,-0.7801 13.0763,-3.5752 18.7162,-7.6804 3.871,-2.8175 7.0634,-5.6908 9.5214,-9.132 2.1577,-2.7307 3.7486,-5.518 5.0238,-8.3363 1.7432,-4.1649 2.8511,-7.6139 3.3604,-10.1467 0.3744,-1.862 0.7096,-3.7319 1.0644,-5.5981l2.5133 -0.3318c1.4094,-0.417 2.4044,-1.3703 2.8431,-3.0438l2.839 -12.7014 0.2609 -1.6425 -0.196 -1.4002c-0.4351,-1.6451 -2.1238,-2.2787 -5.2922,-1.7177 -11.2398,1.4643 -30.9449,3.9051 -33.4018,5.2386l-2.5984 1.4103c-1.0144,0.5506 -1.2973,1.9293 -1.501,3.1224 -0.6841,4.005 -1.6197,7.9634 -2.4298,11.9451 -0.0003,0.002 -0.0007,0.0039 -0.0011,0.0059l-0.1323 2.6789c-0.0233,0.4709 0.0123,0.8894 0.1654,1.2898 0.3499,0.9155 1.3892,1.1612 2.5466,1.1245 1.0747,0.112 2.2523,-0.0238 3.5058,-0.2976 0.9138,-0.1996 1.8325,-0.3775 2.7487,-0.5663l0.0698 0.1612 -0.0331 2.5466c-0.0085,0.6514 -0.4168,1.3133 -0.6284,1.9679l-1.7198 3.2907 -2.8112 2.712c-1.0197,0.8003 -2.1332,1.3385 -3.3735,1.5214l-3.175 0 -1.2898 -0.3969c-1.5183,-0.5242 -2.7591,-1.3607 -3.5718,-2.6789 -0.3885,-1.1008 -0.6936,-2.2492 -0.9094,-3.448l-0.0165 -3.6628 0.2646 -3.8365 0.5953 -3.9687 1.2569 -8.4006 0.9261 -4.6302 1.9182 -7.276z"/>
  <path class="fil2 str2" d="M46.7635 64.2692l1.8769 -5.9035c0.2019,-0.6354 -0.1593,0.0131 1.4969,-3.6059 0.6638,-1.4505 1.3322,-2.8929 2.5797,-4.068 0.9646,-0.8599 1.5295,-1.3517 2.8939,-2.5797 0.9642,-0.8678 2.0639,-1.4996 3.4639,-1.7136 1.0795,-0.2514 2.2329,-0.2688 3.4447,-0.1014 1.8142,0.6861 3.6753,1.4558 4.5678,3.3861 0.6146,1.3292 -0.397,2.8598 -0.3638,4.2995 0.0146,0.6351 0.0102,1.2357 0.2646,1.8852 0.274,0.6994 0.8308,1.2649 1.7216,1.6621 0.7977,0.3557 2.1293,0.4576 4.4312,0.1404 2.9776,-0.4102 3.5164,-0.3824 8.7962,-1.9679 2.1208,-0.6369 4.2685,-1.4101 6.9111,-2.7126 1.2427,-0.6124 2.3168,-1.4189 3.3071,-2.4805 1.0519,-1.1277 1.7268,-2.5085 1.8521,-4.2995 0.1803,-1.7858 0.0296,-3.5674 -0.1987,-5.3577 -0.2727,-2.1389 -0.7833,-3.8177 -1.3891,-5.1594 -0.4833,-1.0705 -1.1757,-2.21 -2.1167,-3.3073 -1.3782,-1.6069 -2.841,-3.0441 -4.3656,-4.1672 -1.7549,-1.2926 -3.6108,-2.363 -5.8209,-3.3073 -1.8121,-0.7743 -4.18,-1.793 -7.6068,-2.3813 -2.3812,-0.2112 -4.7582,-0.1171 -7.1437,0 -2.4008,0.1178 -4.7998,0.3714 -7.21,1.0583 -2.8154,0.8025 -5.5799,1.9177 -8.4666,3.175 -2.6552,1.1566 -4.9871,2.7794 -7.4084,4.4318 -2.3754,1.621 -5.0488,3.4082 -7.3422,6.2839l-5.2092 6.5319c-2.2456,2.731 -4.1661,5.3649 -5.5197,8.1927 -1.7358,3.6262 -3.5911,7.2203 -4.6322,11.1359l-2.5399 9.5524c-0.574,2.1587 -0.6604,4.4182 -0.9906,6.6274l-0.2414 3.4515 -0.1984 5.8209c-0.0645,1.8913 0.0206,3.7452 0.1403,5.6122l0.4219 3.1521c0.3717,2.778 1.0363,5.402 1.8521,8.2021l2.699 7.2225 0.6294 1.2467c0.646,1.0921 1.5235,1.9527 2.2853,2.9291l0.0043 0.0056c0.4353,0.5912 1.406,1.4443 2.5265,2.2367 1.0555,0.7465 2.1551,1.722 3.4902,2.6931 1.9502,1.5459 5.0352,2.7447 9.2003,3.597 3.6162,0.6909 7.2323,0.8262 10.8481,0.4588 6.9811,-0.7801 13.0763,-3.5752 18.7162,-7.6804 3.871,-2.8175 7.0634,-5.6908 9.5214,-9.132 2.1577,-2.7307 3.7486,-5.518 5.0238,-8.3363 1.7432,-4.1649 2.8511,-7.6139 3.3604,-10.1467 0.3744,-1.862 0.7096,-3.7319 1.0644,-5.5981l2.5133 -0.3318c1.4094,-0.417 2.4044,-1.3703 2.8431,-3.0438l2.839 -12.7014 0.2609 -1.6425 -0.196 -1.4002c-0.4351,-1.6451 -2.1238,-2.2787 -5.2922,-1.7177 -11.2398,1.4643 -30.9449,3.9051 -33.4018,5.2386l-2.5984 1.4103c-1.0144,0.5506 -1.2973,1.9293 -1.501,3.1224 -0.6841,4.005 -1.6197,7.9634 -2.4298,11.9451 -0.0003,0.002 -0.0007,0.0039 -0.0011,0.0059l-0.1323 2.6789c-0.0233,0.4709 0.0123,0.8894 0.1654,1.2898 0.3499,0.9155 1.3892,1.1612 2.5466,1.1245 1.0747,0.112 2.2523,-0.0238 3.5058,-0.2976 0.9138,-0.1996 1.8325,-0.3775 2.7487,-0.5663l0.0698 0.1612 -0.0331 2.5466c-0.0085,0.6514 -0.4168,1.3133 -0.6284,1.9679l-1.7198 3.2907 -2.8112 2.712c-1.0197,0.8003 -2.1332,1.3385 -3.3735,1.5214l-3.175 0 -1.2898 -0.3969c-1.5183,-0.5242 -2.7591,-1.3607 -3.5718,-2.6789 -0.3885,-1.1008 -0.6936,-2.2492 -0.9094,-3.448l-0.0165 -3.6628 0.2646 -3.8365 0.5953 -3.9687 1.2569 -8.4006 0.9261 -4.6302 1.9182 -7.276z"/>
  <path class="fil2 str2" d="M99.1061 65.8217c-1.1573,2.2895 -1.7757,8.6946 -1.5863,13.2217 0.2271,3.0259 2.1323,4.5809 6.2839,4.1672l-3.7704 29.435c-0.0423,2.7803 1.0125,4.3633 2.9105,5.0271 2.6285,1.4072 7.8004,1.5915 15.0151,0.7938 3.6119,-0.2267 6.2437,-1.5153 7.7391,-4.035l5.6886 -34.2636 19.513 -2.3813 -5.5631 28.4442 -0.0663 2.8774c0.578,2.9802 3.2985,4.526 7.316,5.1249 4.0356,0.3367 7.4714,0.3127 10.5173,-0.0331 4.634,-0.3259 7.8784,-2.1877 9.1612,-6.2177l14.5522 -89.7605c-0.0851,-2.1248 -1.1897,-3.8362 -4.5387,-4.6377l-7.2793 -1.1578 -7.802 -0.4297c-3.0631,0.0995 -5.2053,1.3116 -6.1516,3.9687l-6.4824 37.7692 -19.6125 2.8443 5.8204 -31.4856c0.583,-3.6083 -0.7817,-5.7183 -3.6381,-6.6808 -5.0308,-1.2711 -10.4253,-1.8155 -16.0734,-1.852 -2.3879,0.0699 -4.0945,1.2752 -5.0271,3.7703l-8.2765 39.0508 -4.101 0.7276c-1.3199,0.1709 -2.3923,1.0329 -3.2746,2.436l-1.274 3.2766z"/>
  <path class="fil3" d="M12.641 153.153l5.5695 -0.3484c0.1191,0.904 0.366,1.5919 0.7364,2.0682 0.5997,0.7673 1.464,1.1465 2.5841,1.1465 0.8334,0 1.4773,-0.194 1.9315,-0.5865 0.4498,-0.3924 0.6747,-0.8466 0.6747,-1.3626 0,-0.4895 -0.2117,-0.9304 -0.6439,-1.3185 -0.4321,-0.388 -1.4287,-0.7541 -2.9986,-1.098 -2.5664,-0.5777 -4.3965,-1.3406 -5.4901,-2.2975 -1.1024,-0.9569 -1.6536,-2.174 -1.6536,-3.6556 0,-0.9746 0.2822,-1.8962 0.8467,-2.7605 0.5644,-0.8643 1.4111,-1.5434 2.5444,-2.0417 1.1333,-0.4939 2.6855,-0.7408 4.6566,-0.7408 2.421,0 4.2686,0.4497 5.5386,1.3493 1.27,0.8996 2.0241,2.3328 2.2666,4.2951l-5.5165 0.3219c-0.1456,-0.8511 -0.4542,-1.4728 -0.9261,-1.8609 -0.4674,-0.3836 -1.1156,-0.5777 -1.9403,-0.5777 -0.6835,0 -1.195,0.1411 -1.5389,0.4322 -0.344,0.2866 -0.516,0.6394 -0.516,1.0539 0,0.2999 0.1411,0.5689 0.4234,0.8114 0.2778,0.2513 0.9304,0.4807 1.9667,0.6967 2.5576,0.5512 4.3877,1.1113 5.4945,1.6757 1.1068,0.5645 1.9138,1.2612 2.4165,2.099 0.5027,0.8335 0.7585,1.7683 0.7585,2.8046 0,1.2127 -0.3396,2.3328 -1.0098,3.3558 -0.6703,1.0275 -1.6096,1.8036 -2.8178,2.3328 -1.2039,0.5291 -2.7253,0.7937 -4.5597,0.7937 -3.2191,0 -5.4504,-0.6174 -6.6895,-1.8609 -1.2436,-1.2391 -1.9447,-2.8134 -2.1079,-4.7272zm35.0088 0.71l-10.5393 0c0.0926,0.8466 0.3219,1.4728 0.6835,1.8873 0.5072,0.5953 1.173,0.8908 1.9888,0.8908 0.516,0 1.0098,-0.1279 1.4729,-0.3881 0.2866,-0.1631 0.5909,-0.4498 0.9172,-0.8643l5.1814 0.4763c-0.7937,1.3802 -1.7462,2.368 -2.8663,2.9677 -1.1201,0.5953 -2.7252,0.8952 -4.8198,0.8952 -1.8168,0 -3.2456,-0.2558 -4.2907,-0.7673 -1.0407,-0.5115 -1.905,-1.3273 -2.5885,-2.443 -0.6835,-1.1157 -1.0274,-2.4253 -1.0274,-3.9335 0,-2.1431 0.6879,-3.8805 2.0593,-5.2034 1.3758,-1.3274 3.272,-1.9932 5.6929,-1.9932 1.9624,0 3.5146,0.2998 4.6479,0.8952 1.1377,0.5909 2.0064,1.4552 2.5973,2.5796 0.5953,1.1289 0.8908,2.5974 0.8908,4.4053l0 0.5954zm-5.3446 -2.518c-0.1059,-1.0186 -0.3793,-1.7462 -0.8202,-2.1828 -0.4454,-0.441 -1.0275,-0.6615 -1.7507,-0.6615 -0.8378,0 -1.5037,0.3352 -2.0064,0.9966 -0.3175,0.4146 -0.5203,1.0275 -0.6041,1.8477l5.1814 0zm7.7611 -5.6444l4.8992 0 0 2.2313c0.732,-0.9128 1.4728,-1.5611 2.2225,-1.9535 0.7496,-0.3925 1.6625,-0.5909 2.7384,-0.5909 1.4552,0 2.5929,0.4365 3.4176,1.3008 0.8202,0.8644 1.2303,2.2005 1.2303,4.0085l0 8.7224 -5.2829 0 0 -7.545c0,-0.8599 -0.1587,-1.4685 -0.4762,-1.8256 -0.3219,-0.3616 -0.7673,-0.538 -1.345,-0.538 -0.635,0 -1.1553,0.2425 -1.5478,0.7232 -0.3969,0.4806 -0.5953,1.3493 -0.5953,2.5973l0 6.5881 -5.2608 0 0 -13.7186zm23.9933 -5.2211l0 5.2211 2.8928 0 0 3.8364 -2.8928 0 0 4.8684c0,0.5864 0.0573,0.9745 0.1675,1.1641 0.172,0.2911 0.4719,0.441 0.904,0.441 0.3881,0 0.9305,-0.1147 1.6272,-0.3396l0.3881 3.6336c-1.3009,0.2823 -2.5136,0.4234 -3.6424,0.4234 -1.3097,0 -2.2755,-0.1676 -2.8928,-0.5027 -0.6218,-0.3352 -1.0804,-0.8467 -1.3758,-1.5302 -0.2999,-0.6835 -0.4454,-1.7948 -0.4454,-3.3293l0 -4.8287 -1.9403 0 0 -3.8364 1.9403 0 0 -2.5224 5.2696 -2.6987zm5.5915 0l5.2608 0 0 3.5807 -5.2608 0 0 -3.5807zm0 5.2211l5.2608 0 0 13.7186 -5.2608 0 0 -13.7186zm8.6563 0l4.908 0 0 2.002c0.71,-0.8379 1.4199,-1.4288 2.1387,-1.786 0.7188,-0.3527 1.5875,-0.5291 2.6062,-0.5291 1.0936,0 1.9579,0.194 2.5929,0.5821 0.6394,0.388 1.1597,0.9657 1.5654,1.733 0.8246,-0.8952 1.5787,-1.5081 2.2622,-1.83 0.6791,-0.322 1.5169,-0.4851 2.518,-0.4851 1.4728,0 2.6237,0.4365 3.4483,1.3141 0.8291,0.8731 1.2392,2.2401 1.2392,4.101l0 8.6166 -5.2696 0 0 -7.814c0,-0.6218 -0.1191,-1.0848 -0.3616,-1.3847 -0.3528,-0.4718 -0.7938,-0.7099 -1.3185,-0.7099 -0.6174,0 -1.1201,0.2249 -1.4993,0.6702 -0.3793,0.4498 -0.5645,1.1686 -0.5645,2.1608l0 7.0776 -5.274 0 0 -7.5583c0,-0.6041 -0.0353,-1.0098 -0.1014,-1.2259 -0.1147,-0.3439 -0.3087,-0.6217 -0.5821,-0.8334 -0.2778,-0.2117 -0.5997,-0.3175 -0.9701,-0.3175 -0.6042,0 -1.0981,0.2293 -1.4861,0.6835 -0.3881,0.4586 -0.5821,1.2083 -0.5821,2.249l0 7.0026 -5.2696 0 0 -13.7186zm26.6126 -5.2211l5.2608 0 0 3.5807 -5.2608 0 0 -3.5807zm0 5.2211l5.2608 0 0 13.7186 -5.2608 0 0 -13.7186zm23.8478 8.1624l-10.5393 0c0.0926,0.8466 0.3219,1.4728 0.6835,1.8873 0.5072,0.5953 1.173,0.8908 1.9888,0.8908 0.516,0 1.0098,-0.1279 1.4729,-0.3881 0.2866,-0.1631 0.5909,-0.4498 0.9172,-0.8643l5.1814 0.4763c-0.7937,1.3802 -1.7462,2.368 -2.8663,2.9677 -1.1201,0.5953 -2.7252,0.8952 -4.8198,0.8952 -1.8168,0 -3.2456,-0.2558 -4.2907,-0.7673 -1.0407,-0.5115 -1.905,-1.3273 -2.5885,-2.443 -0.6835,-1.1157 -1.0274,-2.4253 -1.0274,-3.9335 0,-2.1431 0.6879,-3.8805 2.0593,-5.2034 1.3758,-1.3274 3.272,-1.9932 5.6929,-1.9932 1.9624,0 3.5146,0.2998 4.6479,0.8952 1.1377,0.5909 2.0064,1.4552 2.5973,2.5796 0.5953,1.1289 0.8908,2.5974 0.8908,4.4053l0 0.5954zm-5.3446 -2.518c-0.1059,-1.0186 -0.3793,-1.7462 -0.8202,-2.1828 -0.4454,-0.441 -1.0275,-0.6615 -1.7507,-0.6615 -0.8378,0 -1.5037,0.3352 -2.0064,0.9966 -0.3175,0.4146 -0.5203,1.0275 -0.6041,1.8477l5.1814 0zm7.7611 -5.6444l4.8992 0 0 2.2313c0.732,-0.9128 1.4728,-1.5611 2.2225,-1.9535 0.7496,-0.3925 1.6625,-0.5909 2.7384,-0.5909 1.4552,0 2.5929,0.4365 3.4176,1.3008 0.8202,0.8644 1.2303,2.2005 1.2303,4.0085l0 8.7224 -5.2829 0 0 -7.545c0,-0.8599 -0.1587,-1.4685 -0.4762,-1.8256 -0.3219,-0.3616 -0.7673,-0.538 -1.345,-0.538 -0.635,0 -1.1553,0.2425 -1.5478,0.7232 -0.3969,0.4806 -0.5953,1.3493 -0.5953,2.5973l0 6.5881 -5.2608 0 0 -13.7186zm23.9933 -5.2211l0 5.2211 2.8928 0 0 3.8364 -2.8928 0 0 4.8684c0,0.5864 0.0573,0.9745 0.1675,1.1641 0.172,0.2911 0.4719,0.441 0.904,0.441 0.3881,0 0.9305,-0.1147 1.6272,-0.3396l0.3881 3.6336c-1.3009,0.2823 -2.5136,0.4234 -3.6424,0.4234 -1.3097,0 -2.2755,-0.1676 -2.8928,-0.5027 -0.6218,-0.3352 -1.0804,-0.8467 -1.3758,-1.5302 -0.2999,-0.6835 -0.4454,-1.7948 -0.4454,-3.3293l0 -4.8287 -1.9403 0 0 -3.8364 1.9403 0 0 -2.5224 5.2696 -2.6987zm4.7537 12.1179c0,-2.0902 0.7055,-3.8188 2.1166,-5.1726 1.4156,-1.3582 3.3206,-2.0373 5.7239,-2.0373 2.7472,0 4.8242,0.7981 6.2265,2.39 1.1289,1.2833 1.6933,2.8664 1.6933,4.7449 0,2.1078 -0.7011,3.8365 -2.099,5.1858 -1.3979,1.345 -3.3338,2.0197 -5.8076,2.0197 -2.2049,0 -3.9864,-0.5601 -5.349,-1.6801 -1.6713,-1.3847 -2.5047,-3.2015 -2.5047,-5.4504zm5.2696 -0.0133c0,1.2259 0.2469,2.1299 0.7452,2.712 0.4939,0.5865 1.1157,0.882 1.8653,0.882 0.7585,0 1.3803,-0.2911 1.8654,-0.8688 0.4894,-0.5776 0.732,-1.4993 0.732,-2.7781 0,-1.1862 -0.247,-2.0725 -0.7365,-2.6546 -0.4894,-0.5777 -1.098,-0.8687 -1.8212,-0.8687 -0.7673,0 -1.4023,0.2954 -1.9006,0.8819 -0.4983,0.5909 -0.7496,1.4905 -0.7496,2.6943z"/>
  <path class="fil3" d="M24.9117 179.843l-6.6674 0 -0.9173 3.1265 -5.9795 0 7.1172 -18.9397 6.3809 0 7.1217 18.9397 -6.1251 0 -0.9305 -3.1265zm-1.2259 -4.0966l-2.0946 -6.8086 -2.0814 6.8086 4.176 0zm8.9601 -6.4955l4.908 0 0 2.002c0.71,-0.8379 1.4199,-1.4288 2.1387,-1.786 0.7188,-0.3527 1.5875,-0.5291 2.6062,-0.5291 1.0936,0 1.9579,0.194 2.5929,0.5821 0.6394,0.388 1.1597,0.9657 1.5654,1.733 0.8246,-0.8952 1.5787,-1.5081 2.2622,-1.83 0.6791,-0.322 1.5169,-0.4851 2.518,-0.4851 1.4728,0 2.6237,0.4365 3.4483,1.3141 0.8291,0.8731 1.2392,2.2401 1.2392,4.101l0 8.6166 -5.2696 0 0 -7.814c0,-0.6218 -0.1191,-1.0848 -0.3616,-1.3847 -0.3528,-0.4718 -0.7938,-0.7099 -1.3185,-0.7099 -0.6174,0 -1.1201,0.2249 -1.4993,0.6702 -0.3793,0.4498 -0.5645,1.1686 -0.5645,2.1608l0 7.0776 -5.274 0 0 -7.5583c0,-0.6041 -0.0353,-1.0098 -0.1014,-1.2259 -0.1147,-0.3439 -0.3087,-0.6217 -0.5821,-0.8334 -0.2778,-0.2117 -0.5997,-0.3175 -0.9701,-0.3175 -0.6042,0 -1.0981,0.2293 -1.4861,0.6835 -0.3881,0.4586 -0.5821,1.2083 -0.5821,2.249l0 7.0026 -5.2696 0 0 -13.7186zm30.3296 4.4406l-5.0227 -0.5292c0.1896,-0.8775 0.463,-1.5699 0.8202,-2.0726 0.3572,-0.5027 0.8687,-0.9392 1.5434,-1.3097 0.4807,-0.269 1.1465,-0.4762 1.9888,-0.6217 0.8422,-0.1456 1.7551,-0.2205 2.7384,-0.2205 1.5743,0 2.8443,0.0882 3.7968,0.2646 0.9569,0.1764 1.7551,0.5468 2.39,1.1068 0.4498,0.3881 0.8026,0.9349 1.0628,1.6448 0.2558,0.7144 0.3836,1.3891 0.3836,2.0373l0 6.059c0,0.6438 0.0441,1.1509 0.1235,1.5169 0.0838,0.366 0.2602,0.8334 0.538,1.4023l-4.9345 0c-0.1984,-0.3528 -0.3263,-0.6218 -0.388,-0.807 -0.0618,-0.1852 -0.1191,-0.4762 -0.1808,-0.8731 -0.6879,0.6659 -1.3759,1.1377 -2.055,1.4199 -0.9304,0.3793 -2.0108,0.5689 -3.2411,0.5689 -1.636,0 -2.8795,-0.3793 -3.7306,-1.1377 -0.8467,-0.7541 -1.27,-1.6889 -1.27,-2.8002 0,-1.0451 0.3042,-1.9006 0.9172,-2.5709 0.613,-0.6746 1.7374,-1.1729 3.3823,-1.4993 1.9755,-0.3968 3.2543,-0.6747 3.8408,-0.8334 0.5821,-0.1588 1.2039,-0.3704 1.8565,-0.6262 0,-0.6482 -0.1323,-1.098 -0.3969,-1.3582 -0.269,-0.2557 -0.7364,-0.388 -1.4111,-0.388 -0.8599,0 -1.5037,0.1411 -1.9358,0.4145 -0.3352,0.2161 -0.6086,0.6218 -0.8158,1.2127zm4.5596 2.7648c-0.7232,0.2602 -1.4772,0.4895 -2.2578,0.688 -1.0671,0.2822 -1.7462,0.5644 -2.0284,0.8378 -0.2955,0.2866 -0.441,0.6086 -0.441,0.9701 0,0.4146 0.1455,0.7497 0.4321,1.0143 0.2911,0.2602 0.7144,0.3924 1.2745,0.3924 0.5864,0 1.1288,-0.1411 1.636,-0.4233 0.5027,-0.2866 0.8599,-0.635 1.0715,-1.0407 0.2117,-0.4101 0.3131,-0.9437 0.3131,-1.5963l0 -0.8423zm6.8214 -7.2054l12.722 0 0 3.0735 -6.9232 7.0556 7.351 0 0 3.5895 -13.6702 0 0 -3.4087 6.5661 -6.7204 -6.0457 0 0 -3.5895zm13.5197 6.8968c0,-2.0902 0.7055,-3.8188 2.1166,-5.1726 1.4156,-1.3582 3.3206,-2.0373 5.7239,-2.0373 2.7472,0 4.8242,0.7981 6.2265,2.39 1.1289,1.2833 1.6933,2.8664 1.6933,4.7449 0,2.1078 -0.7011,3.8365 -2.099,5.1858 -1.3979,1.345 -3.3338,2.0197 -5.8076,2.0197 -2.2049,0 -3.9864,-0.5601 -5.349,-1.6801 -1.6713,-1.3847 -2.5047,-3.2015 -2.5047,-5.4504zm5.2696 -0.0133c0,1.2259 0.2469,2.1299 0.7452,2.712 0.4939,0.5865 1.1157,0.882 1.8653,0.882 0.7585,0 1.3803,-0.2911 1.8654,-0.8688 0.4894,-0.5776 0.732,-1.4993 0.732,-2.7781 0,-1.1862 -0.247,-2.0725 -0.7365,-2.6546 -0.4894,-0.5777 -1.098,-0.8687 -1.8212,-0.8687 -0.7673,0 -1.4023,0.2954 -1.9006,0.8819 -0.4983,0.5909 -0.7496,1.4905 -0.7496,2.6943zm12.1395 -6.8835l4.8992 0 0 2.2313c0.732,-0.9128 1.4728,-1.5611 2.2225,-1.9535 0.7496,-0.3925 1.6625,-0.5909 2.7384,-0.5909 1.4552,0 2.5929,0.4365 3.4176,1.3008 0.8202,0.8644 1.2303,2.2005 1.2303,4.0085l0 8.7224 -5.2829 0 0 -7.545c0,-0.8599 -0.1587,-1.4685 -0.4762,-1.8256 -0.3219,-0.3616 -0.7673,-0.538 -1.345,-0.538 -0.635,0 -1.1553,0.2425 -1.5478,0.7232 -0.3969,0.4806 -0.5953,1.3493 -0.5953,2.5973l0 6.5881 -5.2608 0 0 -13.7186zm31.9965 8.1624l-10.5393 0c0.0926,0.8466 0.3219,1.4728 0.6835,1.8873 0.5072,0.5953 1.173,0.8908 1.9888,0.8908 0.516,0 1.0098,-0.1279 1.4729,-0.3881 0.2866,-0.1631 0.5909,-0.4498 0.9172,-0.8643l5.1814 0.4763c-0.7937,1.3802 -1.7462,2.368 -2.8663,2.9677 -1.1201,0.5953 -2.7252,0.8952 -4.8198,0.8952 -1.8168,0 -3.2456,-0.2558 -4.2907,-0.7673 -1.0407,-0.5115 -1.905,-1.3273 -2.5885,-2.443 -0.6835,-1.1157 -1.0274,-2.4253 -1.0274,-3.9335 0,-2.1431 0.6879,-3.8805 2.0593,-5.2034 1.3758,-1.3274 3.272,-1.9932 5.6929,-1.9932 1.9624,0 3.5146,0.2998 4.6479,0.8952 1.1377,0.5909 2.0064,1.4552 2.5973,2.5796 0.5953,1.1289 0.8908,2.5974 0.8908,4.4053l0 0.5954zm-5.3446 -2.518c-0.1059,-1.0186 -0.3793,-1.7462 -0.8202,-2.1828 -0.4454,-0.441 -1.0275,-0.6615 -1.7507,-0.6615 -0.8378,0 -1.5037,0.3352 -2.0064,0.9966 -0.3175,0.4146 -0.5203,1.0275 -0.6041,1.8477l5.1814 0zm6.8787 -5.6444l4.8992 0 0 2.2313c0.732,-0.9128 1.4728,-1.5611 2.2225,-1.9535 0.7496,-0.3925 1.6625,-0.5909 2.7384,-0.5909 1.4552,0 2.5929,0.4365 3.4176,1.3008 0.8202,0.8644 1.2303,2.2005 1.2303,4.0085l0 8.7224 -5.2829 0 0 -7.545c0,-0.8599 -0.1587,-1.4685 -0.4762,-1.8256 -0.3219,-0.3616 -0.7673,-0.538 -1.345,-0.538 -0.635,0 -1.1553,0.2425 -1.5478,0.7232 -0.3969,0.4806 -0.5953,1.3493 -0.5953,2.5973l0 6.5881 -5.2608 0 0 -13.7186zm15.8348 9.9218l5.2212 -0.4939c0.216,0.6218 0.5159,1.0672 0.9039,1.3318 0.3881,0.269 0.904,0.4013 1.5523,0.4013 0.7055,0 1.2523,-0.15 1.6404,-0.4542 0.2998,-0.2205 0.4498,-0.5027 0.4498,-0.8379 0,-0.3792 -0.1985,-0.6703 -0.5909,-0.8775 -0.2867,-0.1455 -1.0407,-0.3263 -2.2622,-0.5424 -1.8256,-0.3219 -3.0956,-0.613 -3.8056,-0.8864 -0.71,-0.2734 -1.3097,-0.732 -1.7948,-1.3758 -0.4894,-0.6438 -0.732,-1.3802 -0.732,-2.2093 0,-0.904 0.2646,-1.6845 0.7894,-2.3371 0.5247,-0.6571 1.2479,-1.1465 2.1696,-1.4684 0.9216,-0.322 2.1563,-0.4851 3.7085,-0.4851 1.636,0 2.8443,0.1279 3.6248,0.3748 0.7805,0.2514 1.4288,0.6394 1.9491,1.1642 0.5204,0.5247 0.9525,1.2347 1.3009,2.1299l-4.9874 0.4939c-0.1323,-0.441 -0.344,-0.7629 -0.6482,-0.9702 -0.4146,-0.2778 -0.9129,-0.4145 -1.4994,-0.4145 -0.5909,0 -1.0274,0.1058 -1.2964,0.3175 -0.2734,0.2117 -0.4057,0.4674 -0.4057,0.7673 0,0.3395 0.172,0.5909 0.5159,0.7629 0.344,0.172 1.0936,0.3263 2.249,0.4674 1.7462,0.1984 3.0471,0.4718 3.8982,0.8246 0.8555,0.3528 1.5081,0.8555 1.9579,1.5126 0.4542,0.6526 0.6791,1.3714 0.6791,2.1563 0,0.7938 -0.2381,1.5655 -0.7188,2.3151 -0.4762,0.7497 -1.2303,1.345 -2.2578,1.7859 -1.0318,0.4454 -2.4341,0.6659 -4.2068,0.6659 -2.5048,0 -4.2907,-0.3572 -5.3534,-1.0716 -1.0628,-0.7143 -1.7463,-1.733 -2.0506,-3.0471zm31.4409 -1.7594l-10.5393 0c0.0926,0.8466 0.3219,1.4728 0.6835,1.8873 0.5072,0.5953 1.173,0.8908 1.9888,0.8908 0.516,0 1.0098,-0.1279 1.4729,-0.3881 0.2866,-0.1631 0.5909,-0.4498 0.9172,-0.8643l5.1814 0.4763c-0.7937,1.3802 -1.7462,2.368 -2.8663,2.9677 -1.1201,0.5953 -2.7252,0.8952 -4.8198,0.8952 -1.8168,0 -3.2456,-0.2558 -4.2907,-0.7673 -1.0407,-0.5115 -1.905,-1.3273 -2.5885,-2.443 -0.6835,-1.1157 -1.0274,-2.4253 -1.0274,-3.9335 0,-2.1431 0.6879,-3.8805 2.0593,-5.2034 1.3758,-1.3274 3.272,-1.9932 5.6929,-1.9932 1.9624,0 3.5146,0.2998 4.6479,0.8952 1.1377,0.5909 2.0064,1.4552 2.5973,2.5796 0.5953,1.1289 0.8908,2.5974 0.8908,4.4053l0 0.5954zm-5.3446 -2.518c-0.1059,-1.0186 -0.3793,-1.7462 -0.8202,-2.1828 -0.4454,-0.441 -1.0275,-0.6615 -1.7507,-0.6615 -0.8378,0 -1.5037,0.3352 -2.0064,0.9966 -0.3175,0.4146 -0.5203,1.0275 -0.6041,1.8477l5.1814 0z"/>
 </g>
</svg>
