<?xml version="1.0" encoding="UTF-8"?>
<!DOCTYPE svg PUBLIC "-//W3C//DTD SVG 1.1//EN" "http://www.w3.org/Graphics/SVG/1.1/DTD/svg11.dtd">
<!-- Creator: CorelDRAW -->
<svg xmlns="http://www.w3.org/2000/svg" xml:space="preserve" width="150mm" height="150mm" style="shape-rendering:geometricPrecision; text-rendering:geometricPrecision; image-rendering:optimizeQuality; fill-rule:evenodd; clip-rule:evenodd"
viewBox="0 0 150 150"
 xmlns:xlink="http://www.w3.org/1999/xlink">
 <defs>
  <style type="text/css">
   <![CDATA[
    .fil0 {fill:#0001FB}
    .fil3 {fill:#009746}
    .fil2 {fill:#F29E49}
    .fil1 {fill:white}
    .fil4 {fill:#0001FB;fill-rule:nonzero}
   ]]>
  </style>
 </defs>
 <g id="Capa_x0020_1">
  <metadata id="CorelCorpID_0Corel-Layer"/>
  <polygon class="fil0" points="150,0 -0,0 -0,150 150,150 "/>
  <polygon class="fil1" points="3.752,146.303 146.264,146.304 146.254,3.6755 3.7521,3.6799 "/>
  <path class="fil2" d="M32.939 85.2249c-0.085,2.3346 3.4868,9.8482 5.1954,12.5552 0.3086,0.4891 0.6847,1.264 1.1291,1.5345 -0.0293,-0.6509 -0.0956,-0.7309 -0.3679,-1.1763 -0.2996,-0.49 -0.377,-0.5834 -0.2242,-0.9105l0.115 -0.1615c0.3152,0.1171 0.1477,-0.0087 0.3518,0.2271 0.6339,0.7322 -0.4758,0.9565 0.7953,1.3017 0.0352,0.0096 0.0712,0.0127 0.1051,0.024l0.181 0.0783c0.4744,0.2597 -0.1654,0.0256 0.3503,0.2708 0.3864,0.1836 0.1902,0.0231 0.5096,0.1071 0.6114,0.2521 0.2942,0.4599 1.0998,-0.1387l0.0085 -1.8496 2.0035 0 0.0133 -1.9831 4.0044 -0.1278 0.0077 -1.8594 4.0137 -0.1239 0.0077 -1.8594 2.0067 0.0081 0.0167 -1.8514c0.4858,-0.0951 3.3889,-0.126 3.9969,-0.1422l0.0166 -1.958 4.0015 -0.0253 0.0118 -1.9752 3.9976 -0.1238 0.0242 -1.8553 0.9963 0 0.0009 -0.4986 1.0041 0c0.0925,-0.1908 -0.0387,-0.2672 0.9028,-0.2574l0.1023 -0.1783 0.0028 -0.5552 1.0054 0 -0.0004 -0.4923 1.0022 0 -0.0001 -0.4986 1.0083 0c-0.0002,-0.0779 -0.0079,-0.2823 0.0043,-0.3455 0.1704,-0.8813 -0.1913,0.5577 0.0547,-0.2071l0.0937 -0.1875c2.1702,0 1.7031,-0.874 2.6814,-1.0646l1.1676 -0.0664 0.0318 -2.324c0.3418,0 1.641,-0.0804 1.8604,0.0542 0.6472,0.3969 -0.5341,0.4851 1.1247,0.6626 0.0612,-0.4055 -0.3014,-0.3432 1.0082,-0.3747 0.0397,-2.6004 -0.2073,-2.3472 1.0426,-2.3359 1.3234,0.012 0.9288,0.2565 1.5101,0.2538 0.157,-0.0007 0.184,-0.0176 0.3058,-0.0521l0.2714 -0.1144 0.9036 -0.0916c-0.069,-3.0431 0.1483,-1.4748 2.1207,-2.1238 0.471,-0.1549 1.3555,-0.1814 1.8912,-0.2297l0.0149 -0.8507c0.3873,-0.0049 0.774,-0.016 1.1604,-0.0223 0.8734,-0.0141 0.5454,0.1515 0.8972,0.2502 1.2874,0 0.7305,0.1742 1.0126,-0.5362 0.1826,-0.4599 0.3155,-0.4468 0.9356,-0.6989l0.0076 -0.9866 1.0019 -0.0078 -0.0007 -0.492 1.0046 0 0.0043 -1.3594c0.4576,-0.0902 3.3868,-0.118 4.0029,-0.137l0.0172 -1.8448c0.4757,-0.0938 3.3784,-0.1128 4.0068,-0.1305l0.0133 -1.9741 4 -0.0289c0.0279,-3.2222 -0.496,-2.715 2.0965,-2.7038l0.0079 0.7442 1.9108 -0.0157 0.025 -1.9606 1.0018 0 -0.0001 -0.4986 1.0029 0 0.004 -1.4926 2.1392 0.0085c0.2872,-0.4263 -0.3264,-0.6592 -0.2291,-1.4419 0.034,-0.2733 0.0629,-0.2571 0.2541,-0.5435 0.0207,0.0297 0.0386,0.0443 0.045,0.0987l0.3206 0.8994c0.047,-1.0255 0.1848,-0.8161 0.2106,-1.1209 0.0548,-0.6479 -0.023,-0.0766 -0.1342,-0.4157 -0.0471,-0.1437 -0.1661,0.0414 0.0304,-0.5777 0.0134,0.0247 0.0625,0.0283 0.0774,0.0358l0.2421 0.12c-0.7308,-2.471 -5.3665,-8.0122 -7.1744,-9.9336 -1.3969,-1.4847 -8.117,-7.3171 -9.5511,-7.359 -0.2645,0.1974 0.3098,0.1581 -0.5254,0.1166 0.3844,0.4806 0.2126,0.3657 0.1274,0.5064l-1.7589 -0.0148 -0.0112 -0.1208c-0.0079,-0.2775 0.1268,-0.2242 -0.1675,-0.3439 -0.0237,-0.0097 -0.0612,-0.0279 -0.0876,-0.0376 -0.0259,-0.0095 -0.0605,-0.0247 -0.0872,-0.0331l-0.4737 -0.0643c-0.5204,0.6919 -0.4459,0.4332 -1.2563,0.6144l-0.0119 1.8516 -4.0082 0.0104 -0.0114 1.9651 -4.0057 0.0185 -0.0115 1.9693 -1.9955 0.0074 -0.0164 1.9744 -2.0047 0 -0.0035 1.972 -2.6818 0.011 -0.4556 0.2605c-0.3382,0.1701 -0.4778,0.1144 -0.8716,0.1144l-0.0084 1.4849 -4.0052 0.1302 -0.0165 1.9784 -4.0071 0.0052 -0.0096 1.9605 -1.0733 0.0577c-0.7439,0.0847 -1.1265,-0.0351 -1.8643,-0.0351l-0.0795 0.6168 -0.9903 0.0006c0.004,1.1796 0.3217,1.4498 -1.4098,1.4312 -0.4566,-0.0049 -1.719,-0.0574 -2.6039,-0.0574l-0.0159 1.8325c-1.1636,0.0725 -1.0069,-0.0857 -1.0205,0.49 -1.9001,0 -1.0036,0.2311 -2.2082,0.5726 -0.4753,0.1348 -2.2233,0.0791 -2.7855,0.0791l0 0.9796 -2.0135 0.015 -0.0161 1.9605 -2.0185 0 0.0094 1.8545 -2.9381 0.1303 -0.0873 0.6138 -0.9904 0.0006 -0.0333 3.3105 -3.9799 0.0378 -0.5419 0.9999c-0.3434,0.0408 -1.187,-0.002 -1.5815,-0.002l-0.1721 -0.9494c-0.4074,-0.1756 -0.7054,0.0572 -0.8026,0.1254 -1.0143,0.7108 -0.7773,0.4992 -1.0102,1.1035l-1.7304 0.2419c-0.6717,0.8224 -0.5139,0.3136 -0.6844,1.0361 -0.0262,0.1109 0.0254,0.1878 -0.1892,0.4875l-0.7332 0.7808c-0.2275,0.1878 -0.3778,0.1799 -0.581,0.2842 -0.0534,2.2931 0.1122,1.4472 -0.8588,2.4964 -0.0171,0.0185 -0.0416,0.046 -0.0583,0.065l-0.3349 0.4138c-0.2244,0.2459 -0.4773,0.4543 -0.7806,0.5853l-0.4189 1.2328c-0.2025,0.0468 -1.4089,0.0181 -1.6958,0.0148l0.0005 -0.8709c-0.1009,2.6041 -0.192,2.6099 0.1429,5.0621 0.0662,0.485 -0.0231,0.9248 0.133,1.3815 0.1281,0.3752 0.3289,0.4216 0.344,0.952 0.0181,0.6325 -0.137,0.3059 0.0778,1.0646 0.1166,0.4113 0.1162,0.8162 0.1336,1.2851zm0 0c-0.0174,-0.4689 -0.017,-0.8738 -0.1336,-1.2851 -0.2148,-0.7587 -0.0597,-0.4321 -0.0778,-1.0646 -0.0151,-0.5304 -0.2159,-0.5768 -0.344,-0.952 -0.1561,-0.4567 -0.0668,-0.8965 -0.133,-1.3815 -0.3349,-2.4522 -0.2438,-2.458 -0.1429,-5.0621l-0.0005 0.8709c0.2869,0.0033 1.4933,0.032 1.6958,-0.0148l0.4189 -1.2328c0.3033,-0.131 0.5562,-0.3394 0.7806,-0.5853l0.3349 -0.4138c0.0167,-0.019 0.0412,-0.0465 0.0583,-0.065 0.971,-1.0492 0.8054,-0.2033 0.8588,-2.4964 0.2032,-0.1043 0.3535,-0.0964 0.581,-0.2842l0.7332 -0.7808c0.2146,-0.2997 0.163,-0.3766 0.1892,-0.4875 0.1705,-0.7225 0.0127,-0.2137 0.6844,-1.0361l1.7304 -0.2419c0.2329,-0.6043 -0.0041,-0.3927 1.0102,-1.1035 0.0972,-0.0682 0.3952,-0.301 0.8026,-0.1254l0.1721 0.9494c0.3945,0 1.2381,0.0428 1.5815,0.002l0.5419 -0.9999 3.9799 -0.0378 0.0333 -3.3105 0.9904 -0.0006 0.0873 -0.6138 2.9381 -0.1303 -0.0094 -1.8545 2.0185 0 0.0161 -1.9605 2.0135 -0.015 0 -0.9796c0.5622,0 2.3102,0.0557 2.7855,-0.0791 1.2046,-0.3415 0.3081,-0.5726 2.2082,-0.5726 0.0136,-0.5757 -0.1431,-0.4175 1.0205,-0.49l0.0159 -1.8325c0.8849,0 2.1473,0.0525 2.6039,0.0574 1.7315,0.0186 1.4138,-0.2516 1.4098,-1.4312l0.9903 -0.0006 0.0795 -0.6168c0.7378,0 1.1204,0.1198 1.8643,0.0351l1.0733 -0.0577 0.0096 -1.9605 4.0071 -0.0052 0.0165 -1.9784 4.0052 -0.1302 0.0084 -1.4849c0.3938,0 0.5334,0.0557 0.8716,-0.1144l0.4556 -0.2605 2.6818 -0.011 0.0035 -1.972 2.0047 0 0.0164 -1.9744 1.9955 -0.0074 0.0115 -1.9693 4.0057 -0.0185 0.0114 -1.9651 4.0082 -0.0104 0.0119 -1.8516c0.8104,-0.1812 0.7359,0.0775 1.2563,-0.6144l0.4737 0.0643c0.0267,0.0084 0.0613,0.0236 0.0872,0.0331 0.0264,0.0097 0.0639,0.0279 0.0876,0.0376 0.2943,0.1197 0.1596,0.0664 0.1675,0.3439l0.0112 0.1208 1.7589 0.0148c0.0852,-0.1407 0.257,-0.0258 -0.1274,-0.5064 0.8352,0.0415 0.2609,0.0808 0.5254,-0.1166 -0.0211,-0.0308 -0.0525,-0.1149 -0.0625,-0.0929 -0.0097,0.0211 -0.0469,-0.0708 -0.0594,-0.0896 -0.0604,-0.0915 -0.0896,-0.1355 -0.1539,-0.2342 -0.4455,-0.2207 -0.1653,-0.0795 -0.4927,-0.4717 -0.0101,0.0145 0.0662,0.2915 -0.6307,-0.0182 -0.2128,-0.0945 -0.4623,-0.265 -0.6474,-0.367 -0.8324,-0.4585 -3.333,-1.6026 -4.092,-1.8824 -6.8938,-2.5422 -13.0442,-3.5393 -20.7698,-2.8725 -2.0879,0.1802 -5.1093,0.607 -6.8518,1.1151 -0.546,0.1593 -0.7804,0.2771 -1.5194,0.4518 -1.1533,0.2727 -3.2257,1.1423 -4.3683,1.6128 -3.1454,1.2952 -6.404,2.8476 -9.0373,4.983l-1.1939 0.8084c-0.3354,0.2514 -0.7104,0.5193 -1.0563,0.8165l-2.6228 2.3657c-0.2201,0.2041 -0.2923,0.3281 -0.4734,0.5334 -0.3351,0.3802 -0.6356,0.5548 -1.0148,0.9764 -0.234,0.2601 -0.2928,0.2693 -0.5031,0.4906 -0.1689,0.1777 -0.2949,0.3527 -0.4598,0.5412l-0.8992 1.1005c-0.2942,0.3507 -0.6296,0.6043 -0.9588,1.0252 -1.0617,1.3575 -2.304,3.1066 -3.2308,4.7407 -2.229,3.9299 -3.5297,6.7041 -4.6753,11.2467 -1.5966,6.3308 -1.9602,14.066 -0.3269,20.4887 0.0333,0.1309 0.0687,0.2957 0.1044,0.3959 0.2378,0.6675 -0.2243,-0.4892 0.076,0.1823l0.094 0.1713zm16.2578 24.5134c0.4711,0.6361 2.7821,1.9964 3.7224,2.572 1.4235,0.8713 2.7376,1.5666 4.2434,2.2694 2.2546,1.0523 6.9867,2.9155 9.7966,3.2107 -0.1933,-0.1624 0.2107,-0.2689 -0.6364,-0.2272l0.7525 -0.3589c-1.0165,0.0201 -1.3907,0.104 -2.3559,-0.1818 -0.2757,-0.0816 -0.0977,0.005 -0.2685,-0.1132l1.8481 -0.1495 0.125 -0.8498 1.8902 0 0.0062 -0.9835 1.998 -0.0048 0.1369 -1.4835 1.7583 0c0.2261,-0.0639 1.1664,-0.942 1.9993,-0.5009l0.1257 -1.494 2.008 0 0.1256 -0.4954 1.8732 -0.0067c0.0202,-1.2283 -0.1189,-1.6522 0.0057,-2.3304 0.0372,-0.2023 0.0376,-0.2601 0.044,-0.4656 0.0114,-0.3594 -0.0011,-0.7572 0.0011,-1.122l3.9976 -0.0143 0.0249 -1.9675 3.9999 -0.0168 0.0189 -1.965c1.8771,0.011 2.0614,0.2034 2.1195,-0.5104 1.3337,-0.0207 1.2368,-0.0982 2.0007,0.1398 0.2872,0.0894 0.2069,0.0416 0.5147,0.1037 0.0382,0.0077 0.0712,0.0108 0.1088,0.0196l0.2004 0.0588c0.0002,0.0001 0.5158,0.3137 0.8683,0.1026 0.3342,-0.2002 0.2167,-3.3246 0.2167,-3.8723l4.0022 -0.0206 0.0287 -1.9556c2.3462,0.0112 2.0048,0.1278 2.0048,-1.003l2.0035 0.0021c0.5185,-0.6465 0.6507,-0.6349 0.8839,-1.0018 -0.9924,-0.0366 -0.7766,0.0037 -0.8857,-0.2366l1.8422 0.0478c0.3479,0.0552 0.07,0.2669 0.9522,0.2418 2.0885,-0.0596 0.7591,0.0113 1.4755,-1.0546l1.9992 -0.0253c0.7562,-0.0591 -0.1753,-0.2515 1.7224,-0.2508l0.0201 -1.0953c1.6219,-0.0114 0.5477,-0.1575 1.5261,-0.2515 0.1127,-0.0108 0.3479,0.0038 0.4758,0.0038l1.4311 -1.3498c0.6226,-0.0226 0.6006,-0.101 0.6038,-0.7184 0.0023,-0.469 -0.0595,-0.478 0.0523,-0.9564 0.0403,-0.1728 0.0827,-0.2096 0.2569,-0.2559 0.3993,-0.1062 3.1668,-0.0715 3.6259,-0.0715l0.0753 -1.9668 0.9053 0.0234c0.822,0.2334 0.1443,0.017 1.0023,-0.0353 -0.0108,0.5871 -0.0685,0.5899 0.1299,0.896 0.7709,-3.1348 1.4829,-5.5878 1.8266,-9.0669 0.3318,-3.3595 0.2203,-6.9422 -0.2321,-10.1321l-0.3386 -0.3193c-0.416,-0.0874 -0.4516,0.3755 -0.5511,0.635l-0.3669 -0.4042c-0.2133,-0.4953 -0.1529,-0.7826 -0.1366,-1.3786 -2.8485,-0.0694 -1.8637,-0.2334 -2.2966,0.7716l-1.8712 0 -0.036 3.1883 -2.0009 0.0222 -0.0293 1.9471 -3.9908 0.0286 -0.0242 1.9595 -3.9954 0.0318 -0.018 1.95 -4.0027 0.0257 -0.0215 1.8346 -1.9949 0.1277 -0.0161 1.9819 -4.01 0 -0.0086 1.9818 -4.005 0.0056 -0.0077 1.9829 -2.0091 0.0075 -0.132 2.2092 -1.6274 -0.0192c-1.2773,-0.2656 -0.0259,-0.2156 -2.2603,-0.2156l0 1.9818 -4.0133 0.0082 0 1.8565c-1.5375,0.1388 -2.3794,0.1182 -4.0201,0.1301l0 1.8517 -2.0168 0.1234 -0.0198 1.9519 -1.8865 0.0225 -0.1968 0.7558 -1.9113 -0.0047 -0.1508 1.4605 -1.6173 -0.0124c-0.4479,-0.0458 -0.0974,-0.2208 -1.2692,-0.2097 -0.9909,0.0094 -1.9815,0.0218 -2.9726,0.0218l-2.0166 1.9767 -0.1383 2.2131c-2.8599,0.0223 -0.9738,-0.2352 -3.8778,-0.2352l-1.9297 2.2171 -0.1107 0.494 -1.9796 0.0162 -1.9298 1.4716 -0.1107 0.4941 -1.9796 0.0161 -0.0117 1.2317c-0.4037,0.0027 -1.7149,-0.0495 -1.8894,0.1687l-0.1812 0.252c-0.2893,0.4207 -0.4303,-0.2105 0.0364,0.9395 0.195,0.4806 -0.1104,0.1364 0.2321,0.4742 0.3755,0.3704 0.6249,0.0334 0.714,0.8489zm-9.9333 -10.4237c0.1579,0.8938 3.6776,4.7911 4.4304,5.6239 0.894,0.9889 4.4159,4.3876 5.5029,4.7998 -0.0891,-0.8155 -0.3385,-0.4785 -0.714,-0.8489 -0.3425,-0.3378 -0.0371,0.0064 -0.2321,-0.4742 -0.4667,-1.15 -0.3257,-0.5188 -0.0364,-0.9395l0.1812 -0.252c0.1745,-0.2182 1.4857,-0.166 1.8894,-0.1687l0.0117 -1.2317 1.9796 -0.0161 0.1107 -0.4941 1.9298 -1.4716 1.9796 -0.0162 0.1107 -0.494 1.9297 -2.2171c2.904,0 1.0179,0.2575 3.8778,0.2352l0.1383 -2.2131 2.0166 -1.9767c0.9911,0 1.9817,-0.0124 2.9726,-0.0218 1.1718,-0.0111 0.8213,0.1639 1.2692,0.2097l1.6173 0.0124 0.1508 -1.4605 1.9113 0.0047 0.1968 -0.7558 1.8865 -0.0225 0.0198 -1.9519 2.0168 -0.1234 0 -1.8517c1.6407,-0.0119 2.4826,0.0087 4.0201,-0.1301l0 -1.8565 4.0133 -0.0082 0 -1.9818c2.2344,0 0.983,-0.05 2.2603,0.2156l1.6274 0.0192 0.132 -2.2092 2.0091 -0.0075 0.0077 -1.9829 4.005 -0.0056 0.0086 -1.9818 4.01 0 0.0161 -1.9819 1.9949 -0.1277 0.0215 -1.8346 4.0027 -0.0257 0.018 -1.95 3.9954 -0.0318 0.0242 -1.9595 3.9908 -0.0286 0.0293 -1.9471 2.0009 -0.0222 0.036 -3.1883 1.8712 0c0.4329,-1.005 -0.5519,-0.841 2.2966,-0.7716 -0.0163,0.596 -0.0767,0.8833 0.1366,1.3786l0.3669 0.4042c0.0995,-0.2595 0.1351,-0.7224 0.5511,-0.635l0.3386 0.3193c-0.1778,-2.4621 -1.1284,-5.7246 -1.8284,-7.8301 -0.3866,-1.1631 -2.3544,-6.2364 -2.876,-6.5382l-0.2421 -0.12c-0.0149,-0.0075 -0.064,-0.0111 -0.0774,-0.0358 -0.1965,0.6191 -0.0775,0.434 -0.0304,0.5777 0.1112,0.3391 0.189,-0.2322 0.1342,0.4157 -0.0258,0.3048 -0.1636,0.0954 -0.2106,1.1209l-0.3206 -0.8994c-0.0064,-0.0544 -0.0243,-0.069 -0.045,-0.0987 -0.1912,0.2864 -0.2201,0.2702 -0.2541,0.5435 -0.0973,0.7827 0.5163,1.0156 0.2291,1.4419l-2.1392 -0.0085 -0.004 1.4926 -1.0029 0 0.0001 0.4986 -1.0018 0 -0.025 1.9606 -1.9108 0.0157 -0.0079 -0.7442c-2.5925,-0.0112 -2.0686,-0.5184 -2.0965,2.7038l-4 0.0289 -0.0133 1.9741c-0.6284,0.0177 -3.5311,0.0367 -4.0068,0.1305l-0.0172 1.8448c-0.6161,0.019 -3.5453,0.0468 -4.0029,0.137l-0.0043 1.3594 -1.0046 0 0.0007 0.492 -1.0019 0.0078 -0.0076 0.9866c-0.6201,0.2521 -0.753,0.239 -0.9356,0.6989 -0.2821,0.7104 0.2748,0.5362 -1.0126,0.5362 -0.3518,-0.0987 -0.0238,-0.2643 -0.8972,-0.2502 -0.3864,0.0063 -0.7731,0.0174 -1.1604,0.0223l-0.0149 0.8507c-0.5357,0.0483 -1.4202,0.0748 -1.8912,0.2297 -1.9724,0.649 -2.1897,-0.9193 -2.1207,2.1238l-0.9036 0.0916 -0.2714 0.1144c-0.1218,0.0345 -0.1488,0.0514 -0.3058,0.0521 -0.5813,0.0027 -0.1867,-0.2418 -1.5101,-0.2538 -1.2499,-0.0113 -1.0029,-0.2645 -1.0426,2.3359 -1.3096,0.0315 -0.947,-0.0308 -1.0082,0.3747 -1.6588,-0.1775 -0.4775,-0.2657 -1.1247,-0.6626 -0.2194,-0.1346 -1.5186,-0.0542 -1.8604,-0.0542l-0.0318 2.324 -1.1676 0.0664c-0.9783,0.1906 -0.5112,1.0646 -2.6814,1.0646l-0.0937 0.1875c-0.246,0.7648 0.1157,-0.6742 -0.0547,0.2071 -0.0122,0.0632 -0.0045,0.2676 -0.0043,0.3455l-1.0083 0 0.0001 0.4986 -1.0022 0 0.0004 0.4923 -1.0054 0 -0.0028 0.5552 -0.1023 0.1783c-0.9415,-0.0098 -0.8103,0.0666 -0.9028,0.2574l-1.0041 0 -0.0009 0.4986 -0.9963 0 -0.0242 1.8553 -3.9976 0.1238 -0.0118 1.9752 -4.0015 0.0253 -0.0166 1.958c-0.608,0.0162 -3.5111,0.0471 -3.9969,0.1422l-0.0167 1.8514 -2.0067 -0.0081 -0.0077 1.8594 -4.0137 0.1239 -0.0077 1.8594 -4.0044 0.1278 -0.0133 1.9831 -2.0035 0 -0.0085 1.8496c-0.8056,0.5986 -0.4884,0.3908 -1.0998,0.1387 -0.3194,-0.084 -0.1232,0.0765 -0.5096,-0.1071 -0.5157,-0.2452 0.1241,-0.0111 -0.3503,-0.2708l-0.181 -0.0783c-0.0339,-0.0113 -0.0699,-0.0144 -0.1051,-0.024 -1.2711,-0.3452 -0.1614,-0.5695 -0.7953,-1.3017 -0.2041,-0.2358 -0.0366,-0.11 -0.3518,-0.2271l-0.115 0.1615c-0.1528,0.3271 -0.0754,0.4205 0.2242,0.9105 0.2723,0.4454 0.3386,0.5254 0.3679,1.1763zm27.6957 18.4758c5.9936,1.3379 12.7532,1.1972 18.8738,-0.0955 13.1014,-2.7671 23.4051,-11.1505 29.6716,-22.3939 1.0877,-1.9516 3.086,-7.2194 3.0957,-7.2339 -0.1984,-0.3061 -0.1407,-0.3089 -0.1299,-0.896 -0.858,0.0523 -0.1803,0.2687 -1.0023,0.0353l-0.9053 -0.0234 -0.0753 1.9668c-0.4591,0 -3.2266,-0.0347 -3.6259,0.0715 -0.1742,0.0463 -0.2166,0.0831 -0.2569,0.2559 -0.1118,0.4784 -0.05,0.4874 -0.0523,0.9564 -0.0032,0.6174 0.0188,0.6958 -0.6038,0.7184l-1.4311 1.3498c-0.1279,0 -0.3631,-0.0146 -0.4758,-0.0038 -0.9784,0.094 0.0958,0.2401 -1.5261,0.2515l-0.0201 1.0953c-1.8977,-0.0007 -0.9662,0.1917 -1.7224,0.2508l-1.9992 0.0253c-0.7164,1.0659 0.613,0.995 -1.4755,1.0546 -0.8822,0.0251 -0.6043,-0.1866 -0.9522,-0.2418l-1.8422 -0.0478c0.1091,0.2403 -0.1067,0.2 0.8857,0.2366 -0.2332,0.3669 -0.3654,0.3553 -0.8839,1.0018l-2.0035 -0.0021c0,1.1308 0.3414,1.0142 -2.0048,1.003l-0.0287 1.9556 -4.0022 0.0206c0,0.5477 0.1175,3.6721 -0.2167,3.8723 -0.3525,0.2111 -0.8681,-0.1025 -0.8683,-0.1026l-0.2004 -0.0588c-0.0376,-0.0088 -0.0706,-0.0119 -0.1088,-0.0196 -0.3078,-0.0621 -0.2275,-0.0143 -0.5147,-0.1037 -0.7639,-0.238 -0.667,-0.1605 -2.0007,-0.1398 -0.0581,0.7138 -0.2424,0.5214 -2.1195,0.5104l-0.0189 1.965 -3.9999 0.0168 -0.0249 1.9675 -3.9976 0.0143c-0.0022,0.3648 0.0103,0.7626 -0.0011,1.122 -0.0064,0.2055 -0.0068,0.2633 -0.044,0.4656 -0.1246,0.6782 0.0145,1.1021 -0.0057,2.3304l-1.8732 0.0067 -0.1256 0.4954 -2.008 0 -0.1257 1.494c-0.8329,-0.4411 -1.7732,0.437 -1.9993,0.5009l-1.7583 0 -0.1369 1.4835 -1.998 0.0048 -0.0062 0.9835 -1.8902 0 -0.125 0.8498 -1.8481 0.1495c0.1708,0.1182 -0.0072,0.0316 0.2685,0.1132 0.9652,0.2858 1.3394,0.2019 2.3559,0.1818l-0.7525 0.3589c0.8471,-0.0417 0.4431,0.0648 0.6364,0.2272z"/>
  <path class="fil3" d="M97.9964 36.3188c0.3274,0.3922 0.0472,0.251 0.4927,0.4717 9.8872,1.2743 15.4048,-4.329 18.9404,-9.5755 1.8956,-2.8128 3.3267,-6.2261 4.5762,-9.724 0.6444,-1.804 1.3583,-3.3033 1.9562,-5.1382l1.1628 -6.0161c-3.6634,-0.5926 -16.4628,4.9915 -19.9592,7.5472 -2.6835,1.9615 -4.9941,3.8613 -6.7667,6.9594 -2.0609,3.6022 -2.1809,6.8149 -2.7931,10.863l3.9743 -4.4987c0.7316,-0.8074 3.5599,-3.5477 4.3486,-4.2606 4.001,-3.6166 5.0955,-4.6215 9.351,-7.6882 -0.399,1.7874 -0.5453,1.7096 -1.493,2.8037 -5.1763,5.9764 -9.1331,11.2205 -14.0706,17.3227l0.2804 0.9336z"/>
  <path class="fil3" d="M92.8245 32.2924c-0.1906,-1.2542 -6.5703,-9.0996 -7.741,-10.5949 2.2707,-0.0603 7.0005,5.5943 8.6518,7.4376 -0.1167,-1.8298 -0.9496,-3.9032 -1.6495,-5.2283 -0.8642,-1.6362 -1.9285,-2.7442 -3.0766,-3.781l-10.0122 -3.8981c-0.1164,3.2917 2.5033,8.8209 3.8687,11.0702 0.9276,1.5282 2.1444,3.1316 3.4356,4.0458 1.4933,1.0572 4.3109,0.9779 6.5232,0.9487z"/>
  <path class="fil4" d="M24.205 128.276l-3.9504 0 0 -1.1657c0,-0.5446 -0.0517,-0.8933 -0.1519,-1.0427 -0.1,-0.1494 -0.2691,-0.2225 -0.5071,-0.2225 -0.2553,0 -0.4485,0.0996 -0.5796,0.3022 -0.1311,0.1992 -0.1967,0.5048 -0.1967,0.9132 0,0.5247 0.0725,0.9232 0.2208,1.1889 0.1415,0.2657 0.5451,0.5845 1.2041,0.9631 1.8942,1.0826 3.0845,1.9692 3.5777,2.6633 0.4934,0.6941 0.7384,1.8132 0.7384,3.3574 0,1.1224 -0.138,1.9493 -0.4106,2.4807 -0.2725,0.5313 -0.8004,0.9796 -1.5801,1.3383 -0.7832,0.3586 -1.6906,0.5413 -2.729,0.5413 -1.1385,0 -2.1115,-0.2092 -2.9154,-0.6243 -0.8073,-0.4151 -1.3351,-0.9432 -1.5835,-1.5841 -0.2485,-0.6442 -0.3727,-1.5542 -0.3727,-2.7364l0 -1.0295 3.9504 0 0 1.9162c0,0.5911 0.0552,0.9697 0.1656,1.139 0.1139,0.1661 0.3105,0.2524 0.5934,0.2524 0.2829,0 0.4934,-0.1062 0.6314,-0.3221 0.1379,-0.2125 0.207,-0.5313 0.207,-0.9531 0,-0.9265 -0.1311,-1.5342 -0.3933,-1.8198 -0.2692,-0.2856 -0.935,-0.7605 -1.9908,-1.428 -1.0591,-0.6774 -1.7595,-1.1656 -2.1045,-1.4711 -0.3416,-0.3056 -0.6279,-0.7273 -0.8522,-1.2653 -0.2277,-0.538 -0.3381,-1.2254 -0.3381,-2.0622 0,-1.2055 0.1588,-2.0889 0.4796,-2.6468 0.3174,-0.5579 0.8349,-0.9929 1.5491,-1.3084 0.7141,-0.3122 1.5767,-0.4716 2.5875,-0.4716 1.1075,0 2.0494,0.1727 2.8257,0.5148 0.7797,0.3453 1.2937,0.7771 1.5491,1.3018 0.2518,0.5213 0.3761,1.408 0.3761,2.66l0 0.621zm5.9479 -4.7655l0 15.7509 -4.2575 0 0 -15.7509 4.2575 0zm1.7077 0l7.097 0 0 3.1515 -2.8395 0 0 2.9855 2.6566 0 0 2.9987 -2.6566 0 0 3.4637 3.1224 0 0 3.1515 -7.3799 0 0 -15.7509zm8.6011 0l3.0119 0c2.008,0 3.3674,0.0731 4.0781,0.2225 0.7107,0.1495 1.2903,0.5314 1.7388,1.1424 0.4485,0.6144 0.6728,1.5907 0.6728,2.9357 0,1.2254 -0.1587,2.0489 -0.4761,2.4707 -0.314,0.4217 -0.9385,0.6741 -1.87,0.7571 0.8419,0.2026 1.4111,0.4716 1.701,0.8103 0.2863,0.3354 0.4691,0.6443 0.5382,0.9265 0.0724,0.2823 0.1069,1.0594 0.1069,2.3313l0 4.1544 -3.9504 0 0 -5.2337c0,-0.8435 -0.0724,-1.3649 -0.2104,-1.5674 -0.138,-0.1993 -0.5003,-0.3022 -1.0833,-0.3022l0 7.1033 -4.2575 0 0 -15.7509zm4.2575 2.6933l0 3.5035c0.4761,0 0.8108,-0.0631 1.004,-0.1893 0.1931,-0.1262 0.2897,-0.538 0.2897,-1.2321l0 -0.8634c0,-0.5014 -0.0931,-0.8269 -0.2794,-0.983 -0.1863,-0.156 -0.5245,-0.2357 -1.0143,-0.2357zm6.8898 -2.6933l3.0119 0c2.008,0 3.3673,0.0731 4.078,0.2225 0.7108,0.1495 1.2904,0.5314 1.7389,1.1424 0.4485,0.6144 0.6728,1.5907 0.6728,2.9357 0,1.2254 -0.1588,2.0489 -0.4762,2.4707 -0.3139,0.4217 -0.9384,0.6741 -1.8699,0.7571 0.8418,0.2026 1.411,0.4716 1.7009,0.8103 0.2863,0.3354 0.4692,0.6443 0.5383,0.9265 0.0724,0.2823 0.1069,1.0594 0.1069,2.3313l0 4.1544 -3.9504 0 0 -5.2337c0,-0.8435 -0.0724,-1.3649 -0.2105,-1.5674 -0.138,-0.1993 -0.5002,-0.3022 -1.0833,-0.3022l0 7.1033 -4.2574 0 0 -15.7509zm4.2574 2.6933l0 3.5035c0.4762,0 0.8108,-0.0631 1.004,-0.1893 0.1932,-0.1262 0.2898,-0.538 0.2898,-1.2321l0 -0.8634c0,-0.5014 -0.0932,-0.8269 -0.2795,-0.983 -0.1862,-0.156 -0.5244,-0.2357 -1.0143,-0.2357zm14.2386 -2.6933l2.4357 15.7509 -4.3574 0 -0.2105 -2.8327 -1.5284 0 -0.2519 2.8327 -4.4057 0 2.1632 -15.7509 6.155 0zm-2.2529 10.1287c-0.2175,-1.7833 -0.4314,-3.9884 -0.6487,-6.6086 -0.4313,3.0121 -0.7003,5.2138 -0.8073,6.6086l1.456 0zm18.1337 -10.1287l-3.1016 10.049 0 5.7019 -3.9435 0 0 -5.7019 -2.9912 -10.049 3.9123 0c0.6107,3.0685 0.9557,5.1341 1.0283,6.1968 0.238,-1.6804 0.6313,-3.746 1.1833,-6.1968l3.9124 0zm13.3933 4.7655l-3.9504 0 0 -1.1657c0,-0.5446 -0.0517,-0.8933 -0.1518,-1.0427 -0.1001,-0.1494 -0.2691,-0.2225 -0.5071,-0.2225 -0.2554,0 -0.4485,0.0996 -0.5797,0.3022 -0.1311,0.1992 -0.1966,0.5048 -0.1966,0.9132 0,0.5247 0.0724,0.9232 0.2208,1.1889 0.1415,0.2657 0.5451,0.5845 1.2041,0.9631 1.8941,1.0826 3.0844,1.9692 3.5777,2.6633 0.4933,0.6941 0.7383,1.8132 0.7383,3.3574 0,1.1224 -0.1379,1.9493 -0.4106,2.4807 -0.2725,0.5313 -0.8003,0.9796 -1.58,1.3383 -0.7833,0.3586 -1.6907,0.5413 -2.7291,0.5413 -1.1385,0 -2.1115,-0.2092 -2.9154,-0.6243 -0.8073,-0.4151 -1.3351,-0.9432 -1.5835,-1.5841 -0.2485,-0.6442 -0.3726,-1.5542 -0.3726,-2.7364l0 -1.0295 3.9503 0 0 1.9162c0,0.5911 0.0552,0.9697 0.1656,1.139 0.1139,0.1661 0.3106,0.2524 0.5935,0.2524 0.2829,0 0.4933,-0.1062 0.6313,-0.3221 0.138,-0.2125 0.2071,-0.5313 0.2071,-0.9531 0,-0.9265 -0.1311,-1.5342 -0.3934,-1.8198 -0.2691,-0.2856 -0.935,-0.7605 -1.9907,-1.428 -1.0592,-0.6774 -1.7595,-1.1656 -2.1046,-1.4711 -0.3416,-0.3056 -0.6279,-0.7273 -0.8522,-1.2653 -0.2276,-0.538 -0.3381,-1.2254 -0.3381,-2.0622 0,-1.2055 0.1588,-2.0889 0.4796,-2.6468 0.3174,-0.5579 0.835,-0.9929 1.5491,-1.3084 0.7142,-0.3122 1.5767,-0.4716 2.5876,-0.4716 1.1074,0 2.0493,0.1727 2.8256,0.5148 0.7797,0.3453 1.2938,0.7771 1.5491,1.3018 0.2519,0.5213 0.3761,1.408 0.3761,2.66l0 0.621zm1.6904 -4.7655l7.097 0 0 3.1515 -2.8395 0 0 2.9855 2.6566 0 0 2.9987 -2.6566 0 0 3.4637 3.1224 0 0 3.1515 -7.3799 0 0 -15.7509zm12.8586 0l0 12.5994 2.5875 0 0 3.1515 -6.845 0 0 -15.7509 4.2575 0zm12.855 0l-2.1632 15.7509 -6.4587 0 -2.4564 -15.7509 4.4886 0c0.5174,4.3371 0.8867,8.0066 1.1109,11.0021 0.2209,-3.0287 0.4554,-5.7186 0.697,-8.0731l0.2932 -2.929 4.4886 0zm7.8041 0l2.4358 15.7509 -4.3575 0 -0.2104 -2.8327 -1.5285 0 -0.2518 2.8327 -4.4058 0 2.1633 -15.7509 6.1549 0zm-2.2529 10.1287c-0.2174,-1.7833 -0.4313,-3.9884 -0.6487,-6.6086 -0.4312,3.0121 -0.7003,5.2138 -0.8073,6.6086l1.456 0z"/>
 </g>
</svg>
