<?xml version="1.0" encoding="UTF-8"?>
<!DOCTYPE svg PUBLIC "-//W3C//DTD SVG 1.1//EN" "http://www.w3.org/Graphics/SVG/1.1/DTD/svg11.dtd">
<!-- Creator: CorelDRAW -->
<svg xmlns="http://www.w3.org/2000/svg" xml:space="preserve" width="150mm" height="150mm" style="shape-rendering:geometricPrecision; text-rendering:geometricPrecision; image-rendering:optimizeQuality; fill-rule:evenodd; clip-rule:evenodd"
viewBox="0 0 150 150"
 xmlns:xlink="http://www.w3.org/1999/xlink">
 <defs>
  <style type="text/css">
   <![CDATA[
    .fil0 {fill:#186841}
    .fil1 {fill:white}
   ]]>
  </style>
 </defs>
 <g id="Capa_x0020_1">
  <metadata id="CorelCorpID_0Corel-Layer"/>
  <path class="fil0" d="M72.5718 3.7794c-11.7295,0.7071 -19.12,2.6637 -28.5721,7.0208 -4.4909,2.07 -11.1239,6.3093 -14.792,9.5766 -0.8602,0.7661 -2.9295,2.4872 -3.5746,3.1518l-2.2801 2.2862c-12.6314,13.7126 -20.3623,31.4118 -19.6062,51.7272 1.4366,38.5974 33.4441,70.0911 73.8747,68.7405 38.4994,-1.2862 69.9362,-33.6091 68.644,-73.8189 -0.3289,-10.2325 -3.1003,-20.6157 -7.0783,-28.5785 -2.134,-4.2718 -6.4165,-11.2509 -9.5942,-14.768 -3.8383,-4.2484 -5.4264,-6.1194 -10.2366,-9.9384 -12.6327,-10.03 -30.1251,-16.4036 -46.7846,-15.3993z"/>
  <path class="fil1" d="M71.9849 6.9682c-14.2888,0.8328 -26.9048,5.3382 -37.6884,13.4223 -1.1542,0.8654 -2.4621,1.8787 -3.518,2.8238l-3.3232 3.0243c-1.4904,1.3141 -4.731,5.0917 -6.0685,6.7465 -9.844,12.1795 -15.1533,28.9009 -14.4384,45.1937 0.6197,14.1243 5.5566,26.9454 13.4347,37.5611 1.3047,1.7581 4.1988,5.2309 5.8846,6.9326 1.1458,1.1567 3.1572,3.0309 4.4092,4.0918 2.2871,1.938 4.7912,3.8543 7.3346,5.4817 3.3946,2.1722 7.0158,4.1117 11.1723,5.8353 22.1373,9.1802 47.5959,5.7047 66.5678,-8.4461 2.6669,-1.9891 6.8003,-5.5633 8.9619,-8.0427 1.4435,-1.6559 2.4431,-2.6306 3.9338,-4.5684 9.853,-12.8087 15.2283,-28.1559 14.4178,-45.1812 -0.4715,-9.9052 -3.0871,-19.2353 -6.9726,-27.0208 -3.1381,-6.2881 -7.4702,-12.5076 -12.3936,-17.4236 -1.7768,-1.7741 -2.493,-2.4572 -4.3956,-4.1096 -12.5739,-10.9205 -30.2023,-17.3184 -47.3184,-16.3207z"/>
  <path class="fil0" d="M69.091 113.097c0.228,3.2083 0.0231,7.2154 0.0231,10.5109 0,1.9196 -0.2726,3.2421 0.8714,4.4561 2.0619,2.1881 5.2199,2.2285 7.3312,0.0646 1.1962,-1.226 0.9345,-2.3975 0.9345,-4.3938l-0.0019 -10.6919c12.4411,1.4603 22.6475,-0.0436 30.3196,-9.8805 1.322,-1.695 2.8633,-4.0951 3.9114,-6.3638 1.7528,-3.7943 1.6481,-4.3173 2.8916,-7.5129 1.0658,-2.739 1.9909,-4.6016 2.2723,-7.9986 0.3516,-4.2438 -0.9681,-8.8647 -2.9206,-12.4285 -0.7782,-1.4203 -1.272,-1.9168 -1.0682,-3.8783 0.3337,-3.2121 0.0889,-6.4509 -0.4921,-9.5299 -1.8163,-9.6262 -8.5526,-16.2836 -18.3487,-17.8318 -1.1211,-0.1771 -3.7591,-0.2014 -4.4485,-0.747 -0.4282,-0.3389 -1.2382,-2.6653 -5.5896,-4.6848 -7.7298,-3.5873 -19.5908,-2.2995 -23.8888,3.1179 -2.2417,2.8257 -2.8167,1.6106 -7.5567,2.7272 -7.8165,1.8414 -13.5388,6.7229 -15.9605,15.1245 -0.8184,2.8397 -1.3291,5.8749 -1.204,8.9811 0.2064,5.1233 0.3431,4.3052 -1.7095,8.2878 -2.498,4.8468 -2.7903,11.7272 -0.7427,17.0087 1.0428,2.6899 0.4836,0.9888 1.2418,3.8287 2.2989,8.6101 7.3122,16.7044 16.1116,20.1893 5.8909,2.333 11.3702,2.4244 18.0233,1.645z"/>
  <path class="fil1" d="M35.8161 85.4588c0.624,0.0539 3.0023,-0.4181 3.9022,-0.5145 4.3038,-0.4611 8.7575,-0.3578 12.9328,0.5645 4.8341,1.0677 8.4042,2.9486 11.8998,6.1112l0.4069 0.3087c0.0818,-5.7352 3.1191,-12.1307 6.4698,-16.1331l3.6729 -3.9395c1.3193,1.4823 1.8749,1.7767 3.538,3.9017 1.0293,1.3151 2.1609,2.9159 3.0571,4.5608 2.7204,4.9936 2.4482,5.939 3.4639,11.636 5.6759,-5.2183 12.0098,-7.2748 20.3759,-7.2756 3.1975,-0.0003 5.4007,0.3579 8.5026,0.7526 1.9645,-3.9031 0.8818,-10.304 -1.1544,-14.3528 -0.6137,-1.2203 -1.6213,-2.7187 -1.8693,-4.0891 -0.2605,-1.4395 0.2134,-3.9697 0.1501,-5.6913 -0.1837,-4.9989 -1.2614,-9.7894 -4.0441,-13.6413 -3.9526,-5.4711 -9.2257,-7.0738 -15.7404,-7.7526 -1.903,-0.1983 -2.9047,-0.9589 -3.6731,-2.1445 -0.6605,-1.0189 -0.4953,-0.8278 -1.4027,-1.5215 -6.3883,-4.8832 -18.9561,-4.8422 -23.8683,1.3787 -2.8948,3.666 -6.9337,1.4578 -13.0565,4.5756 -5.5469,2.8247 -8.6385,7.4088 -9.958,13.5239 -1.2527,5.8055 -0.133,8.1365 -0.5452,11.0016 -0.4074,2.8318 -2.1447,3.9191 -3.3239,8.3484 -0.8942,3.359 -0.7912,7.1467 0.2639,10.3921z"/>
 </g>
</svg>
