<?xml version="1.0" encoding="UTF-8"?>
<!DOCTYPE svg PUBLIC "-//W3C//DTD SVG 1.1//EN" "http://www.w3.org/Graphics/SVG/1.1/DTD/svg11.dtd">
<!-- Creator: CorelDRAW -->
<svg xmlns="http://www.w3.org/2000/svg" xml:space="preserve" width="150mm" height="150mm" style="shape-rendering:geometricPrecision; text-rendering:geometricPrecision; image-rendering:optimizeQuality; fill-rule:evenodd; clip-rule:evenodd"
viewBox="0 0 150 150"
 xmlns:xlink="http://www.w3.org/1999/xlink">
 <defs>
  <style type="text/css">
   <![CDATA[
    .fil1 {fill:#27599E}
    .fil0 {fill:#343436}
    .fil2 {fill:white}
    .fil4 {fill:#FEFEFE;fill-rule:nonzero}
    .fil3 {fill:#27599E;fill-rule:nonzero}
   ]]>
  </style>
 </defs>
 <g id="Capa_x0020_1">
  <metadata id="CorelCorpID_0Corel-Layer"/>
  <path class="fil0" d="M13.1205 121.571l123.759 -0.0025c-0.1572,-0.6117 -1.4302,-2.6757 -1.8369,-3.4042l-5.791 -10.4697c-1.2824,-2.3985 -2.6066,-4.5434 -3.8543,-6.9393 -1.2399,-2.381 -2.6561,-4.6206 -3.905,-7.0139 -2.3563,-4.5156 -5.2711,-9.362 -7.7474,-13.9726 -3.7143,-6.916 -7.9203,-14.0275 -11.5974,-20.9206 -1.2741,-2.3884 -2.641,-4.6352 -3.9004,-7.0192 -2.4147,-4.5708 -5.3125,-9.3991 -7.7421,-13.9764 -2.4769,-4.6665 -5.2694,-9.277 -7.7447,-13.9764 -1.238,-2.3505 -2.5637,-4.6091 -3.8589,-6.9395l-3.9566 -6.9724c-0.4368,1.0938 -21.7915,39.3396 -23.1796,41.8583 -2.5713,4.6654 -5.2684,9.2794 -7.7491,13.9671 -3.5863,6.7767 -7.901,14.0083 -11.5631,20.8297 -1.2637,2.3539 -2.6156,4.6697 -3.89,7.0347 -4.3218,8.0202 -9.2936,16.4538 -13.5482,24.4231 -0.5088,0.9531 -1.5753,2.5817 -1.8944,3.4938z"/>
  <path class="fil1" d="M15.7685 120.069l118.387 0.0025c-0.0002,-0.6279 -0.8721,-2.1084 -1.192,-2.6289 -1.4893,-2.4231 -2.7788,-5.024 -4.1592,-7.5464l-3.077 -5.5205c-0.5491,-0.7541 -7.4154,-13.2511 -8.0468,-14.4457 -0.7751,-1.4663 -1.9067,-3.5978 -2.7655,-4.9801 -1.4992,-2.4129 -2.6957,-5.0706 -4.1553,-7.5443 -1.0769,-1.8252 -3.3597,-6.224 -4.1954,-7.4853 -0.5645,-0.852 -3.2632,-6.1943 -4.1655,-7.5141 -0.5,-0.7313 -1.015,-1.7605 -1.4026,-2.5202 -0.7261,-1.4231 -1.684,-2.87 -2.3857,-4.3694 -0.7088,-1.5145 -3.5082,-6.0654 -4.5536,-8.1261l-3.8281 -6.9934 -0.562 -0.4628c-0.7119,1.6899 -1.8048,4.764 -2.6132,6.2667 -0.2391,0.4444 -0.3804,1.0691 -0.6118,1.5549 -0.2201,0.4621 -0.451,1.0472 -0.6824,1.5968 -0.5321,1.264 -1.5737,4.3205 -2.2361,5.523 -0.1495,0.2714 -0.2504,0.5414 -0.3593,0.7826 -1.4003,3.1003 -2.5961,6.2216 -4.004,9.2768 -0.6418,-1.2005 -1.0214,-2.7678 -1.4539,-4.0249 -0.1522,-0.4423 -0.3887,-0.8586 -0.5719,-1.2973 -0.7492,-1.7945 -1.383,-3.6049 -2.0624,-5.4489 -0.3645,0.2416 -0.3966,0.7516 -0.6003,1.1944 -0.638,1.3866 -0.9983,2.6896 -1.5548,4.1677 -0.3683,0.9782 -1.5476,4.4722 -2.0363,5.3674 -0.4719,-0.1925 -1.7001,-3.9103 -1.9985,-4.5385 -1.2725,-2.6796 -2.0731,-5.1779 -3.2769,-8.0274l-0.6408 -1.5059c-0.64,-1.5459 -1.4139,-3.2317 -1.9651,-4.7694l-0.6178 -1.5326c-0.5875,-1.6002 -1.3326,-3.2665 -2.0428,-4.8137 -0.3484,0.1705 -2.476,4.1669 -2.8557,4.8725l-4.9999 9.1216c-0.0785,0.1503 -0.0994,0.2265 -0.1658,0.3481l-3.1603 5.4419c-0.0145,0.0242 -0.0336,0.0566 -0.0483,0.0807l-3.4314 6.3753c-0.3896,0.8116 -1.0162,1.6442 -1.4423,2.4633 -0.8806,1.6928 -2.539,4.9318 -3.456,6.3379 -0.4411,0.6765 -1.4777,2.4612 -1.6976,3.1802 -0.1764,0.5768 -0.7091,1.1166 -1.1104,1.8986 -0.4215,0.8212 -0.9116,1.5031 -1.3814,2.4211 -0.4343,0.8487 -0.953,1.8371 -1.3928,2.5378 -0.5024,0.8004 -0.928,1.6497 -1.4288,2.4976 -0.4422,0.7489 -0.9306,1.7056 -1.3761,2.5651l-2.7589 4.9955c-0.9827,1.6781 -1.7849,3.4205 -2.8026,5.0927 -1.9748,3.2448 -3.6723,6.7226 -5.5945,10.0032 -1.0528,1.7966 -1.856,3.3563 -2.7491,5.0046 -0.737,1.3601 -1.6388,3.0984 -2.473,4.3874 -0.2317,0.3581 -0.2293,0.1543 -0.245,0.7379z"/>
  <path class="fil2" d="M62.9134 34.8659c0.4913,0.8593 1.31,1.843 1.9397,2.7269 0.6429,0.9026 1.2926,1.8495 1.9521,2.7444l3.909 5.4786c0.4038,-0.4246 4.1649,-11.0819 4.3349,-11.5419l4.214 11.4135c0.3917,-0.3656 2.2587,-3.0749 2.7486,-3.7568 1.446,-2.0125 3.479,-4.706 4.8449,-6.7255 0.3037,-0.449 0.2223,-0.4463 -0.0775,-0.9913 -0.7914,-1.4384 -1.542,-2.8084 -2.3599,-4.2479 -1.586,-2.7914 -3.128,-5.5917 -4.6679,-8.4162l-4.7175 -8.4918c-0.2909,0.2889 -1.2397,2.0974 -1.5086,2.6058 -0.5105,0.9652 -1.0074,1.8711 -1.5388,2.7776 -1.7412,2.9704 -4.3845,7.8319 -6.072,10.9456 -0.4805,0.8865 -1.0112,1.8341 -1.49,2.7077 -0.4471,0.8158 -1.2223,2.0038 -1.511,2.7713z"/>
  <path class="fil2" d="M70.7338 57.9958c0.4339,-0.5263 3.7093,-10.4773 4.2226,-11.9763 0.2787,0.3601 3.7941,10.3384 4.2919,11.6998 2.8414,-4.7539 6.2673,-11.731 9.2009,-16.8379 1.2036,-2.0952 1.0746,-1.7093 0.4533,-2.8314l-1.6731 -2.8334 -8.0444 16.6245 -4.1098 -11.6949c-0.3003,0.3849 -0.4028,0.8936 -0.5799,1.3826l-3.7484 10.2722 -8.1152 -16.4318c-0.0117,0.0163 -0.0425,0.0557 -0.0564,0.0761 -0.0138,0.0202 -0.0378,0.0552 -0.0526,0.0778 -0.0674,0.103 -0.1155,0.1945 -0.1877,0.3195l-1.18 2.1251c-0.6182,1.1207 -0.7134,0.5994 0.5254,2.924 1.0059,1.8877 2.1044,3.8518 3.0379,5.7247 1.9149,3.842 4.1474,7.5774 6.0155,11.3794z"/>
  <polygon class="fil1" points="72.3195,87.6988 75.0989,87.7022 73.7093,83.2689 "/>
  <path class="fil3" d="M13.6486 133.358l2.6691 0 1.0304 3.9945 1.0257 -3.9945 2.6599 0 0 6.5658 -1.6571 0 0 -5.0065 -1.2856 5.0065 -1.4997 0 -1.281 -5.0065 0 5.0065 -1.6617 0 0 -6.5658zm8.4231 3.2867c0,-1.0716 0.2996,-1.9063 0.8958,-2.5024 0.5977,-0.5978 1.4294,-0.8959 2.4949,-0.8959 1.093,0 1.9353,0.2935 2.5269,0.8806 0.5901,0.5855 0.8866,1.4079 0.8866,2.4642 0,0.7674 -0.1299,1.3973 -0.3882,1.888 -0.2584,0.4907 -0.6314,0.8729 -1.119,1.1465 -0.4892,0.2736 -1.0961,0.4097 -1.8253,0.4097 -0.7399,0 -1.3529,-0.1177 -1.839,-0.3531 -0.4846,-0.237 -0.8775,-0.61 -1.1802,-1.1206 -0.3012,-0.5106 -0.4525,-1.1496 -0.4525,-1.917zm2.0301 0.0092c0,0.6635 0.1223,1.1389 0.3684,1.4293 0.2462,0.289 0.5825,0.4342 1.0059,0.4342 0.4357,0 0.7735,-0.1422 1.012,-0.425 0.2385,-0.2843 0.3593,-0.7934 0.3593,-1.5272 0,-0.6191 -0.1254,-1.07 -0.3746,-1.3559 -0.2491,-0.2843 -0.587,-0.4265 -1.015,-0.4265 -0.4082,0 -0.7369,0.1437 -0.9845,0.4341 -0.2477,0.289 -0.3715,0.769 -0.3715,1.437zm4.823 -3.2959l2.1219 0 1.4782 4.7252 1.4553 -4.7252 2.0607 0 -2.4367 6.5658 -2.1983 0 -2.4811 -6.5658zm7.8636 0l2.0332 0 0 6.5658 -2.0332 0 0 -6.5658zm3.4671 0l2.6691 0 1.0304 3.9945 1.0257 -3.9945 2.6599 0 0 6.5658 -1.6571 0 0 -5.0065 -1.2856 5.0065 -1.4997 0 -1.281 -5.0065 0 5.0065 -1.6617 0 0 -6.5658zm8.7594 0l2.0332 0 0 6.5658 -2.0332 0 0 -6.5658zm3.4854 0l5.4361 0 0 1.4019 -3.4029 0 0 1.0441 3.1568 0 0 1.3391 -3.1568 0 0 1.2933 3.5023 0 0 1.4874 -5.5355 0 0 -6.5658zm6.6408 0l1.8955 0 2.472 3.6322 0 -3.6322 1.9124 0 0 6.5658 -1.9124 0 -2.4597 -3.6047 0 3.6047 -1.9078 0 0 -6.5658zm7.1665 0l6.1667 0 0 1.622 -2.0698 0 0 4.9438 -2.0286 0 0 -4.9438 -2.0683 0 0 -1.622zm6.5153 3.2867c0,-1.0716 0.2996,-1.9063 0.8958,-2.5024 0.5977,-0.5978 1.4294,-0.8959 2.4949,-0.8959 1.093,0 1.9353,0.2935 2.5269,0.8806 0.5901,0.5855 0.8866,1.4079 0.8866,2.4642 0,0.7674 -0.1299,1.3973 -0.3882,1.888 -0.2584,0.4907 -0.6314,0.8729 -1.119,1.1465 -0.4892,0.2736 -1.0961,0.4097 -1.8253,0.4097 -0.7399,0 -1.3529,-0.1177 -1.839,-0.3531 -0.4846,-0.237 -0.8775,-0.61 -1.1802,-1.1206 -0.3012,-0.5106 -0.4525,-1.1496 -0.4525,-1.917zm2.0301 0.0092c0,0.6635 0.1223,1.1389 0.3684,1.4293 0.2462,0.289 0.5825,0.4342 1.0059,0.4342 0.4357,0 0.7735,-0.1422 1.012,-0.425 0.2385,-0.2843 0.3593,-0.7934 0.3593,-1.5272 0,-0.6191 -0.1254,-1.07 -0.3746,-1.3559 -0.2491,-0.2843 -0.587,-0.4265 -1.015,-0.4265 -0.4082,0 -0.7369,0.1437 -0.9845,0.4341 -0.2477,0.289 -0.3715,0.769 -0.3715,1.437zm8.952 3.2699l0 -6.5658 3.3815 0c0.6268,0 1.1068,0.0535 1.437,0.1621 0.3317,0.107 0.5992,0.3057 0.8025,0.5977 0.2034,0.2905 0.3043,0.6451 0.3043,1.0624 0,0.3654 -0.078,0.6788 -0.2324,0.9433 -0.1559,0.2644 -0.37,0.4784 -0.6405,0.6435 -0.1743,0.104 -0.4113,0.1911 -0.7124,0.2584 0.2415,0.081 0.4173,0.162 0.5289,0.243 0.0734,0.0536 0.1819,0.1682 0.3241,0.344 0.1422,0.1773 0.237,0.3119 0.2843,0.4082l0.9815 1.9032 -2.2931 0 -1.0838 -2.0072c-0.1376,-0.2583 -0.2599,-0.428 -0.3684,-0.506 -0.1453,-0.1009 -0.3119,-0.1513 -0.4969,-0.1513l-0.1788 0 0 2.6645 -2.0378 0zm2.0378 -3.9058l0.856 0c0.0918,0 0.2706,-0.0291 0.5366,-0.0887 0.1345,-0.0275 0.2446,-0.0963 0.3302,-0.2064 0.0841,-0.11 0.1269,-0.2369 0.1269,-0.3806 0,-0.2125 -0.0673,-0.3745 -0.2018,-0.4877 -0.1345,-0.1146 -0.3867,-0.1712 -0.7567,-0.1712l-0.8912 0 0 1.3346zm5.066 -2.66l5.4361 0 0 1.4019 -3.4029 0 0 1.0441 3.1568 0 0 1.3391 -3.1568 0 0 1.2933 3.5023 0 0 1.4874 -5.5355 0 0 -6.5658zm9.929 4.1871l0 -1.3651 3.1338 0 0 2.7991c-0.5992,0.4081 -1.1297,0.6879 -1.5914,0.8346 -0.4616,0.1483 -1.0089,0.2217 -1.6418,0.2217 -0.7796,0 -1.414,-0.133 -1.9047,-0.399 -0.4923,-0.2645 -0.8729,-0.6604 -1.142,-1.1863 -0.2706,-0.5258 -0.4066,-1.1281 -0.4066,-1.8084 0,-0.717 0.1483,-1.3407 0.4433,-1.8711 0.2966,-0.529 0.7292,-0.931 1.2994,-1.2062 0.4449,-0.2125 1.0441,-0.318 1.7962,-0.318 0.7246,0 1.2673,0.0658 1.6281,0.1972 0.3592,0.1315 0.6573,0.3348 0.8958,0.6115 0.237,0.2752 0.4158,0.6253 0.5351,1.0502l-1.9568 0.3486c-0.081,-0.2477 -0.2186,-0.4372 -0.4112,-0.5687 -0.1911,-0.1315 -0.4372,-0.1972 -0.7353,-0.1972 -0.4449,0 -0.7995,0.1544 -1.064,0.4632 -0.2644,0.3103 -0.3974,0.798 -0.3974,1.4676 0,0.7108 0.1345,1.2183 0.402,1.5225 0.266,0.3042 0.639,0.4571 1.1175,0.4571 0.2262,0 0.4433,-0.0336 0.6482,-0.0993 0.2063,-0.0658 0.4433,-0.1774 0.7077,-0.3348l0 -0.6192 -1.3559 0zm4.4194 -4.1871l2.0332 0 0 6.5658 -2.0332 0 0 -6.5658zm3.2332 3.2867c0,-1.0716 0.2996,-1.9063 0.8958,-2.5024 0.5977,-0.5978 1.4294,-0.8959 2.4949,-0.8959 1.093,0 1.9353,0.2935 2.5269,0.8806 0.5901,0.5855 0.8866,1.4079 0.8866,2.4642 0,0.7674 -0.1299,1.3973 -0.3882,1.888 -0.2584,0.4907 -0.6314,0.8729 -1.119,1.1465 -0.4892,0.2736 -1.0961,0.4097 -1.8253,0.4097 -0.7399,0 -1.3529,-0.1177 -1.839,-0.3531 -0.4846,-0.237 -0.8775,-0.61 -1.1802,-1.1206 -0.3012,-0.5106 -0.4525,-1.1496 -0.4525,-1.917zm2.0301 0.0092c0,0.6635 0.1223,1.1389 0.3684,1.4293 0.2462,0.289 0.5825,0.4342 1.0059,0.4342 0.4357,0 0.7735,-0.1422 1.012,-0.425 0.2385,-0.2843 0.3593,-0.7934 0.3593,-1.5272 0,-0.6191 -0.1254,-1.07 -0.3746,-1.3559 -0.2491,-0.2843 -0.587,-0.4265 -1.015,-0.4265 -0.4082,0 -0.7369,0.1437 -0.9845,0.4341 -0.2477,0.289 -0.3715,0.769 -0.3715,1.437zm5.8794 -3.2959l1.8955 0 2.472 3.6322 0 -3.6322 1.9124 0 0 6.5658 -1.9124 0 -2.4597 -3.6047 0 3.6047 -1.9078 0 0 -6.5658zm11.5768 5.482l-2.3114 0 -0.318 1.0838 -2.0729 0 2.4673 -6.5658 2.212 0 2.4689 6.5658 -2.1234 0 -0.3225 -1.0838zm-0.425 -1.4202l-0.7262 -2.3603 -0.7215 2.3603 1.4477 0zm3.519 -4.0618l2.0301 0 0 4.9484 3.166 0 0 1.6174 -5.1961 0 0 -6.5658z"/>
  <path class="fil4" d="M49.6843 79.7618l3.666 0 1.3209 6.98 1.9262 -6.98 3.6573 0 1.9348 6.98 1.321 -6.98 3.6485 0 -2.7524 12.4965 -3.7853 0 -2.1909 -7.8674 -2.1822 7.8674 -3.7853 0 -2.7786 -12.4965zm26.4332 10.4336l-4.3992 0 -0.6052 2.0629 -3.9453 0 4.696 -12.4965 4.2101 0 4.6989 12.4965 -4.0414 0 -0.6139 -2.0629zm-0.8088 -2.7029l-1.3821 -4.4924 -1.3733 4.4924 2.7554 0zm6.7502 4.7658l0 -12.4965 6.4359 0c1.1929,0 2.1065,0.1018 2.735,0.3084 0.6313,0.2037 1.1405,0.5819 1.5275,1.1376 0.3869,0.5528 0.579,1.2279 0.579,2.0222 0,0.6953 -0.1484,1.2918 -0.4423,1.7952 -0.2967,0.5033 -0.7041,0.9106 -1.2191,1.2249 -0.3317,0.1978 -0.7826,0.3637 -1.3558,0.4917 0.4597,0.1542 0.7943,0.3084 1.0067,0.4626 0.1396,0.1018 0.3462,0.3201 0.6168,0.6547 0.2706,0.3375 0.451,0.5935 0.5412,0.7768l1.8679 3.6224 -4.3643 0 -2.0629 -3.8202c-0.2618,-0.4918 -0.4946,-0.8147 -0.7012,-0.9631 -0.2764,-0.192 -0.5935,-0.288 -0.9456,-0.288l-0.3404 0 0 5.0713 -3.8784 0zm3.8784 -7.4339l1.6293 0c0.1746,0 0.515,-0.0553 1.0213,-0.1688 0.256,-0.0523 0.4655,-0.1833 0.6285,-0.3927 0.16,-0.2095 0.2414,-0.451 0.2414,-0.7245 0,-0.4044 -0.128,-0.7129 -0.384,-0.9282 -0.2561,-0.2182 -0.7361,-0.3258 -1.4402,-0.3258l-1.6963 0 0 2.54zm9.8023 -5.0626l3.8697 0 0 12.4965 -3.8697 0 0 -12.4965z"/>
  <path class="fil4" d="M50.8512 97.7351l2.5566 0 0 6.2316 3.9869 0 0 2.0368 -6.5435 0 0 -8.2684zm7.7043 0l2.5566 0 0 6.2316 3.9869 0 0 2.0368 -6.5435 0 0 -8.2684zm12.7924 6.9035l-2.9108 0 -0.4004 1.3649 -2.6104 0 3.1071 -8.2684 2.7856 0 3.1091 8.2684 -2.674 0 -0.4062 -1.3649zm-0.5352 -1.7884l-0.9144 -2.9724 -0.9087 2.9724 1.8231 0zm11.5564 1.9463c0.3196,0.2213 0.5275,0.3619 0.6257,0.4177 0.1463,0.0828 0.3446,0.179 0.5929,0.2868l-0.7103 1.4323c-0.3581,-0.1713 -0.7123,-0.3773 -1.0608,-0.616 -0.3503,-0.2387 -0.5948,-0.4197 -0.7334,-0.539 -0.5641,0.2445 -1.2706,0.3657 -2.1215,0.3657 -1.2552,0 -2.2466,-0.3272 -2.9724,-0.9818 -0.8567,-0.7739 -1.286,-1.8616 -1.286,-3.265 0,-1.361 0.3754,-2.4179 1.1262,-3.1726 0.7508,-0.7527 1.7981,-1.13 3.1437,-1.13 1.3726,0 2.4315,0.3677 3.1784,1.105 0.747,0.7373 1.1204,1.7923 1.1204,3.1649 0,1.2205 -0.3022,2.1985 -0.9029,2.932zm-1.9578 -1.3091c0.2041,-0.3639 0.3061,-0.9087 0.3061,-1.6345 0,-0.8355 -0.1559,-1.4303 -0.4659,-1.7884 -0.3099,-0.3581 -0.7373,-0.5352 -1.284,-0.5352 -0.5063,0 -0.9183,0.181 -1.234,0.5468 -0.3158,0.3638 -0.4736,0.9336 -0.4736,1.7095 0,0.9009 0.154,1.5343 0.462,1.9001 0.308,0.3638 0.7316,0.5467 1.2687,0.5467 0.1732,0 0.3369,-0.0173 0.4909,-0.0501 -0.2137,-0.2079 -0.5525,-0.4023 -1.0146,-0.5871l0.4005 -0.9202c0.2252,0.0423 0.4004,0.0924 0.5274,0.154 0.1252,0.0597 0.3697,0.2175 0.7354,0.4736 0.0867,0.0596 0.181,0.1212 0.2811,0.1848zm3.4479 -5.7523l7.7659 0 0 2.0426 -2.6066 0 0 6.2258 -2.5547 0 0 -6.2258 -2.6046 0 0 -2.0426zm13.2255 6.9035l-2.9108 0 -0.4004 1.3649 -2.6104 0 3.1071 -8.2684 2.7856 0 3.1091 8.2684 -2.674 0 -0.4062 -1.3649zm-0.5352 -1.7884l-0.9144 -2.9724 -0.9087 2.9724 1.8231 0z"/>
 </g>
</svg>
