<?xml version="1.0" encoding="UTF-8"?>
<!DOCTYPE svg PUBLIC "-//W3C//DTD SVG 1.1//EN" "http://www.w3.org/Graphics/SVG/1.1/DTD/svg11.dtd">
<!-- Creator: CorelDRAW -->
<svg xmlns="http://www.w3.org/2000/svg" xml:space="preserve" width="150mm" height="150mm" style="shape-rendering:geometricPrecision; text-rendering:geometricPrecision; image-rendering:optimizeQuality; fill-rule:evenodd; clip-rule:evenodd"
viewBox="0 0 150 150"
 xmlns:xlink="http://www.w3.org/1999/xlink">
 <defs>
  <style type="text/css">
   <![CDATA[
    .fil1 {fill:#5F161D}
    .fil2 {fill:#FFC37D}
    .fil0 {fill:white}
   ]]>
  </style>
 </defs>
 <g id="Capa_x0020_1">
  <metadata id="CorelCorpID_0Corel-Layer"/>
  <polygon class="fil0" points="-0,150 150,150 150,0 -0,0 "/>
  <polygon class="fil1" points="2.6352,148.07 147.559,148.043 147.558,3.172 2.6349,3.1737 "/>
  <path class="fil2" d="M11.7158 139.685l60.7461 -0.4514 3.0195 -3.599c0.5528,-0.6555 1.0577,-1.0656 1.6236,-1.6757 2.1435,-2.3112 6.5252,-6.3041 9.2014,-7.546 3.0538,-1.4171 6.0078,-2.9216 9.03,-4.3002 1.521,-0.6939 3.0055,-1.3919 4.4747,-2.1234 2.8532,-1.4208 2.5977,-0.1865 5.7819,-0.6977 8.0851,-1.298 14.2903,-2.2516 20.567,-6.0756 2.8911,-1.7614 6.4011,-3.6764 5.5785,-7.5205 -0.5012,-2.3422 -1.8346,-5.2003 -4.0104,-6.0086l-2.6815 -0.7214c0.3445,-0.3605 1.2153,-0.8969 1.6528,-1.2007 1.4377,-0.9986 1.274,-0.9694 2.3746,-1.9388 1.2197,-1.0744 4.1708,-3.9764 5.1441,-5.1364 2.5816,-3.0767 1.6472,-4.956 -0.2943,-8.2498 -0.8289,-1.4063 -1.6447,-2.0993 -2.7345,-3.0974 -1.1956,-1.0951 -4.8185,-0.7401 -9.7626,0.53 0.2723,-0.723 1.8858,-2.5338 2.4533,-3.2001 3.6709,-4.3101 6.0492,-6.5687 3.1241,-11.2889 -2.4377,-3.9338 -6.5061,-6.6237 -11.1144,-4.5722l-3.8907 1.9153c0.6279,-1.8036 6.8523,-8.7859 7.5503,-14.1253 0.492,-3.763 -2.1116,-5.37 -3.9721,-6.8181 -2.226,-1.7326 -3.8193,-3.2002 -7.8401,-2.9401 -6.5111,0.4213 -13.8074,4.6821 -18.892,7.9985 -2.2344,1.4573 -4.2515,3.0107 -6.3287,4.5828 -3.5692,2.7012 -6.3465,6.3637 -10.5954,4.9551 -2.0882,-0.6922 -4.3957,-3.5083 -5.4325,-5.3553 -1.3107,-2.335 -2.1397,-5.2882 -2.3596,-8.4276 -0.2655,-3.7914 1.0736,-12.1024 0.5395,-15.269 -1.1262,-6.6779 -5.0311,-12.8495 -10.7294,-16.295 -1.0779,-0.6517 -2.5644,-1.2056 -4.0339,-1.4144 -0.7129,-0.1013 -1.7887,-0.1651 -2.5343,-0.0537 -1.0553,0.1577 -1.2167,0.4816 -1.7987,0.982 -0.5305,0.456 -0.9261,0.3887 -1.6037,1.0617 -1.7204,1.709 -1.435,4.1528 -1.2669,6.7668 0.2075,3.2262 0.7611,6.3183 1.3672,9.3689 0.6993,3.519 0.9899,6.0393 0.6475,9.7059 -0.8596,9.2049 -2.7569,18.9066 -4.3586,28.0435 -1.16,6.6176 -2.2029,12.8148 -0.713,19.6138 0.6695,3.0546 1.8861,5.4307 1.942,8.7987 0.052,3.1359 -1.0785,6.0992 -2.547,8.2031 -1.5454,2.2142 -3.2267,4.0186 -4.8464,5.9437 -0.3751,0.4459 -0.9114,0.9289 -1.3085,1.3562 -0.4856,0.5226 -0.8542,0.926 -1.3608,1.4295 -1.7693,1.7586 -2.3293,2.4514 -3.8658,4.2573 -0.3667,0.431 -0.8054,0.9738 -1.1818,1.4783 -3.8679,5.1841 -7.5209,10.5969 -10.7792,16.2533 -0.6711,1.1649 -1.3342,2.2469 -2.024,3.4341 -0.5796,0.9976 -1.5689,2.4598 -1.9573,3.4238z"/>
  <path class="fil1" d="M92.3996 95.477c-0.1915,1.0612 -2.8751,3.4602 -1.1204,7.7886 0.812,2.003 2.5749,3.4445 4.544,4.2076l0.9244 0.3948c-0.6154,1.4435 -1.3374,2.674 -1.1758,4.5592l2.4039 3.5139c-0.438,-1.9232 -1.0197,-2.7072 -0.1564,-4.9225 0.5587,-1.4338 1.4765,-2.3069 2.4435,-3.4044 -0.7529,-0.6313 -4.4807,-1.4291 -5.6467,-5.783 -1.0331,-3.8583 0.9158,-6.3551 2.6044,-8.2912 2.8716,-3.2925 7.1038,-4.7188 10.5067,-6.6241l3.6724 -2.1478c-0.6004,-0.2092 -4.9647,2.0587 -5.8069,2.4207 -4.0387,1.7361 -7.7182,3.4341 -10.9957,6.1345 -1.4896,1.2274 -1.4205,1.7727 -2.8422,1.2143 -3.0255,-1.1884 -5.0562,-4.2414 -4.9168,-7.8565 0.2382,-6.1773 7.1726,-10.539 11.6452,-14.2216 -0.7446,0.174 -7.2807,4.8163 -8.477,5.7408 -3.8599,2.9826 -7.9603,8.2634 -5.3043,13.3654 0.5908,1.1349 1.7226,2.2268 2.8766,2.8333 1.5925,0.837 2.8101,0.9417 4.8211,1.078z"/>
  <path class="fil1" d="M84.3009 76.2759c-0.5555,-1.6082 -1.0808,-2.3882 -0.9623,-4.4519 0.1984,-3.4557 2.1643,-6.7346 4.1545,-9.3318 0.9482,-1.2375 5.9213,-7.0055 7.492,-8.7534 0.4626,-0.5148 0.886,-0.9445 1.3108,-1.478 0.996,-1.2509 1.33,-1.3619 2.3778,-2.9664 -0.5995,0.0006 -4.2881,3.2272 -5.0375,3.9859l-3.1725 3.0476c-0.5385,0.5254 -1.0137,1.1036 -1.5489,1.6217l-4.6702 4.5975c-1.6499,1.6291 -3.3098,3.154 -3.8486,5.5407 -0.8339,3.6941 0.9948,7.5232 3.9049,8.1881z"/>
 </g>
</svg>
