<svg width="326" height="25" viewBox="0 0 326 25" fill="none" xmlns="http://www.w3.org/2000/svg">
<path d="M6 10.0007H320C320 15.5233 315.523 20.0003 310 20.0003H15.9995C10.477 20.0003 6 15.5233 6 10.0007Z" fill="#D89100"/>
<rect x="5" y="0.0012207" width="11" height="9.99954" fill="#D89100"/>
<rect x="10" y="7.00085" width="11" height="9.99954" fill="#D89100"/>
<rect x="18" y="10.0007" width="11" height="9.99954" fill="#D89100"/>
<rect width="11" height="9.99954" transform="matrix(-1 0 0 1 321 0.0012207)" fill="#D89100"/>
<rect width="11" height="9.99954" transform="matrix(-1 0 0 1 316 7.00085)" fill="#D89100"/>
<rect width="11" height="9.99954" transform="matrix(-1 0 0 1 308 10.0007)" fill="#D89100"/>
<rect width="9" height="9.99954" transform="matrix(-1 0 0 1 326 6.00092)" fill="#212121"/>
<rect width="11" height="9.99954" transform="matrix(-1 0 0 1 323 13.0006)" fill="#212121"/>
<rect width="11" height="8.99958" transform="matrix(-1 0 0 1 315 16.0004)" fill="#212121"/>
<rect y="6.00092" width="9" height="9.99954" fill="#212121"/>
<rect x="3" y="13.0006" width="11" height="9.99954" fill="#212121"/>
<rect x="11" y="16.0004" width="11" height="8.99958" fill="#212121"/>
</svg>
