<svg width="326" height="25" viewBox="0 0 326 25" fill="none" xmlns="http://www.w3.org/2000/svg">
<path d="M6 14.9994H320C320 9.47677 315.523 4.99982 310 4.99982H15.9995C10.477 4.99982 6 9.47677 6 14.9994Z" fill="#FFD581"/>
<rect width="11" height="9.99954" transform="matrix(1 0 0 -1 5 24.9988)" fill="#FFD581"/>
<rect width="11" height="9.99954" transform="matrix(1 0 0 -1 10 17.9992)" fill="#FFD581"/>
<rect width="11" height="9.99954" transform="matrix(1 0 0 -1 18 14.9994)" fill="#FFD581"/>
<rect x="321" y="24.9988" width="11" height="9.99954" transform="rotate(-180 321 24.9988)" fill="#FFD581"/>
<rect x="316" y="17.9992" width="11" height="9.99954" transform="rotate(-180 316 17.9992)" fill="#FFD581"/>
<rect x="308" y="14.9994" width="11" height="9.99954" transform="rotate(-180 308 14.9994)" fill="#FFD581"/>
<rect x="326" y="18.9991" width="9" height="9.99954" transform="rotate(-180 326 18.9991)" fill="#212121"/>
<rect x="323" y="11.9995" width="11" height="9.99954" transform="rotate(-180 323 11.9995)" fill="#212121"/>
<rect x="315" y="8.9996" width="11" height="8.99958" transform="rotate(-180 315 8.9996)" fill="#212121"/>
<rect width="9" height="9.99954" transform="matrix(1 0 0 -1 0 18.9991)" fill="#212121"/>
<rect width="11" height="9.99954" transform="matrix(1 0 0 -1 3 11.9995)" fill="#212121"/>
<rect width="11" height="8.99958" transform="matrix(1 0 0 -1 11 8.9996)" fill="#212121"/>
</svg>
